<svg width="155" height="114" viewBox="0 0 155 114" fill="none" xmlns="http://www.w3.org/2000/svg">
<mask id="mask0_1531_8489" style="mask-type:luminance" maskUnits="userSpaceOnUse" x="63" y="16" width="92" height="68">
<path d="M109.167 66.6666C122.974 66.6666 134.167 55.4737 134.167 41.6666C134.167 27.8595 122.974 16.6666 109.167 16.6666C95.3596 16.6666 84.1667 27.8595 84.1667 41.6666C84.1667 55.4737 95.3596 66.6666 109.167 66.6666Z" fill="white"/>
<path d="M125.833 54.1666H88.3334V83.3333H125.833V54.1666Z" fill="white"/>
<path d="M100.833 33.3333H88.3334C74.5263 33.3333 63.3334 44.5261 63.3334 58.3333C63.3334 72.1404 74.5263 83.3333 88.3334 83.3333H100.833C114.64 83.3333 125.833 72.1404 125.833 58.3333C125.833 44.5261 114.64 33.3333 100.833 33.3333Z" fill="white"/>
<path d="M134.167 41.6666H121.667C110.161 41.6666 100.833 50.994 100.833 62.5C100.833 74.0059 110.161 83.3333 121.667 83.3333H134.167C145.673 83.3333 155 74.0059 155 62.5C155 50.994 145.673 41.6666 134.167 41.6666Z" fill="white"/>
</mask>
<g mask="url(#mask0_1531_8489)">
<path d="M155 0H55V100H155V0Z" fill="#ED1B1B"/>
</g>
<g clip-path="url(#clip0_1531_8489)">
<path d="M12.9293 56.1125C12.9293 38.4291 27.2835 24.4166 45.1502 24.4166C58.4418 24.4166 69.7835 32.1583 74.7293 43.4291L74.771 43.5208L74.7752 43.5458C88.9502 44.6041 100 56.0625 100 70.4C100 85.45 87.8168 97.3333 72.6293 97.3333H20.9043C9.29183 97.3333 0.000162349 88.2916 0.000162349 76.75C-0.0162588 72.6317 1.21339 68.6048 3.52759 65.1982C5.84178 61.7916 9.13228 59.1647 12.9668 57.6625C12.9418 57.1462 12.9293 56.6294 12.9293 56.1125ZM45.1502 30.6666C30.6293 30.6666 19.1793 41.9875 19.1793 56.1125C19.1793 57.2958 19.271 58.6208 19.396 59.2625C19.547 60.0455 19.393 60.8567 18.9654 61.5298C18.5378 62.203 17.869 62.6872 17.096 62.8833C10.7627 64.4875 6.25016 70.0166 6.25016 76.75C6.25016 84.7375 12.6335 91.0833 20.9043 91.0833H72.6293C84.4752 91.0833 93.7502 81.8916 93.7502 70.4C93.7502 58.9041 84.4752 49.7125 72.6293 49.7125C72.0057 49.7126 71.3963 49.5263 70.8795 49.1773C70.3627 48.8283 69.9621 48.3326 69.7293 47.7541L68.9835 45.8958C65.0252 36.9166 55.9335 30.6666 45.1502 30.6666Z" fill="#ED1B1B"/>
</g>
<defs>
<clipPath id="clip0_1531_8489">
<rect width="100" height="100" fill="white" transform="translate(0 14)"/>
</clipPath>
</defs>
</svg>
