<svg width="286" height="188" viewBox="0 0 286 188" fill="none" xmlns="http://www.w3.org/2000/svg">
<path d="M227.601 113.214L227.044 118.554C225.592 122.033 224.142 125.508 222.693 128.982C222.187 130.202 221.679 131.42 221.168 132.635C220.937 133.204 220.608 133.728 220.198 134.184C220.177 134.214 220.151 134.24 220.119 134.258C220.087 134.277 220.052 134.288 220.015 134.291C219.892 134.291 219.848 134.127 219.839 134.003C219.769 132.686 219.612 131.375 219.369 130.079C218.012 123.819 210.766 121.525 205.083 121.667C202.809 121.702 200.569 122.222 198.511 123.193C195.543 124.634 194.387 128.641 194.23 128.79L194.104 129.305L192.069 137.808C191.64 139.704 191.313 140.706 189.567 141.211C189.511 141.23 187.772 142.159 187.715 142.159C187.041 142.349 188.887 141.941 188.156 141.818L185.84 141.455L184.854 141.227L170.467 137.811C171.024 137.906 171.595 138.01 172.174 138.127L175.514 138.927L174.632 134.68C172.335 121.458 176.141 109.463 182.624 102.95C184.331 101.238 185.179 100.798 187.17 99.6576L188.288 102.315C188.288 102.315 199.73 105.737 202.427 95.2367C203.517 95.3315 205.612 95.3157 206.692 95.5527C212.325 96.7374 217.412 99.7489 221.168 104.123C221.499 104.502 221.823 104.894 222.145 105.292L222.315 105.5C222.513 105.75 222.724 106.006 222.923 106.262L223.065 106.464C224.711 108.62 226.226 110.874 227.601 113.214Z" fill="#353642"/>
<path d="M91.6458 57.9406C93.4603 48.8398 101.166 40.0234 123.174 38.0042C172.093 33.5202 145.649 19.9923 161.577 5.1877C177.505 -9.61686 237.73 14.7404 221.975 52.7803C206.22 90.8203 258.229 48.5997 280.256 96.7832C283.447 103.775 284.983 111.413 284.745 119.099C284.467 127.22 282.383 135.176 278.643 142.385C271.608 156.169 258.541 168.449 239.642 176.058C236.853 177.198 233.934 178.222 230.884 179.133" stroke="#FFA7A7" stroke-width="1.42832" stroke-miterlimit="10"/>
<path d="M246.604 132.788C246.223 137.253 243.205 137.98 243.205 137.98C240.653 139.494 236.734 137.866 235.943 135.028C235.932 134.998 235.925 134.966 235.924 134.934C235.294 132.504 234.066 129.382 232.415 125.966C229.233 118.243 225.097 110.456 219.792 104.298C216.035 99.9241 210.948 96.9126 205.316 95.7276C205.297 95.7276 205.287 95.7087 205.269 95.7087C197.799 93.4525 194.164 88.8452 192.588 84.4275C192.588 84.4275 192.588 84.4275 192.588 84.4086C191.914 81.6183 191.228 78.8975 191.596 77.2512C192.226 74.3661 192.541 71.2472 191.757 70.6152C190.771 69.7873 188.988 70.4003 184.451 71.3167C180.523 72.1257 178.428 71.6675 177.955 69.2596C177.881 68.8861 177.842 68.5059 177.842 68.1251C177.823 68.3653 176.897 67.411 176.853 67.6385C176.556 68.8677 175.964 69.3607 174.673 69.9011C172.754 70.7005 171.97 73.7878 171.686 75.845C171.39 78.0349 172.373 81.0558 173.151 83.113C172.155 81.9722 171.015 82.1049 169.232 82.797C168.785 82.9676 167.657 82.9202 166.765 82.6074C166.891 82.499 167.04 82.42 167.2 82.3767C167.487 82.2819 165.407 81.2454 165.71 81.1791C168.737 80.4933 170.435 77.9622 170.076 75.7344C169.185 70.1254 170.372 63.5274 174.15 59.1571C178.314 54.3507 185.11 53.3522 190.862 55.5515C195.38 57.2737 199.652 60.8066 201.217 65.5181C201.217 65.5371 201.217 65.5561 201.236 65.575C201.435 66.1742 201.588 66.7881 201.693 67.411C202.269 70.9154 201.038 74.4672 200.354 77.9306C200.108 79.1788 200.732 80.5407 200.864 81.5298C201.624 87.4706 208.46 89.1486 213.869 91.6702C225.238 96.9822 234.523 106.064 240.766 117.108C244.912 124.42 246.393 129.407 246.604 132.788Z" fill="#FFA7A7"/>
<path d="M186.666 98.4794C186.543 98.5457 186.42 98.6121 186.307 98.6879C184.265 99.8619 182.388 101.303 180.724 102.973C174.244 109.486 170.439 121.481 172.735 134.702L173.617 138.927" stroke="black" stroke-width="1.42832" stroke-miterlimit="10"/>
<path d="M244.002 187.193C244.003 177.322 243.152 167.471 241.459 157.748C240.327 151.151 238.768 144.635 236.791 138.241C235.603 134.358 234.151 130.167 232.424 125.961C230.821 122.025 228.969 118.196 226.88 114.497C224.854 110.875 222.483 107.457 219.801 104.293C216.045 99.92 210.958 96.9082 205.325 95.7235C204.245 95.4938 203.152 95.3291 202.052 95.2305" stroke="black" stroke-width="1.42832" stroke-miterlimit="10"/>
<path d="M127.559 101.296L127.399 101.267C125.475 100.944 123.501 101.11 121.658 101.75C119.814 102.391 118.161 103.485 116.848 104.933L106.074 116.707L104.814 118.097C104.736 118.183 104.662 118.272 104.594 118.366" stroke="black" stroke-width="1.42832" stroke-miterlimit="10"/>
<path d="M112 121.44L117.913 114.861L117.922 114.851" stroke="black" stroke-width="1.42832" stroke-miterlimit="10"/>
<path d="M163.438 155.422L191.253 165.253C193.931 166.2 196.782 166.557 199.61 166.3C202.439 166.043 205.179 165.179 207.645 163.765C210.111 162.351 212.244 160.421 213.899 158.106C215.555 155.791 216.694 153.146 217.24 150.35L223.821 116.652C224.158 114.922 224.142 113.141 223.775 111.417C223.408 109.693 222.697 108.061 221.685 106.619C221.402 106.213 221.095 105.825 220.765 105.456" stroke="black" stroke-width="1.42832" stroke-miterlimit="10"/>
<path d="M145.031 154.064C141.49 156.462 138.888 163.746 137.505 168.527C137.268 169.329 136.778 170.032 136.109 170.531C135.44 171.03 134.628 171.298 133.794 171.295C133.229 171.295 132.671 171.172 132.159 170.935C131.372 170.565 130.733 169.94 130.344 169.161C129.956 168.382 129.84 167.494 130.016 166.641C132.332 155.284 140.504 132.863 168.577 137.806C169.137 137.9 169.708 138.005 170.284 138.122L173.617 138.927L182.964 141.212L185.484 141.822C186.44 142.055 187.442 142.019 188.38 141.718C188.437 141.706 188.494 141.691 188.55 141.67C189.413 141.373 190.187 140.863 190.801 140.185C191.415 139.508 191.849 138.686 192.062 137.796L194.189 128.923L194.312 128.408L197.096 116.807" stroke="black" stroke-width="1.42832" stroke-miterlimit="10"/>
<path d="M131.34 117.701H121.813C120.727 117.701 119.685 117.268 118.917 116.498C118.149 115.728 117.718 114.683 117.718 113.593C117.718 112.504 118.149 111.459 118.917 110.689C119.685 109.918 120.727 109.485 121.813 109.485H135.309" stroke="black" stroke-width="1.42832" stroke-miterlimit="10"/>
<path d="M124.028 117.699C123.892 119.373 123.256 120.612 122.317 121.469C119.898 123.681 115.465 123.428 112.381 121.914" stroke="black" stroke-width="1.42832" stroke-miterlimit="10"/>
<path d="M106.087 116.703C103.355 113.391 103.913 108.901 106.033 105.431C112.047 95.5844 125.789 97.474 134.701 101.566C141.922 104.872 148.247 109.839 154.406 114.794C157.415 117.215 160.37 119.736 163.227 122.378C163.752 122.854 164.377 123.205 165.056 123.403C165.736 123.602 166.451 123.644 167.148 123.525C167.846 123.407 168.507 123.131 169.083 122.719C169.659 122.307 170.134 121.769 170.473 121.146C172.048 118.229 173.753 115.047 174.074 114.165" stroke="black" stroke-width="1.42832" stroke-miterlimit="10"/>
<path d="M122.32 121.469C122.32 121.469 136.531 129.201 147.088 140.312" stroke="black" stroke-width="1.42832" stroke-miterlimit="10"/>
<path d="M141.562 158.257C139.987 160.956 141.342 164.919 144.319 165.867C148.121 167.097 152.141 167.501 156.111 167.052C160.442 166.546 163.322 162.959 165.218 158.851C165.356 158.546 165.427 158.214 165.428 157.879C165.43 157.544 165.361 157.212 165.226 156.906C165.091 156.599 164.893 156.324 164.646 156.099C164.398 155.874 164.106 155.704 163.788 155.6C163.215 155.41 162.592 155.445 162.043 155.696C161.494 155.947 161.06 156.397 160.827 156.955C160.197 158.415 159.223 160.242 157.932 161.063" stroke="black" stroke-width="1.42832" stroke-miterlimit="10"/>
<path d="M148.981 157.751C148.981 157.751 145.091 161.948 148.159 166.391C148.294 166.577 148.453 166.745 148.632 166.89" stroke="black" stroke-width="1.42832" stroke-miterlimit="10"/>
<path d="M154.113 158.444C154.113 158.444 150.516 166.565 155.131 167.159" stroke="black" stroke-width="1.42832" stroke-miterlimit="10"/>
<path d="M281.844 187.2H59.0397" stroke="black" stroke-width="1.42832" stroke-miterlimit="10"/>
<path d="M146.691 171.895H124.472C124.246 173.999 123.253 175.945 121.682 177.358C120.112 178.771 118.076 179.551 115.966 179.549H41.2843C41.2884 181.575 42.0927 183.517 43.521 184.949C44.9491 186.382 46.885 187.189 48.905 187.193H146.691C148.714 187.192 150.655 186.387 152.088 184.954C153.521 183.522 154.33 181.578 154.337 179.549V174.41C154.337 173.74 154.072 173.097 153.599 172.623C153.126 172.149 152.485 171.883 151.817 171.883L146.691 171.895Z" stroke="black" stroke-width="1.42832" stroke-miterlimit="10"/>
<path d="M112.381 121.914C113.036 122.823 113.507 123.851 113.767 124.941L124.292 168.973C124.525 169.929 124.586 170.918 124.472 171.896C124.246 174 123.253 175.946 121.682 177.359C120.112 178.772 118.076 179.552 115.966 179.549H39.8981C37.9771 179.549 36.1117 178.9 34.6037 177.706C33.0953 176.512 32.0318 174.844 31.5844 172.97L21.078 128.942C20.7759 127.681 20.763 126.368 21.0399 125.102C21.3168 123.835 21.8763 122.649 22.6768 121.63C23.477 120.612 24.4971 119.789 25.6602 119.224C26.8233 118.658 28.0992 118.365 29.3918 118.365H105.453C106.703 118.363 107.938 118.637 109.069 119.169C110.201 119.7 111.201 120.476 112 121.44L112.381 121.914Z" stroke="black" stroke-width="1.42832" stroke-miterlimit="10"/>
<path d="M105.507 82.5489C105.507 87.5803 103.648 92.4057 100.34 95.9635C97.0313 99.5212 92.5439 101.52 87.8651 101.52H78.3542C77.1618 101.521 76.0186 102.03 75.1752 102.937C74.3319 103.843 73.8571 105.072 73.8555 106.354V106.578C73.8549 107.527 74.1299 108.452 74.6422 109.225C75.1544 109.997 75.8784 110.578 76.7129 110.887C77.1524 111.051 77.6148 111.134 78.0801 111.131L76.7318 111.171L67.0729 111.436H66.9689C65.775 111.436 64.6298 110.926 63.7846 110.019C62.9393 109.112 62.4633 107.882 62.4608 106.598C62.4608 105.315 61.987 104.084 61.143 103.177C60.2994 102.27 59.1552 101.76 57.9621 101.76H18.8728C14.1939 101.76 9.70664 99.7617 6.39813 96.204C3.08965 92.6462 1.23096 87.8208 1.23096 82.7894V82.5421C1.23137 77.9948 2.06466 73.4926 3.68321 69.2915C5.30175 65.0908 7.67392 61.2738 10.6642 58.0589C13.6545 54.844 17.2044 52.2938 21.1111 50.5542C25.0179 48.8146 29.2053 47.9192 33.4336 47.9199H73.2979C81.8388 47.9206 90.03 51.5691 96.0701 58.063C102.11 64.5569 105.504 73.3642 105.507 82.5489Z" stroke="black" stroke-width="1.42832" stroke-miterlimit="10"/>
<path d="M205.316 95.7142C205.297 95.7142 205.287 95.6952 205.268 95.6952C197.799 93.439 194.164 88.8317 192.588 84.414C192.588 84.414 192.588 84.414 192.588 84.3951C191.357 80.9507 191.385 77.6169 191.829 75.6261C192.095 74.5716 192.264 73.495 192.333 72.4092C192.437 69.3346 190.188 70.0866 183.755 71.3728C180.8 71.9732 178.91 70.8482 177.965 69.2492C177.873 69.1099 177.793 68.9629 177.725 68.81C177.284 67.8794 177.101 66.8467 177.196 65.8206" stroke="black" stroke-width="1.42832" stroke-miterlimit="10"/>
<path d="M173.494 83.5295C173.381 83.3683 173.264 83.2135 173.151 83.0902C172.155 81.9495 171.015 82.0822 169.232 82.7742C168.785 82.9449 167.657 82.8975 166.765 82.5846C166.015 82.316 165.455 81.8515 165.71 81.1563C165.775 81.0132 165.873 80.8874 165.995 80.7882C166.117 80.689 166.259 80.6191 166.412 80.5844C166.709 80.5091 167.01 80.4488 167.313 80.4042C170.372 79.7185 169.689 76.1667 169.317 73.9389C168.416 68.3331 169.613 61.735 173.428 57.3648C177.631 52.5584 184.505 51.5567 190.311 53.756C195.417 55.6899 200.222 59.8864 201.217 65.4954C201.217 65.5144 201.217 65.5333 201.236 65.5523C201.255 65.5712 201.236 65.5997 201.236 65.6186C201.825 69.1231 201.236 72.9214 200.553 76.3879C200.143 78.4419 200.297 80.1198 200.868 81.5071C202.654 86.048 208.68 87.6311 213.538 89.8779C225.034 95.1898 234.4 104.272 240.713 115.316C245.697 124.075 246.878 129.463 246.604 132.787C246.223 137.252 243.205 137.979 243.205 137.979C240.653 139.493 236.731 137.865 235.943 135.028C235.932 134.997 235.925 134.965 235.924 134.933C235.294 132.503 234.066 129.381 232.415 125.965" stroke="black" stroke-width="1.42832" stroke-miterlimit="10"/>
<path d="M177.183 65.8206C177.183 67.5112 176.389 69.1797 174.663 69.8907C172.722 70.6934 171.935 72.8074 171.651 74.8645C171.255 77.877 171.901 80.9342 173.482 83.5261C174.947 85.9656 177.331 88.6547 180.709 88.6547C186.896 88.6547 189.548 85.6622 189.548 85.6622" stroke="black" stroke-width="1.42832" stroke-miterlimit="10"/>
<path d="M183.607 75.835C184.188 75.835 184.659 75.3626 184.659 74.7795C184.659 74.1968 184.188 73.7241 183.607 73.7241C183.025 73.7241 182.554 74.1968 182.554 74.7795C182.554 75.3626 183.025 75.835 183.607 75.835Z" fill="black"/>
<path d="M174.351 76.4511C174.932 76.4511 175.403 75.9787 175.403 75.3956C175.403 74.8129 174.932 74.3402 174.351 74.3402C173.77 74.3402 173.299 74.8129 173.299 75.3956C173.299 75.9787 173.77 76.4511 174.351 76.4511Z" fill="black"/>
<path d="M178.891 73.7868C178.891 73.7868 178.365 77.9548 178.576 78.5268C178.787 79.0987 180.104 78.4446 180.104 78.4446" stroke="black" stroke-width="1.42832" stroke-miterlimit="10"/>
<path d="M180.841 82.0909C183.093 82.922 185.418 81.8634 186.099 79.8315" stroke="black" stroke-width="1.42832" stroke-miterlimit="10"/>
<path d="M189.053 76.3046C190.581 74.1349 190.023 71.1038 187.808 69.5336C185.593 67.9638 182.558 68.4498 181.03 70.6194C179.502 72.7888 180.06 75.8201 182.275 77.39C184.49 78.9599 187.525 78.4739 189.053 76.3046Z" stroke="black" stroke-width="1.42832" stroke-miterlimit="10"/>
<path d="M176.749 76.9256C178.277 74.7559 177.719 71.7246 175.504 70.1547C173.289 68.5848 170.254 69.0708 168.726 71.2404C167.198 73.4098 167.755 76.4412 169.971 78.0111C172.186 79.5809 175.221 79.0949 176.749 76.9256Z" stroke="black" stroke-width="1.42832" stroke-miterlimit="10"/>
<path d="M172.65 70.7325C173.525 70.7299 174.368 71.0595 175.011 71.6549C175.654 72.2505 176.048 73.0677 176.115 73.943C176.15 74.3778 176.098 74.8152 175.96 75.2288C175.823 75.6425 175.603 76.0242 175.315 76.3509C175.024 76.6821 174.669 76.9507 174.271 77.1406C173.874 77.3308 173.442 77.4383 173.003 77.4569H172.826C171.951 77.4594 171.107 77.1295 170.464 76.5333C169.821 75.937 169.427 75.1188 169.361 74.2432C169.327 73.8084 169.38 73.3707 169.518 72.9571C169.656 72.5434 169.876 72.1617 170.164 71.8353C170.456 71.5051 170.81 71.2371 171.207 71.0469C171.604 70.857 172.034 70.7489 172.473 70.7293H172.65V70.7325ZM172.65 70.0151H172.439C171.908 70.0388 171.387 70.1697 170.907 70.3991C170.427 70.6288 169.999 70.9527 169.646 71.3518C169.293 71.7509 169.024 72.217 168.855 72.7223C168.685 73.2276 168.618 73.7619 168.658 74.2938C168.744 75.3473 169.22 76.3301 169.994 77.0477C170.768 77.7653 171.782 78.1651 172.836 78.1679H173.047C173.578 78.1439 174.099 78.0134 174.578 77.7837C175.058 77.5542 175.487 77.23 175.84 76.8312C176.192 76.4321 176.461 75.966 176.631 75.4608C176.801 74.9555 176.868 74.4208 176.827 73.8893C176.742 72.8357 176.265 71.853 175.491 71.1353C174.718 70.4177 173.704 70.018 172.65 70.0151Z" fill="white"/>
<path d="M180.183 73.7203L177.599 73.853" stroke="black" stroke-width="1.42832" stroke-miterlimit="10"/>
<path opacity="0.53" d="M188.438 75.8688C189.732 74.0316 189.26 71.4644 187.385 70.1353C185.509 68.8062 182.939 69.218 181.645 71.0552C180.351 72.8927 180.823 75.4596 182.698 76.789C184.574 78.1181 187.144 77.7063 188.438 75.8688Z" fill="white"/>
<path opacity="0.53" d="M176.134 76.4901C177.428 74.6529 176.956 72.0857 175.08 70.7566C173.205 69.4272 170.635 69.8393 169.341 71.6765C168.047 73.514 168.518 76.0809 170.394 77.41C172.27 78.7394 174.839 78.3273 176.134 76.4901Z" fill="white"/>
<path d="M182.551 88.6552L188.288 102.325C188.288 102.325 199.355 105.311 202.046 94.8077" stroke="black" stroke-width="1.42832" stroke-miterlimit="10"/>
<path d="M181.02 187.193C180.897 176.066 178.941 165.073 178.04 160.586" stroke="black" stroke-width="1.42832" stroke-miterlimit="10"/>
<path d="M42.8891 92.7449L28.3239 82.4078V76.9521L42.8891 66.5345V72.0477L32.4576 79.7086L42.8891 87.3237V92.7449Z" fill="#FFA7A7"/>
<path d="M47.3204 94.6404L58.4161 53.2918H63.1452L52.0038 94.6404H47.3204Z" fill="#FFA7A7"/>
<path d="M67.577 92.7448V87.2891L78.0658 79.6282L67.577 72.0705V66.5574L82.188 76.8946V82.3618L67.577 92.7448Z" fill="#FFA7A7"/>
<path d="M117.035 49.0928H101.469C100.952 49.0928 100.457 48.887 100.092 48.5207C99.7267 48.1544 99.5215 47.6576 99.5215 47.1395V25.5379C99.5215 25.2815 99.5719 25.0277 99.6698 24.7908C99.7677 24.554 99.9112 24.3389 100.092 24.1578C100.273 23.9766 100.488 23.833 100.724 23.7352C100.96 23.6374 101.213 23.5872 101.469 23.5876H111.336L118.973 31.4817V47.1395C118.973 47.6559 118.77 48.1514 118.406 48.5174C118.043 48.8835 117.55 49.0904 117.035 49.0928Z" fill="#FFA7A7"/>
<g opacity="0.2">
<path d="M99.9054 41.354H118.583C118.685 41.354 118.783 41.3945 118.855 41.4668C118.927 41.539 118.967 41.6369 118.967 41.7391V47.0804C118.967 47.6142 118.756 48.126 118.38 48.5034C118.003 48.8808 117.493 49.0928 116.961 49.0928H101.528C100.996 49.0928 100.485 48.8808 100.109 48.5034C99.7329 48.126 99.5215 47.6142 99.5215 47.0804V41.7391C99.5215 41.6369 99.5619 41.539 99.6339 41.4668C99.7059 41.3945 99.8036 41.354 99.9054 41.354Z" fill="black"/>
</g>
<g opacity="0.2">
<path d="M111.336 23.5875V29.6649C111.335 29.9033 111.382 30.1395 111.472 30.3598C111.563 30.5802 111.696 30.7805 111.864 30.9493C112.032 31.118 112.231 31.2519 112.451 31.3432C112.671 31.4345 112.906 31.4816 113.144 31.4816H118.973L111.336 23.5875Z" fill="white"/>
</g>
<g opacity="0.2">
<path d="M111.413 30.1991C111.413 30.1991 111.339 31.6804 113.011 32.1586C113.074 32.1764 113.138 32.1909 113.203 32.2021C113.964 32.3387 118.974 33.23 118.974 33.1151V31.4816H113.144C113.144 31.4816 111.689 31.4319 111.413 30.1991Z" fill="black"/>
</g>
<path d="M105.088 44.7236C105.107 44.3961 105.222 44.0814 105.418 43.8189C105.614 43.5563 105.883 43.3575 106.191 43.2472C106.499 43.137 106.833 43.1201 107.15 43.1987C107.468 43.2774 107.755 43.4481 107.977 43.6895L107.528 44.1025C107.435 43.9905 107.318 43.9007 107.187 43.8394C107.055 43.7782 106.911 43.7471 106.766 43.7485C106.634 43.741 106.503 43.7606 106.379 43.806C106.255 43.8514 106.142 43.9217 106.046 44.0125C105.95 44.1034 105.874 44.2129 105.821 44.3343C105.769 44.4558 105.742 44.5867 105.742 44.719C105.742 44.8512 105.769 44.9821 105.821 45.1036C105.874 45.2251 105.95 45.3346 106.046 45.4254C106.142 45.5163 106.255 45.5866 106.379 45.6319C106.503 45.6773 106.634 45.6969 106.766 45.6894C106.912 45.6909 107.056 45.6593 107.188 45.5969C107.32 45.5345 107.436 45.443 107.528 45.3292L107.977 45.7453C107.756 45.9878 107.47 46.1597 107.153 46.2396C106.835 46.3195 106.502 46.3037 106.193 46.1943C105.885 46.0849 105.616 45.8868 105.419 45.6246C105.223 45.3625 105.107 45.048 105.088 44.7205V44.7236Z" fill="#FAFAFA"/>
<path d="M108.181 45.9437L108.419 45.4158C108.714 45.6179 109.062 45.7261 109.419 45.7264C109.834 45.7264 110.001 45.5897 110.001 45.4158C110.001 44.8475 108.243 45.2388 108.243 44.1115C108.243 43.5929 108.658 43.1799 109.518 43.1799C109.886 43.1731 110.249 43.2665 110.568 43.4501L110.351 43.9842C110.097 43.8326 109.808 43.7502 109.512 43.7451C109.097 43.7451 108.939 43.9003 108.939 44.0898C108.939 44.6488 110.698 44.2637 110.698 45.3785C110.698 45.8847 110.277 46.3102 109.413 46.3102C108.975 46.3158 108.545 46.1881 108.181 45.9437Z" fill="#FAFAFA"/>
<path d="M110.939 45.9437L111.175 45.4158C111.47 45.617 111.818 45.7251 112.175 45.7264C112.589 45.7264 112.757 45.5897 112.757 45.4158C112.757 44.8475 110.998 45.2388 110.998 44.1115C110.998 43.5929 111.413 43.1799 112.274 43.1799C112.641 43.1731 113.004 43.2665 113.323 43.4501L113.107 43.9842C112.853 43.8322 112.563 43.7498 112.268 43.7451C111.853 43.7451 111.695 43.9003 111.695 44.0898C111.695 44.6488 113.453 44.2637 113.453 45.3785C113.453 45.8847 113.035 46.3102 112.168 46.3102C111.731 46.3168 111.302 46.1889 110.939 45.9437Z" fill="#FAFAFA"/>
<path d="M106.076 34.904C106.385 35.0034 106.543 35.2145 106.543 35.6866V36.8014C106.534 36.8707 106.541 36.9411 106.563 37.0073C106.586 37.0735 106.623 37.1338 106.672 37.1835C106.72 37.2332 106.78 37.271 106.846 37.2942C106.912 37.3173 106.982 37.3251 107.051 37.3169H107.175V38.1678H106.772C105.902 38.1678 105.459 37.7207 105.459 36.9257V35.6586C105.466 35.6155 105.463 35.5713 105.45 35.5295C105.438 35.4877 105.415 35.4495 105.385 35.4177C105.355 35.3859 105.319 35.3614 105.278 35.3461C105.237 35.3308 105.193 35.3251 105.15 35.3294H104.921V34.4754H105.15C105.193 34.4803 105.237 34.4751 105.278 34.4602C105.319 34.4453 105.355 34.4211 105.385 34.3895C105.415 34.3579 105.438 34.3198 105.451 34.2782C105.463 34.2365 105.466 34.1924 105.459 34.1494V32.8885C105.459 32.0873 105.902 31.6464 106.772 31.6464H107.175V32.4942H107.051C106.981 32.4859 106.911 32.4938 106.845 32.5171C106.779 32.5404 106.719 32.5785 106.67 32.6286C106.621 32.6786 106.584 32.7393 106.562 32.8059C106.54 32.8725 106.534 32.9432 106.543 33.0128V34.1276C106.543 34.6059 106.398 34.8077 106.076 34.904Z" fill="#FAFAFA"/>
<path d="M113.571 34.4757V35.3266H113.339C113.153 35.3266 113.029 35.4322 113.029 35.6558V36.9166C113.029 37.7178 112.583 38.1588 111.713 38.1588H111.311V37.3172H111.438C111.507 37.3253 111.577 37.3175 111.643 37.2944C111.708 37.2713 111.768 37.2334 111.817 37.1837C111.866 37.134 111.903 37.0738 111.925 37.0076C111.947 36.9414 111.954 36.871 111.945 36.8017V35.6868C111.945 35.2055 112.091 35.0036 112.41 34.9042C112.1 34.808 111.945 34.5937 111.945 34.1248V33.0099C111.955 32.9404 111.948 32.8696 111.926 32.803C111.904 32.7364 111.867 32.6758 111.818 32.6257C111.769 32.5756 111.71 32.5375 111.644 32.5142C111.578 32.4909 111.507 32.4831 111.438 32.4913H111.311V31.6435H111.713C112.583 31.6435 113.029 32.0876 113.029 32.8857V34.1651C113.029 34.3887 113.147 34.4912 113.339 34.4912L113.571 34.4757Z" fill="#FAFAFA"/>
<path d="M138.812 64.7754H123.023C122.763 64.7754 122.506 64.7241 122.266 64.6243C122.026 64.5245 121.809 64.3783 121.625 64.194C121.442 64.0097 121.296 63.7909 121.197 63.5502C121.098 63.3094 121.047 63.0515 121.048 62.791V40.8633C121.048 40.3379 121.256 39.8339 121.626 39.4624C121.997 39.0908 122.499 38.882 123.023 38.882H133.038L140.778 46.8973V62.791C140.779 63.3154 140.573 63.8188 140.204 64.1907C139.836 64.5627 139.335 64.7729 138.812 64.7754Z" fill="#FFA7A7"/>
<g opacity="0.2">
<path d="M121.045 56.9182H140.791V62.6322C140.791 63.2005 140.566 63.7456 140.165 64.1474C139.764 64.5493 139.221 64.775 138.654 64.775H123.175C122.608 64.775 122.065 64.5493 121.664 64.1474C121.263 63.7456 121.038 63.2005 121.038 62.6322V56.9182H121.045Z" fill="black"/>
</g>
<g opacity="0.2">
<path d="M133.035 38.882V45.0526C133.035 45.5418 133.229 46.011 133.574 46.357C133.919 46.7029 134.387 46.8973 134.874 46.8973H140.788L133.035 38.882Z" fill="white"/>
</g>
<g opacity="0.2">
<path d="M133.116 45.5963C133.116 45.5963 133.038 47.0931 134.738 47.5838C134.802 47.6019 134.867 47.6164 134.933 47.6273C135.704 47.767 140.787 48.6738 140.787 48.5589V46.8975H134.874C134.874 46.8975 133.397 46.8478 133.116 45.5963Z" fill="black"/>
</g>
<path d="M129.153 50.4309L126.782 51.3004L129.153 52.1637V53.0581L125.763 51.7662V50.8346L129.153 49.5427V50.4309Z" fill="#FAFAFA"/>
<path d="M131.701 47.7884H132.689L130.348 54.5148H129.36L131.701 47.7884Z" fill="#FAFAFA"/>
<path d="M136.206 50.8377V51.7694L132.825 53.0581V52.1762L135.196 51.3129L132.825 50.4433V49.5583L136.206 50.8377Z" fill="#FAFAFA"/>
<path d="M128.345 59.8408V62.5022H127.726V61.4122H126.521V62.5022H125.902V59.8408H126.521V60.8905H127.726V59.8408H128.345Z" fill="#FAFAFA"/>
<path d="M129.525 60.3439H128.676V59.8408H130.989V60.3439H130.138V62.5022H129.518L129.525 60.3439Z" fill="#FAFAFA"/>
<path d="M133.732 62.502V60.9058L132.952 62.2225H132.673L131.896 60.94V62.4927H131.32V59.8313H131.828L132.825 61.4928L133.803 59.8375H134.308V62.4989L133.732 62.502Z" fill="#FAFAFA"/>
<path d="M134.936 59.8408H135.555V62.0146H136.887V62.5146H134.939L134.936 59.8408Z" fill="#FAFAFA"/>
<mask id="mask0_1533_11520" style="mask-type:luminance" maskUnits="userSpaceOnUse" x="61" y="142" width="14" height="10">
<path d="M67.8751 149.5C69.9462 149.5 71.6251 147.821 71.6251 145.75C71.6251 143.679 69.9462 142 67.8751 142C65.8041 142 64.1251 143.679 64.1251 145.75C64.1251 147.821 65.8041 149.5 67.8751 149.5Z" fill="white"/>
<path d="M70.3751 147.625H64.7501V152H70.3751V147.625Z" fill="white"/>
<path d="M66.6251 144.5H64.7501C62.6791 144.5 61.0001 146.179 61.0001 148.25C61.0001 150.321 62.6791 152 64.7501 152H66.6251C68.6962 152 70.3751 150.321 70.3751 148.25C70.3751 146.179 68.6962 144.5 66.6251 144.5Z" fill="white"/>
<path d="M71.6251 145.75H69.7501C68.0242 145.75 66.6251 147.149 66.6251 148.875C66.6251 150.601 68.0242 152 69.7501 152H71.6251C73.351 152 74.7501 150.601 74.7501 148.875C74.7501 147.149 73.351 145.75 71.6251 145.75Z" fill="white"/>
</mask>
<g mask="url(#mask0_1533_11520)">
<path d="M74.7501 139.5H59.7501V154.5H74.7501V139.5Z" fill="#FFA7A7"/>
</g>
</svg>
