<svg width="200" height="200" viewBox="0 0 200 200" fill="none" xmlns="http://www.w3.org/2000/svg">
<path d="M174.309 80.1862H138.426C136.599 80.1862 135.118 81.6672 135.118 83.4942V134.806C135.118 136.633 136.599 138.114 138.426 138.114H174.309C176.136 138.114 177.617 136.633 177.617 134.806V83.4942C177.617 81.6672 176.136 80.1862 174.309 80.1862Z" stroke="#FFA7A7" stroke-width="0.28" stroke-miterlimit="10"/>
<path d="M172.761 86.1541H140.41C139.497 86.1541 138.756 86.8947 138.756 87.8081V94.6886C138.756 95.6021 139.497 96.3426 140.41 96.3426H172.761C173.674 96.3426 174.415 95.6021 174.415 94.6886V87.8081C174.415 86.8947 173.674 86.1541 172.761 86.1541Z" stroke="#FFA7A7" stroke-width="0.28" stroke-miterlimit="10"/>
<path d="M156.368 90.4458C156.949 90.4458 157.421 89.9741 157.421 89.3922C157.421 88.8103 156.949 88.3386 156.368 88.3386C155.786 88.3386 155.314 88.8103 155.314 89.3922C155.314 89.9741 155.786 90.4458 156.368 90.4458Z" fill="#FFA7A7"/>
<path d="M153.424 94.16C153.424 93.3791 153.734 92.6303 154.286 92.0782C154.838 91.5259 155.587 91.2158 156.368 91.2158C157.149 91.2158 157.898 91.5259 158.45 92.0782C159.002 92.6303 159.312 93.3791 159.312 94.16H153.424Z" fill="#FFA7A7"/>
<path d="M156.582 107.263C155.46 107.263 154.363 107.596 153.43 108.22C152.496 108.844 151.769 109.731 151.34 110.768C150.911 111.805 150.799 112.946 151.018 114.047C151.237 115.148 151.778 116.159 152.572 116.952C153.366 117.746 154.377 118.286 155.478 118.505C156.579 118.724 157.72 118.612 158.757 118.182C159.794 117.752 160.68 117.025 161.304 116.091C161.927 115.158 162.26 114.061 162.26 112.938C162.26 112.193 162.113 111.455 161.828 110.766C161.542 110.077 161.124 109.451 160.597 108.924C160.07 108.397 159.444 107.979 158.755 107.694C158.066 107.409 157.328 107.262 156.582 107.263ZM156.582 117.244C156.369 117.234 156.168 117.142 156.021 116.987C155.874 116.833 155.792 116.628 155.792 116.414C155.792 116.201 155.874 115.996 156.021 115.841C156.168 115.687 156.369 115.595 156.582 115.584C156.795 115.595 156.996 115.687 157.144 115.841C157.291 115.996 157.373 116.201 157.373 116.414C157.373 116.628 157.291 116.833 157.144 116.987C156.996 117.142 156.795 117.234 156.582 117.244ZM157.63 110.861C157.455 112.092 157.308 113.384 156.94 114.581C156.853 114.869 156.312 114.869 156.225 114.581C155.966 113.681 155.766 112.765 155.628 111.839C155.515 111.165 155.121 110.074 155.497 109.42C155.829 108.823 156.763 108.764 157.306 109.07C157.972 109.446 157.71 110.249 157.63 110.861Z" fill="#FFA7A7"/>
<path d="M142.322 100.891H170.049" stroke="#FFA7A7" stroke-width="0.28" stroke-miterlimit="10"/>
<path d="M142.322 103.621H170.049" stroke="#FFA7A7" stroke-width="0.28" stroke-miterlimit="10"/>
<path d="M142.322 121.194H170.049" stroke="#FFA7A7" stroke-width="0.28" stroke-miterlimit="10"/>
<path d="M148.762 123.777H163.608" stroke="#FFA7A7" stroke-width="0.28" stroke-miterlimit="10"/>
<path d="M177.619 117.612C180.065 120.685 182.391 124.494 184.494 129.188C197.301 157.787 181.293 172.302 181.293 172.302" stroke="#FFA7A7" stroke-width="0.28" stroke-miterlimit="10"/>
<path d="M43.8568 140.29C43.8568 140.29 24.8535 118.734 48.5505 108.06C72.2475 97.3865 76.9391 95.9035 75.2295 84.8005C73.5198 73.6975 86.9587 62.3918 108.093 69.8627C129.228 77.3336 129.651 91.4126 128.152 102.297C127.301 108.501 130.822 109.992 135.11 109.68" stroke="#FFA7A7" stroke-width="0.28" stroke-miterlimit="10"/>
<path d="M176.28 181.604C176.231 182.794 175.923 183.959 175.377 185.017C175.356 185.07 175.33 185.121 175.302 185.17C174.343 186.892 173.003 188.371 171.383 189.492L171.326 189.532C169.864 190.51 168.219 191.183 166.491 191.51H184.888C184.888 191.51 182.427 156.412 159.807 139.335C137.917 122.811 117.423 130.775 116.123 131.308C116.526 132.445 116.706 133.649 116.654 134.854C116.654 134.854 118.3 135.711 118.574 138.779C118.848 141.846 119.421 150.374 113.916 151.981C113.916 151.981 108.974 151.86 107.668 149.963C106.362 148.066 106.048 148.452 105.535 148.933C105.137 149.297 102.738 150.597 101.63 151.194C101.77 151.2 101.909 151.22 102.046 151.251C102.046 151.251 102.68 156.603 110.439 164.99C110.702 165.267 110.95 165.558 111.183 165.861C112.354 166.885 113.671 167.931 115.133 168.998L123.987 175.477C124.187 175.647 124.424 175.767 124.679 175.829C125.175 175.954 125.692 175.958 126.19 175.843C127.22 175.644 134.251 174.926 138.802 174.473C138.905 174.473 139.015 174.453 139.116 174.441L139.712 174.384C139.808 174.384 139.911 174.364 139.995 174.358L140.531 174.306C140.794 174.28 141.03 174.254 141.249 174.236L141.845 174.179C142.372 174.127 142.684 174.095 142.71 174.095C143.794 174.064 144.875 173.96 145.945 173.781C146.969 173.582 147.903 173.262 148.145 172.732C148.191 172.62 148.208 172.498 148.195 172.378C148.14 172.04 147.999 171.722 147.786 171.455C146.851 170.201 144.68 169.125 144.521 169.048C144.517 169.046 144.512 169.046 144.507 169.048L144.464 169.016L131.542 158.977H131.528C131.528 158.977 133.474 138.214 151.209 143.323C151.209 143.323 151.292 143.381 151.446 143.508C152.137 144.041 154.314 145.806 157.515 149.104C157.598 149.194 157.688 149.283 157.777 149.379C158.117 149.724 158.451 150.084 158.783 150.436C161.03 152.838 163.688 155.897 166.62 159.712L166.64 159.732C170 164.106 172.421 168.113 173.995 171.66V171.672C175.699 175.527 176.417 178.829 176.276 181.463C176.28 181.51 176.281 181.557 176.28 181.604ZM122.789 145.917C122.264 139.868 125.208 137.677 125.373 137.556C121.186 145.13 128.951 156.74 129.224 157.189C129.001 157.002 123.313 151.965 122.789 145.917Z" fill="#353642"/>
<path d="M111.668 144.731C111.45 144.891 111.223 145.038 110.988 145.172L109.624 142.786C112.769 141.178 113.652 138.343 112.268 136.786C111.881 136.361 111.382 136.052 110.829 135.896C109.437 135.474 108.473 136.095 107.819 136.928C107.285 137.652 106.894 138.471 106.666 139.341L106.002 131.683L105.95 131.087C105.95 131.087 104.503 130.369 100.583 131.009C96.6622 131.65 95.9406 133.814 94.2567 132.854C92.5729 131.894 91.6187 131.972 91.6187 131.972C91.1396 133.731 89.8573 133.731 89.8573 133.731C89.5535 133.694 89.2551 133.622 88.9687 133.514C87.1496 131.842 86.6566 128.942 86.6566 128.942C88.5651 128.705 88.7122 126.868 88.4935 125.363C89.5511 125.992 91.0421 126.035 93.1355 124.691C99.1413 120.851 105.3 122.93 107.465 123.25C108.431 123.391 109.489 123.051 110.366 122.654C110.479 122.857 110.636 123.031 110.827 123.165C112.288 124.183 113.493 125.526 114.347 127.089C119.983 137.623 113.805 143.218 111.668 144.731Z" fill="#FFA7A7"/>
<path d="M89.1692 191.514H91.4356C92.4049 191.513 93.3341 191.127 94.0196 190.442C94.7048 189.756 95.0905 188.827 95.0915 187.858V185.321C95.0915 185.09 95.046 184.861 94.9573 184.647C94.8688 184.434 94.739 184.24 94.5754 184.076C94.4118 183.913 94.2178 183.783 94.0041 183.695C93.7903 183.607 93.5613 183.562 93.3301 183.562H79.7759C79.7765 184.102 79.6704 184.636 79.464 185.135C79.2577 185.634 78.9547 186.088 78.5728 186.469C78.1909 186.851 77.7374 187.153 77.2385 187.36C76.7395 187.566 76.2047 187.672 75.6648 187.671H26.6864C26.687 188.69 27.092 189.667 27.8126 190.388C28.5331 191.108 29.5102 191.513 30.5292 191.514H96.9284C97.0151 191.514 97.1012 191.497 97.1813 191.464C97.2614 191.431 97.3343 191.382 97.3958 191.321C97.457 191.26 97.5057 191.187 97.5387 191.107C97.5717 191.026 97.5886 190.94 97.5884 190.854V186.737C97.5884 185.937 97.9061 185.17 98.4717 184.604C99.0373 184.038 99.8044 183.721 100.604 183.721C101.404 183.721 102.171 184.038 102.737 184.604C103.302 185.17 103.62 185.937 103.62 186.737V190.854C103.62 190.94 103.637 191.026 103.67 191.106C103.703 191.186 103.751 191.259 103.812 191.32C103.873 191.382 103.946 191.43 104.026 191.463C104.106 191.497 104.191 191.514 104.278 191.514H184.887C184.887 191.514 182.426 156.408 159.807 139.333C137.917 122.808 117.423 130.772 116.123 131.305L116.059 131.329" stroke="black" stroke-width="0.7" stroke-miterlimit="10"/>
<path d="M93.4575 139.898C93.4567 140.118 93.3905 140.334 93.2675 140.517C93.1442 140.7 92.9697 140.843 92.7655 140.927C92.5613 141.011 92.3371 141.032 92.1206 140.989C91.9041 140.946 91.7055 140.839 91.5496 140.683C91.3936 140.527 91.2874 140.328 91.2445 140.111C91.2013 139.895 91.2234 139.671 91.3079 139.467C91.3922 139.263 91.5351 139.088 91.7184 138.965C91.9019 138.843 92.1176 138.777 92.3383 138.776C92.4247 138.777 92.5108 138.787 92.5947 138.808C92.479 138.845 92.378 138.917 92.3065 139.015C92.2349 139.113 92.1965 139.232 92.1971 139.353C92.1965 139.429 92.211 139.505 92.2399 139.575C92.2685 139.645 92.3108 139.71 92.3645 139.764C92.418 139.818 92.4818 139.861 92.552 139.89C92.6222 139.92 92.6975 139.935 92.7736 139.935C92.9128 139.933 93.0468 139.881 93.152 139.79C93.2573 139.699 93.3275 139.574 93.3502 139.436C93.4187 139.581 93.4553 139.738 93.4575 139.898Z" fill="black"/>
<path d="M101.213 140.209C101.213 140.431 101.148 140.648 101.025 140.833C100.902 141.017 100.727 141.161 100.522 141.247C100.317 141.332 100.092 141.354 99.8739 141.311C99.6562 141.268 99.4562 141.161 99.2991 141.005C99.1423 140.848 99.0353 140.648 98.9918 140.431C98.9485 140.213 98.9705 139.988 99.0552 139.783C99.1401 139.578 99.2838 139.403 99.4683 139.279C99.6526 139.156 99.8695 139.09 100.091 139.09C100.145 139.09 100.198 139.096 100.25 139.108C100.151 139.154 100.067 139.227 100.008 139.319C99.9494 139.411 99.9182 139.518 99.9184 139.627C99.9116 139.78 99.9657 139.929 100.069 140.042C100.172 140.155 100.316 140.222 100.469 140.229C100.622 140.236 100.771 140.182 100.884 140.079C100.997 139.975 101.065 139.832 101.071 139.678C101.163 139.84 101.212 140.023 101.213 140.209Z" fill="black"/>
<path d="M110.157 121.079C110.028 121.95 110.189 122.713 110.829 123.167C112.29 124.185 113.495 125.528 114.349 127.091C121.073 139.653 110.988 145.182 110.988 145.182L109.624 142.796C113.55 140.792 113.952 136.868 110.829 135.906C107.706 134.944 106.666 139.351 106.666 139.351L105.95 131.091C105.95 131.091 104.503 130.373 100.583 131.013C96.6622 131.653 95.9406 133.818 94.2567 132.858C92.5729 131.898 91.6186 131.976 91.6186 131.976C91.1395 133.735 89.8573 133.735 89.8573 133.735C86.1 133.256 85.2173 128.057 85.2173 128.057C87.1238 127.819 87.2709 125.982 87.0542 124.479C88.1098 125.107 89.6028 125.153 91.6962 123.807C97.7019 119.966 103.861 122.047 106.024 122.368C107.519 122.584 109.234 121.67 110.157 121.079Z" stroke="black" stroke-width="0.28" stroke-linecap="round" stroke-linejoin="round"/>
<path d="M113.624 183.375L115.109 182.779L116.222 185.783L116.047 191.234L114.542 191.506L108.831 191.259C108.831 191.259 109.228 187.936 110.443 186.355C111.658 184.775 113.624 183.375 113.624 183.375Z" fill="#FFA7A7"/>
<path d="M87.6187 135.572C87.6187 135.572 89.1395 132.842 92.3402 133.127" stroke="black" stroke-width="0.28" stroke-miterlimit="10"/>
<path d="M98.6085 133.126C98.6085 133.126 102.266 132.305 103.547 134.339" stroke="black" stroke-width="0.28" stroke-miterlimit="10"/>
<path d="M104.276 145.484C104.276 145.484 102.089 144.217 100.489 146.347" stroke="black" stroke-width="0.28" stroke-miterlimit="10"/>
<path d="M90.4576 133.564C90.4576 133.564 88.901 151.875 100.509 151.537C102.497 151.48 104.473 150.174 106.362 148.072" stroke="black" stroke-width="0.28" stroke-miterlimit="10"/>
<path d="M110.988 149.738L106.362 148.072C106.362 148.072 107.509 151.738 113.19 152.018C118.872 152.298 120.778 139.259 116.604 134.013" stroke="black" stroke-width="0.28" stroke-linejoin="round"/>
<path d="M129.075 186.472C129.075 186.472 124.834 189.913 127.715 191.514" stroke="black" stroke-width="0.28" stroke-miterlimit="10"/>
<path d="M125.794 183.27C125.794 183.27 118.439 187.432 124.755 191.514" stroke="black" stroke-width="0.28" stroke-miterlimit="10"/>
<path d="M123.313 180.069C123.313 180.069 113.55 184.642 121.073 191.514" stroke="black" stroke-width="0.28" stroke-miterlimit="10"/>
<path d="M164.369 191.514C164.369 191.514 176.214 191.514 176.373 180.069C176.532 168.624 153.406 139.885 138.44 135.888C123.474 131.89 122.832 142.846 122.832 143.295C122.832 143.744 121.954 148.464 125.794 153.499C128.76 157.392 141.861 167.109 147.674 171.332C147.888 171.487 148.049 171.704 148.136 171.953C148.224 172.202 148.233 172.472 148.164 172.726C148.094 172.981 147.948 173.208 147.746 173.378C147.544 173.548 147.295 173.653 147.032 173.677L121.323 176.147H121.307C121.065 176.19 111.992 177.864 109.228 180.707C109.228 180.707 107.68 181.854 108.481 183.615C109.282 185.377 111.743 184.796 111.811 184.731" stroke="black" stroke-width="0.28" stroke-miterlimit="10"/>
<path opacity="0.26" d="M100.093 142.289C101.861 142.289 103.294 140.856 103.294 139.088C103.294 137.321 101.861 135.888 100.093 135.888C98.3256 135.888 96.8926 137.321 96.8926 139.088C96.8926 140.856 98.3256 142.289 100.093 142.289Z" fill="white"/>
<path opacity="0.26" d="M91.9705 141.973C93.7382 141.973 95.1711 140.54 95.1711 138.772C95.1711 137.004 93.7382 135.571 91.9705 135.571C90.2027 135.571 88.7698 137.004 88.7698 138.772C88.7698 140.54 90.2027 141.973 91.9705 141.973Z" fill="white"/>
<path d="M119.637 182.87C118.512 182.556 116.673 182.274 114.779 182.882C113.852 183.181 112.997 183.667 112.268 184.312C112.109 184.451 111.956 184.592 111.809 184.733C111.492 185.044 111.192 185.372 110.912 185.717C110.875 185.763 110.823 185.793 110.765 185.803C110.059 185.9 105.413 186.636 105.437 188.983C105.459 191.093 107.769 191.439 108.564 191.494C108.597 191.497 108.63 191.493 108.661 191.483C108.692 191.473 108.721 191.456 108.746 191.434C108.77 191.412 108.79 191.385 108.803 191.355C108.817 191.325 108.824 191.293 108.825 191.26C108.825 190.508 108.996 188.152 110.854 185.783" stroke="black" stroke-width="0.28" stroke-miterlimit="10"/>
<path d="M77.7782 166.3C78.3229 170.691 74.9095 172.677 71.178 172.972" stroke="black" stroke-width="0.28" stroke-miterlimit="10"/>
<path d="M65.7547 172.055C64.3319 171.287 63.1795 170.1 62.4533 168.655C61.7272 167.21 61.4626 165.577 61.6952 163.976C62.2916 159.752 65.87 156.511 69.3729 154.456C76.7285 150.14 93.3044 153.263 96.0896 153.899C98.2247 154.388 100.01 152.718 100.734 151.911C100.764 151.877 100.804 151.852 100.848 151.84C100.893 151.828 100.94 151.828 100.984 151.842C101.028 151.856 101.067 151.881 101.096 151.917C101.126 151.952 101.145 151.995 101.151 152.04C102.68 160.986 120.435 173.129 124.542 175.847" stroke="black" stroke-width="0.28" stroke-miterlimit="10"/>
<path d="M82.257 163.263L76.3785 166.911C76.0282 167.129 75.6359 167.271 75.2274 167.329C74.8187 167.386 74.4026 167.357 74.0058 167.243C73.609 167.13 73.2404 166.934 72.9239 166.67C72.6072 166.405 72.3498 166.077 72.1679 165.706C71.8401 165.041 71.775 164.276 71.9858 163.565C72.1965 162.854 72.6677 162.248 73.305 161.869L82.251 156.539" stroke="black" stroke-width="0.28" stroke-miterlimit="10"/>
<path d="M100.093 142.289C101.861 142.289 103.294 140.856 103.294 139.088C103.294 137.321 101.861 135.888 100.093 135.888C98.3256 135.888 96.8926 137.321 96.8926 139.088C96.8926 140.856 98.3256 142.289 100.093 142.289Z" stroke="black" stroke-width="0.28" stroke-miterlimit="10"/>
<path d="M91.9706 141.494C93.4737 141.494 94.6922 140.275 94.6922 138.772C94.6922 137.269 93.4737 136.051 91.9706 136.051C90.4675 136.051 89.249 137.269 89.249 138.772C89.249 140.275 90.4675 141.494 91.9706 141.494Z" stroke="white" stroke-width="0.28" stroke-miterlimit="10"/>
<path d="M91.9705 141.973C93.7382 141.973 95.1711 140.54 95.1711 138.772C95.1711 137.004 93.7382 135.571 91.9705 135.571C90.2027 135.571 88.7698 137.004 88.7698 138.772C88.7698 140.54 90.2027 141.973 91.9705 141.973Z" stroke="black" stroke-width="0.28" stroke-miterlimit="10"/>
<path d="M96.9087 138.773H95.1711" stroke="black" stroke-width="0.28" stroke-miterlimit="10"/>
<path d="M96.9087 143.295H95.7636C95.6916 143.295 95.6205 143.28 95.5553 143.249C95.4901 143.218 95.4324 143.174 95.3865 143.118C95.3404 143.063 95.3074 142.998 95.2893 142.928C95.2714 142.858 95.269 142.785 95.2825 142.715L96.0399 138.773" stroke="black" stroke-width="0.28" stroke-miterlimit="10"/>
<path d="M73.9334 154.219C73.9334 154.219 69.8521 155.1 68.4127 161.263C67.538 165.004 66.3373 169.777 65.5301 172.95C65.4266 173.357 65.4174 173.782 65.5031 174.193C65.589 174.604 65.7677 174.991 66.0254 175.322C66.2832 175.654 66.6132 175.922 66.9903 176.107C67.3677 176.291 67.782 176.387 68.202 176.387C68.829 176.387 69.4376 176.174 69.9268 175.782C70.4163 175.389 70.7572 174.842 70.8938 174.23L72.6015 166.569" stroke="black" stroke-width="0.28" stroke-miterlimit="10"/>
<path d="M77.6649 168.625C77.6649 168.625 81.949 166.064 90.3881 168.625C98.8271 171.185 108.529 172.923 111.729 166.132" stroke="black" stroke-width="0.28" stroke-miterlimit="10"/>
<path d="M114.781 182.882C114.781 182.882 117.763 186.286 115.95 191.514" stroke="black" stroke-width="0.28" stroke-miterlimit="10"/>
<path d="M16.2414 140.559H63.357C64.8746 140.557 66.3488 141.066 67.542 142.004C68.7351 142.941 69.5783 144.253 69.9353 145.728L77.436 176.793C77.6384 177.631 77.6479 178.504 77.4641 179.346C77.2802 180.189 76.9074 180.979 76.374 181.656C75.8405 182.334 75.1604 182.881 74.3846 183.258C73.6089 183.635 72.7579 183.83 71.8955 183.83H24.9011C23.3865 183.832 21.9152 183.324 20.7234 182.389C19.5316 181.455 18.6883 180.147 18.3288 178.675L10.7068 147.617C10.501 146.778 10.4886 145.903 10.6706 145.058C10.8526 144.214 11.2243 143.421 11.7574 142.742C12.2905 142.062 12.9712 141.512 13.748 141.134C14.5249 140.756 15.3775 140.56 16.2414 140.559Z" fill="#FFA7A7"/>
<path d="M17.9571 143.296H62.1623C63.5863 143.298 64.9686 143.777 66.0876 144.658C67.2069 145.538 67.9983 146.769 68.3351 148.153L75.3766 177.295C75.5666 178.081 75.5759 178.9 75.4034 179.69C75.231 180.481 74.8815 181.222 74.3812 181.857C73.8808 182.493 73.2428 183.007 72.515 183.36C71.7872 183.713 70.9888 183.897 70.1799 183.897H26.0821C24.6625 183.894 23.2846 183.416 22.1679 182.54C21.0511 181.663 20.2596 180.438 19.9193 179.06L12.7625 149.916C12.5692 149.129 12.5576 148.308 12.7284 147.515C12.8993 146.723 13.2481 145.979 13.7486 145.342C14.249 144.704 14.888 144.188 15.6171 143.834C16.3463 143.479 17.1465 143.295 17.9571 143.296Z" fill="#FFA7A7"/>
<path d="M16.2414 140.559H63.357C64.8746 140.557 66.3488 141.066 67.5419 142.004C68.7351 142.941 69.5783 144.253 69.9353 145.728L77.436 176.793C77.6384 177.631 77.6479 178.504 77.4641 179.346C77.2802 180.189 76.9074 180.979 76.374 181.656C75.8405 182.334 75.1604 182.881 74.3846 183.258C73.6089 183.635 72.7579 183.83 71.8955 183.83H24.9011C23.3865 183.832 21.9152 183.324 20.7234 182.389C19.5316 181.455 18.6883 180.147 18.3288 178.675L10.7068 147.617C10.501 146.778 10.4886 145.903 10.6706 145.058C10.8526 144.214 11.2243 143.421 11.7574 142.742C12.2905 142.062 12.9712 141.512 13.748 141.134C14.5249 140.756 15.3775 140.56 16.2414 140.559Z" stroke="black" stroke-width="0.28" stroke-miterlimit="10"/>
<path d="M38.3085 161.251L35.4994 148.156C35.4412 147.879 35.2893 147.63 35.0696 147.452C34.85 147.273 34.5758 147.176 34.2927 147.176H20.3926C20.2056 147.176 20.0212 147.219 19.8533 147.301C19.6854 147.384 19.5384 147.503 19.4235 147.651C19.3086 147.798 19.2287 147.97 19.19 148.153C19.1512 148.336 19.1546 148.525 19.1998 148.706L22.4502 161.954C22.4906 162.139 22.5766 162.311 22.7007 162.453C22.812 162.595 22.9538 162.709 23.1156 162.788C23.2774 162.867 23.4551 162.908 23.6351 162.909H23.6609L37.1137 162.75C37.2954 162.747 37.4741 162.704 37.6373 162.625C37.8006 162.545 37.9443 162.43 38.058 162.288C38.1739 162.145 38.2564 161.977 38.2997 161.798C38.3431 161.618 38.3461 161.431 38.3085 161.251ZM20.1282 148.472C20.1181 148.433 20.1172 148.392 20.1255 148.352C20.1337 148.312 20.151 148.275 20.1759 148.243C20.2014 148.21 20.2342 148.183 20.2718 148.164C20.3094 148.146 20.3507 148.136 20.3926 148.136H34.2927C34.3553 148.136 34.4162 148.157 34.4647 148.196C34.5134 148.236 34.5466 148.291 34.5591 148.353L36.6982 158.326C29.5553 151.43 28.7462 159.342 28.7462 159.342C24.7145 157.243 23.5496 159.541 23.2116 161.054L20.1282 148.472Z" fill="#FFE5E5"/>
<path d="M24.142 153.225C24.9173 152.985 25.2851 151.957 24.967 150.929C24.6489 149.901 23.7603 149.265 22.979 149.506C22.1977 149.746 21.8359 150.774 22.156 151.8C22.4761 152.826 23.3687 153.466 24.142 153.225Z" fill="#D7E8F0"/>
<path d="M27.5453 152.99H32.1058C32.6724 152.99 33.241 152.99 33.8075 152.99H33.8891C34.0485 152.995 34.2071 152.965 34.3542 152.903C34.4558 152.853 34.5423 152.776 34.6045 152.682C34.667 152.587 34.7029 152.477 34.7091 152.364C34.7151 152.251 34.691 152.138 34.6391 152.037C34.5872 151.936 34.5095 151.851 34.4139 151.79C34.3067 151.741 34.2091 151.674 34.1256 151.591C34.0704 151.504 34.0324 151.406 34.0143 151.305C33.9089 151.017 33.7056 150.775 33.4398 150.623C33.2463 150.493 33.0288 150.403 32.7998 150.359C32.571 150.315 32.3356 150.317 32.1078 150.366C31.883 150.423 31.6772 150.538 31.5114 150.7C31.3703 150.839 31.3424 151.026 31.2331 151.181C31.1615 151.283 31.1158 151.251 31.0184 151.195C30.921 151.14 30.8673 151.098 30.7878 151.058C30.6309 150.974 30.4681 150.902 30.3007 150.841C29.9598 150.715 29.5962 150.662 29.2332 150.684C28.595 150.734 27.9589 151.114 27.7362 151.714C27.5356 151.717 27.3424 151.791 27.1917 151.923C27.0408 152.056 26.942 152.237 26.9132 152.436C26.9 152.512 26.905 152.591 26.9277 152.665C26.9505 152.74 26.9905 152.807 27.0444 152.863C27.1893 152.967 27.3682 153.013 27.5453 152.99Z" fill="#D7E8F0"/>
<path d="M60.2399 152.708L59.8741 151.203C59.6288 150.191 59.0504 149.291 58.2318 148.648C57.4133 148.005 56.4024 147.656 55.3613 147.656H50.3376C49.7645 147.656 49.1989 147.787 48.6848 148.041C48.1709 148.295 47.7224 148.663 47.3741 149.119C47.026 149.574 46.7877 150.104 46.6775 150.666C46.5674 151.229 46.5887 151.809 46.7394 152.362L47.1548 153.891C47.4202 154.874 48.0025 155.743 48.8115 156.362C49.6206 156.981 50.611 157.317 51.6298 157.316H56.6237C57.1877 157.316 57.7443 157.187 58.2515 156.94C58.7586 156.693 59.2031 156.334 59.5512 155.89C59.8995 155.447 60.1425 154.93 60.2617 154.378C60.381 153.827 60.3735 153.256 60.2399 152.708ZM54.7152 153.08L52.9996 154.135C52.9336 154.177 52.8586 154.203 52.7807 154.212C52.7028 154.22 52.624 154.21 52.5507 154.182C52.4773 154.155 52.4113 154.111 52.3576 154.054C52.3042 153.997 52.2646 153.928 52.2421 153.853L51.596 151.742C51.569 151.648 51.569 151.548 51.5962 151.455C51.6235 151.361 51.6768 151.277 51.7497 151.213C51.8229 151.148 51.9129 151.105 52.0091 151.09C52.1056 151.075 52.2042 151.087 52.2938 151.125L54.6735 152.177C54.7586 152.215 54.8315 152.276 54.8844 152.353C54.9371 152.43 54.9677 152.52 54.9729 152.613C54.978 152.706 54.9574 152.799 54.9134 152.881C54.8693 152.964 54.8035 153.032 54.7232 153.08H54.7152Z" fill="white"/>
<path d="M59.1185 166.226H50.3296C49.9272 166.226 49.5338 166.108 49.197 165.888C48.8603 165.668 48.5949 165.354 48.433 164.986C48.3829 164.872 48.3559 164.75 48.3535 164.626C48.3557 164.386 48.4521 164.157 48.6223 163.988C48.7925 163.819 49.0223 163.724 49.262 163.723H58.6056C58.1663 164.467 58.3889 165.495 59.1185 166.226Z" fill="#FFE5E5"/>
<path d="M64.8123 165.324C64.8117 165.563 64.7165 165.792 64.5473 165.961C64.3783 166.131 64.1489 166.226 63.9097 166.226H59.1187C58.3891 165.495 58.1664 164.467 58.6058 163.723H62.8243C63.2261 163.724 63.6189 163.84 63.9557 164.059C64.2922 164.279 64.558 164.591 64.7208 164.958C64.7759 165.072 64.8069 165.197 64.8123 165.324Z" fill="#FFA7A7"/>
<path d="M62.6036 166.226C62.5788 166.274 62.5501 166.32 62.5181 166.364C61.8899 167.22 60.5301 167.3 59.4745 166.529C59.3485 166.437 59.2294 166.336 59.1187 166.226C58.3891 165.495 58.1664 164.467 58.6058 163.724C58.6304 163.676 58.659 163.631 58.6912 163.588C59.3135 162.726 60.6792 162.65 61.7289 163.415C61.8561 163.509 61.9764 163.612 62.0887 163.724C62.8243 164.455 63.037 165.483 62.6036 166.226Z" fill="white"/>
<path d="M67.0131 170.851C67.011 171.091 66.9145 171.32 66.7444 171.489C66.5742 171.658 66.3444 171.753 66.1046 171.753H31.2709C31.7162 171.006 31.4935 169.982 30.762 169.253H65.0371C65.439 169.252 65.8325 169.369 66.1688 169.59C66.5054 169.809 66.7704 170.123 66.9316 170.491C66.9831 170.604 67.011 170.727 67.0131 170.851Z" fill="#FFA7A7"/>
<path d="M31.2708 171.743H26.931C26.5293 171.744 26.1362 171.627 25.7995 171.408C25.4629 171.188 25.1971 170.876 25.0345 170.509C24.9834 170.394 24.9563 170.269 24.955 170.143C24.9548 170.024 24.9778 169.907 25.0231 169.798C25.0685 169.688 25.1349 169.589 25.2188 169.505C25.3027 169.421 25.4023 169.355 25.512 169.31C25.6215 169.265 25.739 169.242 25.8575 169.242H30.7619C31.4935 169.972 31.7161 170.996 31.2708 171.743Z" fill="#FFE5E5"/>
<path d="M31.2707 171.743C31.2502 171.792 31.2236 171.838 31.1912 171.88C30.569 172.743 29.2032 172.817 28.1515 172.051C28.0249 171.958 27.9052 171.855 27.7937 171.743C27.0681 171.012 26.8454 169.99 27.2788 169.242C27.3029 169.194 27.3315 169.148 27.3643 169.105C27.9925 168.248 29.3523 168.169 30.4079 168.938C30.534 169.03 30.6523 169.132 30.7618 169.242C31.4934 169.972 31.716 170.996 31.2707 171.743Z" fill="white"/>
<path d="M34.3444 177.212H28.8297C28.4281 177.212 28.0351 177.095 27.6985 176.876C27.3619 176.657 27.0961 176.345 26.9331 175.978C26.8785 175.867 26.8472 175.746 26.8417 175.622C26.8423 175.382 26.9379 175.152 27.1079 174.982C27.2776 174.812 27.5079 174.716 27.7482 174.716H33.8255C33.4021 175.467 33.6188 176.489 34.3444 177.212Z" fill="#FFA7A7"/>
<path d="M68.9036 176.324C68.9005 176.563 68.8028 176.79 68.6321 176.957C68.4615 177.123 68.2317 177.215 67.9931 177.213H34.3442C33.6186 176.481 33.396 175.459 33.8293 174.712H66.9276C67.3295 174.712 67.723 174.829 68.0593 175.049C68.3959 175.269 68.6609 175.582 68.8221 175.95C68.8748 176.068 68.9024 176.195 68.9036 176.324Z" fill="#FFE5E5"/>
<path d="M37.8272 177.212C37.8032 177.261 37.7745 177.307 37.7417 177.35C37.1195 178.212 35.7537 178.286 34.7041 177.521C34.5768 177.427 34.4566 177.324 34.3442 177.212C33.6186 176.481 33.396 175.459 33.8293 174.712C33.8542 174.664 33.8828 174.618 33.9148 174.574C34.543 173.718 35.9028 173.642 36.9585 174.407C37.0849 174.499 37.2032 174.6 37.3123 174.712C38.0439 175.449 38.2666 176.477 37.8272 177.212Z" fill="white"/>
<g opacity="0.21">
<path opacity="0.21" d="M38.7896 161.729L35.9865 148.634C35.9285 148.357 35.7768 148.109 35.5569 147.931C35.3372 147.753 35.0627 147.656 34.7798 147.656H20.8777C20.6894 147.656 20.5038 147.699 20.3349 147.783C20.166 147.865 20.0184 147.986 19.9036 148.135C19.7897 148.282 19.7108 148.452 19.6729 148.633C19.635 148.814 19.6391 149.002 19.6849 149.181L22.9353 162.431C22.975 162.616 23.0603 162.787 23.1838 162.93C23.2955 163.071 23.4379 163.186 23.5999 163.264C23.7621 163.343 23.94 163.383 24.1201 163.383H24.1519L37.6028 163.222C37.7841 163.22 37.9626 163.178 38.1254 163.098C38.2884 163.019 38.4317 162.904 38.5451 162.763C38.6594 162.619 38.7405 162.452 38.7828 162.273C38.825 162.095 38.8274 161.909 38.7896 161.729ZM20.6073 148.952C20.5972 148.913 20.5964 148.872 20.6051 148.832C20.6137 148.793 20.6316 148.755 20.657 148.724C20.6819 148.69 20.7143 148.663 20.7517 148.645C20.7888 148.626 20.83 148.616 20.8717 148.617H34.7718C34.8345 148.616 34.8953 148.637 34.9442 148.676C34.9931 148.715 35.0269 148.77 35.0402 148.831L37.1793 158.805C30.0344 151.907 29.2273 159.821 29.2273 159.821C25.1976 157.722 24.0307 160.02 23.6947 161.533L20.6073 148.952Z" fill="#FFE5E5"/>
<path opacity="0.21" d="M28.0344 153.471H32.5928C33.1614 153.471 33.728 153.471 34.2966 153.471H34.3761C34.5357 153.476 34.6942 153.446 34.8413 153.384C34.9435 153.334 35.0303 153.257 35.093 153.163C35.1558 153.068 35.1922 152.958 35.1981 152.845C35.2043 152.731 35.1798 152.618 35.1275 152.517C35.0755 152.416 34.9971 152.331 34.9009 152.27C34.7948 152.22 34.6975 152.153 34.6127 152.071C34.559 151.983 34.5214 151.885 34.5013 151.783C34.396 151.497 34.1934 151.256 33.9288 151.103C33.7354 150.973 33.5173 150.883 33.2881 150.839C33.0588 150.795 32.8231 150.797 32.5948 150.847C32.3738 150.904 32.172 151.019 32.0104 151.181C31.8672 151.32 31.8414 151.505 31.732 151.662C31.6605 151.763 31.6148 151.731 31.5173 151.674C31.4199 151.616 31.3663 151.578 31.2867 151.537C31.1299 151.453 30.9671 151.382 30.7997 151.322C30.4587 151.195 30.0951 151.141 29.7321 151.163C29.094 151.213 28.4578 151.594 28.2332 152.193C28.0326 152.196 27.8397 152.271 27.6892 152.403C27.5388 152.536 27.4405 152.718 27.4121 152.916C27.3992 152.993 27.4044 153.071 27.4266 153.145C27.4491 153.219 27.4883 153.287 27.5413 153.344C27.6849 153.444 27.86 153.49 28.0344 153.471Z" fill="#FFE5E5"/>
<path opacity="0.21" d="M60.7291 153.187L60.3633 151.684C60.1176 150.672 59.5389 149.772 58.7202 149.128C57.9014 148.485 56.8901 148.135 55.8486 148.135H50.8169C50.2444 148.135 49.6796 148.267 49.1661 148.52C48.6526 148.773 48.2045 149.142 47.8566 149.596C47.5085 150.051 47.2699 150.579 47.1592 151.141C47.0487 151.703 47.0689 152.283 47.2186 152.835L47.6341 154.366C47.8999 155.35 48.4826 156.218 49.2919 156.837C50.1012 157.457 51.0921 157.792 52.1111 157.791H57.105C57.6692 157.791 58.226 157.663 58.7335 157.417C59.2411 157.171 59.6862 156.812 60.0351 156.369C60.3842 155.926 60.6279 155.409 60.748 154.858C60.8683 154.307 60.8619 153.735 60.7291 153.187ZM55.2025 153.555L53.4808 154.616C53.4148 154.658 53.3401 154.684 53.2624 154.693C53.1846 154.701 53.1061 154.691 53.0328 154.663C52.9596 154.636 52.8936 154.592 52.8403 154.535C52.787 154.478 52.7477 154.409 52.7254 154.334L52.0892 152.221C52.0626 152.127 52.063 152.028 52.0904 151.935C52.1179 151.841 52.1712 151.758 52.2443 151.693C52.3173 151.629 52.4069 151.587 52.5031 151.571C52.5992 151.556 52.6976 151.568 52.787 151.606L55.1488 152.656C55.2327 152.695 55.3042 152.756 55.3563 152.832C55.4084 152.908 55.4388 152.997 55.4442 153.089C55.4498 153.182 55.4303 153.274 55.3875 153.355C55.345 153.437 55.281 153.506 55.2025 153.555Z" fill="#FFE5E5"/>
<path opacity="0.21" d="M59.5998 166.705H50.8108C50.4089 166.704 50.0156 166.587 49.6789 166.367C49.3423 166.147 49.0767 165.834 48.9143 165.467C48.8523 165.329 48.826 165.179 48.8379 165.028C48.8497 164.878 48.8994 164.734 48.9821 164.608C49.0646 164.482 49.1777 164.379 49.3109 164.308C49.4439 164.238 49.5926 164.202 49.7433 164.204H59.0869C58.6495 164.946 58.8682 165.976 59.5998 166.705Z" fill="#FFE5E5"/>
<path opacity="0.21" d="M65.2815 165.802C65.2815 166.042 65.1867 166.271 65.0179 166.44C64.8491 166.609 64.6199 166.705 64.3809 166.705H59.5998C58.8682 165.975 58.6456 164.946 59.0849 164.204H63.3054C63.7072 164.204 64.1004 164.32 64.4372 164.54C64.774 164.759 65.0396 165.071 65.202 165.439C65.2529 165.553 65.2799 165.677 65.2815 165.802Z" fill="#FFA7A7"/>
<path opacity="0.21" d="M63.0828 166.705C63.0593 166.754 63.0307 166.8 62.9973 166.842C62.3691 167.699 61.0093 167.779 59.9537 167.009C59.828 166.917 59.7097 166.816 59.5998 166.705C58.8682 165.976 58.6456 164.946 59.0849 164.204C59.1098 164.156 59.139 164.11 59.1724 164.067C59.7946 163.204 61.1604 163.131 62.2101 163.896C62.3375 163.99 62.4578 164.093 62.5699 164.204C63.2955 164.936 63.5182 165.958 63.0828 166.705Z" fill="white"/>
<path opacity="0.21" d="M67.4924 171.321C67.4902 171.561 67.3936 171.79 67.2234 171.958C67.0534 172.127 66.8234 172.222 66.5838 172.222H31.7521C32.1974 171.474 31.9747 170.452 31.2432 169.721H65.5163C65.9189 169.721 66.3127 169.838 66.6494 170.058C66.9864 170.279 67.2516 170.592 67.4128 170.961C67.4639 171.075 67.491 171.197 67.4924 171.321Z" fill="#FFA7A7"/>
<path opacity="0.21" d="M31.7519 172.222H27.4102C27.0088 172.221 26.6159 172.105 26.2794 171.886C25.9428 171.667 25.6768 171.356 25.5136 170.989C25.4637 170.874 25.4367 170.749 25.4341 170.623C25.4341 170.384 25.5291 170.154 25.6985 169.985C25.8677 169.816 26.0973 169.721 26.3366 169.721H31.243C31.9746 170.452 32.1973 171.474 31.7519 172.222Z" fill="#FFE5E5"/>
<path opacity="0.21" d="M31.752 172.222C31.7315 172.272 31.7041 172.318 31.6705 172.359C31.0482 173.222 29.6825 173.298 28.6328 172.532C28.5054 172.438 28.3851 172.334 28.273 172.222C27.5474 171.493 27.3247 170.469 27.7601 169.721C27.7836 169.673 27.8122 169.626 27.8456 169.584C28.4738 168.727 29.8336 168.648 30.8892 169.419C31.0143 169.511 31.1325 169.612 31.2431 169.721C31.9747 170.453 32.1973 171.475 31.752 172.222Z" fill="white"/>
<path opacity="0.21" d="M34.8236 177.699H29.3009C28.8995 177.698 28.5071 177.581 28.1705 177.363C27.8342 177.144 27.568 176.833 27.4044 176.466C27.3545 176.353 27.3274 176.23 27.3248 176.106C27.3258 175.866 27.4218 175.635 27.592 175.465C27.7622 175.295 27.9928 175.199 28.2333 175.198H34.3107C33.8753 175.945 34.0979 176.969 34.8236 177.699Z" fill="#FFA7A7"/>
<path opacity="0.21" d="M69.3849 176.802C69.3847 176.92 69.3611 177.037 69.3155 177.146C69.27 177.255 69.2034 177.354 69.1197 177.438C69.0358 177.521 68.9364 177.587 68.8271 177.632C68.7177 177.676 68.6005 177.699 68.4824 177.699H34.8235C34.0979 176.969 33.8753 175.945 34.3106 175.198H67.4069C67.8094 175.198 68.2033 175.315 68.54 175.535C68.8768 175.756 69.1422 176.07 69.3034 176.438C69.3551 176.553 69.3827 176.677 69.3849 176.802Z" fill="#FFE5E5"/>
<path opacity="0.21" d="M38.3085 177.699C38.2837 177.747 38.2544 177.793 38.221 177.836C37.5988 178.699 36.233 178.775 35.1834 178.009C35.0559 177.915 34.9357 177.811 34.8235 177.699C34.0979 176.97 33.8753 175.946 34.3106 175.198C34.3341 175.15 34.3627 175.104 34.3961 175.061C35.0243 174.204 36.3841 174.131 37.4397 174.896C37.5648 174.988 37.6831 175.089 37.7936 175.198C38.5252 175.93 38.7478 176.958 38.3085 177.699Z" fill="white"/>
</g>
<path d="M121.24 106.135H120.737V100.742C120.736 99.7035 120.323 98.708 119.589 97.9732C118.855 97.2385 117.86 96.8244 116.822 96.8218H106.896C105.723 96.8204 104.599 96.354 103.77 95.5249C102.941 94.6957 102.474 93.5715 102.473 92.399V88.2476H102.975V92.409C102.977 93.4483 103.39 94.4447 104.125 95.1796C104.86 95.9144 105.856 96.3279 106.896 96.3292H116.822C117.994 96.3306 119.118 96.7971 119.946 97.6264C120.774 98.4557 121.24 99.5799 121.24 100.752V106.135Z" fill="black"/>
<path d="M124.808 106.24H118.274C117.641 106.24 117.033 106.492 116.585 106.939C116.136 107.387 115.883 107.994 115.882 108.628V115.161C115.883 115.795 116.136 116.402 116.585 116.85C117.033 117.297 117.641 117.549 118.274 117.549H124.808C125.442 117.549 126.05 117.297 126.498 116.85C126.947 116.402 127.199 115.795 127.2 115.161V108.628C127.199 107.994 126.947 107.387 126.498 106.939C126.05 106.492 125.442 106.24 124.808 106.24Z" fill="#FFA7A7"/>
<g opacity="0.4">
<path d="M124.808 106.24H118.274C117.641 106.24 117.033 106.492 116.585 106.939C116.136 107.387 115.883 107.994 115.882 108.628V115.161C115.883 115.795 116.136 116.402 116.585 116.85C117.033 117.297 117.641 117.549 118.274 117.549H124.808C125.442 117.549 126.05 117.297 126.498 116.85C126.947 116.402 127.199 115.795 127.2 115.161V108.628C127.199 107.994 126.947 107.387 126.498 106.939C126.05 106.492 125.442 106.24 124.808 106.24Z" fill="white"/>
</g>
<path d="M121.491 107.306C120.602 107.305 119.732 107.568 118.993 108.061C118.253 108.554 117.676 109.256 117.336 110.077C116.995 110.898 116.906 111.802 117.079 112.674C117.252 113.546 117.68 114.347 118.309 114.976C118.937 115.605 119.738 116.033 120.611 116.206C121.483 116.379 122.386 116.29 123.208 115.949C124.029 115.608 124.731 115.032 125.224 114.292C125.717 113.552 125.98 112.683 125.979 111.794C125.976 110.604 125.503 109.464 124.662 108.623C123.82 107.782 122.68 107.308 121.491 107.306ZM120.777 107.808C120.34 108.244 119.986 108.754 119.732 109.316H118.31C118.92 108.525 119.803 107.989 120.787 107.813L120.777 107.808ZM118.003 109.738H119.541C119.319 110.315 119.185 110.921 119.144 111.538V111.643H117.46C117.483 110.975 117.669 110.323 118.003 109.743V109.738ZM118.093 113.985C117.725 113.415 117.506 112.762 117.455 112.085H119.154C119.219 112.741 119.389 113.383 119.656 113.985H118.093ZM118.425 114.428H119.868C120.143 114.947 120.511 115.412 120.953 115.8C119.971 115.671 119.071 115.184 118.425 114.433V114.428ZM121.27 115.488C120.918 115.185 120.618 114.827 120.38 114.428H121.29L121.27 115.488ZM121.27 113.98H120.139C119.852 113.383 119.67 112.74 119.601 112.08H121.29L121.27 113.98ZM121.27 111.638H119.586C119.615 110.982 119.762 110.337 120.018 109.733H121.29L121.27 111.638ZM121.27 109.291H120.224C120.483 108.783 120.838 108.331 121.27 107.959V109.291ZM125.537 111.638H123.848V111.533C123.809 110.916 123.676 110.309 123.451 109.733H124.989C125.329 110.316 125.518 110.974 125.537 111.648V111.638ZM124.672 109.291H123.255C122.997 108.73 122.641 108.22 122.205 107.783C123.187 107.965 124.067 108.506 124.672 109.301V109.291ZM121.712 107.964C122.145 108.333 122.5 108.784 122.757 109.291H121.712V107.964ZM121.712 109.733H122.964C123.221 110.337 123.369 110.982 123.401 111.638H121.712V109.733ZM121.712 112.08H123.381C123.314 112.74 123.132 113.383 122.843 113.98H121.712V112.08ZM121.712 115.483V114.433H122.602C122.367 114.834 122.066 115.192 121.712 115.493V115.483ZM122.029 115.795C122.471 115.407 122.839 114.942 123.114 114.423H124.557C123.914 115.18 123.013 115.672 122.029 115.805V115.795ZM124.888 113.98H123.33C123.598 113.378 123.768 112.736 123.833 112.08H125.532C125.483 112.761 125.262 113.419 124.888 113.99V113.98Z" fill="white"/>
<path d="M141.519 97.7967H141.017V92.4039C141.017 91.3656 140.604 90.3697 139.87 89.6355C139.136 88.9012 138.14 88.4887 137.102 88.4887H113.414V87.9862H137.102C138.273 87.9875 139.396 88.4534 140.224 89.2816C141.052 90.1098 141.518 91.2327 141.519 92.4039V97.7967Z" fill="black"/>
<path d="M143.143 93.8866H136.609C135.975 93.8865 135.368 94.1379 134.919 94.5855C134.471 95.033 134.218 95.6402 134.217 96.2739V102.808C134.218 103.441 134.471 104.048 134.919 104.496C135.368 104.943 135.975 105.195 136.609 105.195H143.143C143.776 105.195 144.384 104.943 144.832 104.496C145.281 104.048 145.534 103.441 145.535 102.808V96.2889C145.536 95.9739 145.475 95.6618 145.356 95.3703C145.236 95.0789 145.06 94.814 144.838 94.5908C144.615 94.3676 144.351 94.1905 144.06 94.0696C143.769 93.9488 143.458 93.8865 143.143 93.8866Z" fill="#FFA7A7"/>
<g opacity="0.4">
<path d="M143.143 93.8866H136.609C135.975 93.8865 135.368 94.1379 134.919 94.5855C134.471 95.033 134.218 95.6402 134.217 96.2739V102.808C134.218 103.441 134.471 104.048 134.919 104.496C135.368 104.943 135.975 105.195 136.609 105.195H143.143C143.776 105.195 144.384 104.943 144.832 104.496C145.281 104.048 145.534 103.441 145.535 102.808V96.2889C145.536 95.9739 145.475 95.6618 145.356 95.3703C145.236 95.0789 145.06 94.814 144.838 94.5908C144.615 94.3676 144.351 94.1905 144.06 94.0696C143.769 93.9488 143.458 93.8865 143.143 93.8866Z" fill="white"/>
</g>
<path opacity="0.9" d="M140.64 96.4196C140.271 96.0509 139.805 95.7947 139.296 95.6812C138.787 95.5677 138.257 95.6014 137.767 95.7786C137.276 95.9557 136.846 96.2688 136.528 96.6813C136.209 97.0939 136.014 97.5886 135.966 98.1078C135.918 98.627 136.019 99.149 136.258 99.6128C136.496 100.077 136.861 100.463 137.311 100.727C137.76 100.99 138.276 101.121 138.797 101.102C139.318 101.083 139.823 100.916 140.253 100.621C140.273 100.747 140.333 100.863 140.424 100.953L142.127 102.657C142.184 102.714 142.252 102.759 142.327 102.79C142.401 102.821 142.481 102.837 142.562 102.837C142.643 102.837 142.723 102.821 142.797 102.79C142.872 102.759 142.94 102.714 142.997 102.657C143.054 102.6 143.099 102.532 143.13 102.457C143.161 102.383 143.177 102.303 143.177 102.222C143.177 102.141 143.161 102.061 143.13 101.987C143.099 101.912 143.054 101.844 142.997 101.787L141.293 100.083C141.202 99.992 141.084 99.9321 140.956 99.9126C141.32 99.385 141.487 98.7469 141.429 98.1089C141.371 97.471 141.092 96.8733 140.64 96.4196ZM140.057 99.7166C139.788 99.9863 139.445 100.17 139.071 100.245C138.698 100.319 138.31 100.281 137.958 100.136C137.606 99.9904 137.305 99.7437 137.094 99.427C136.882 99.1103 136.769 98.738 136.769 98.3571C136.769 97.9762 136.882 97.6038 137.094 97.2872C137.305 96.9705 137.606 96.7238 137.958 96.5783C138.31 96.4327 138.698 96.3948 139.071 96.4695C139.445 96.5441 139.788 96.7279 140.057 96.9976C140.236 97.1759 140.377 97.3878 140.474 97.6211C140.571 97.8544 140.621 98.1045 140.621 98.3571C140.621 98.6097 140.571 98.8598 140.474 99.0931C140.377 99.3264 140.236 99.5383 140.057 99.7166Z" fill="white"/>
<path d="M143.168 79.4221H112.851V79.9247H143.168V79.4221Z" fill="black"/>
<path d="M147.962 70.7976H141.454C141.14 70.7976 140.829 70.8595 140.539 70.9798C140.249 71.1001 139.986 71.2764 139.764 71.4986C139.542 71.7208 139.366 71.9846 139.247 72.2748C139.127 72.565 139.066 72.876 139.067 73.1899V79.7035C139.066 80.0174 139.127 80.3284 139.247 80.6186C139.366 80.9089 139.542 81.1726 139.764 81.3948C139.986 81.6171 140.249 81.7934 140.539 81.9136C140.829 82.0339 141.14 82.0958 141.454 82.0958H147.962C148.597 82.0958 149.205 81.8438 149.654 81.3951C150.103 80.9465 150.355 80.338 150.355 79.7035V73.1698C150.349 72.5388 150.095 71.9355 149.647 71.4912C149.199 71.0469 148.593 70.7976 147.962 70.7976Z" fill="#FFA7A7"/>
<g opacity="0.4">
<path d="M147.962 70.7976H141.454C141.14 70.7976 140.829 70.8595 140.539 70.9798C140.249 71.1001 139.986 71.2764 139.764 71.4986C139.542 71.7208 139.366 71.9846 139.247 72.2748C139.127 72.565 139.066 72.876 139.067 73.1899V79.7035C139.066 80.0174 139.127 80.3284 139.247 80.6186C139.366 80.9089 139.542 81.1726 139.764 81.3948C139.986 81.6171 140.249 81.7934 140.539 81.9136C140.829 82.0339 141.14 82.0958 141.454 82.0958H147.962C148.597 82.0958 149.205 81.8438 149.654 81.3951C150.103 80.9465 150.355 80.338 150.355 79.7035V73.1698C150.349 72.5388 150.095 71.9355 149.647 71.4912C149.199 71.0469 148.593 70.7976 147.962 70.7976Z" fill="white"/>
</g>
<g opacity="0.5">
<path d="M143.123 79.6734C143.123 79.8414 143.073 80.0056 142.979 80.1453C142.886 80.2849 142.753 80.3938 142.598 80.4581C142.443 80.5224 142.272 80.5392 142.107 80.5064C141.943 80.4737 141.791 80.3928 141.673 80.274C141.554 80.1552 141.473 80.0038 141.44 79.8391C141.407 79.6743 141.424 79.5035 141.488 79.3483C141.553 79.1931 141.662 79.0605 141.801 78.9671C141.941 78.8738 142.105 78.824 142.273 78.824C142.385 78.8233 142.496 78.8448 142.599 78.8873C142.702 78.9297 142.796 78.9923 142.875 79.0713C142.954 79.1503 143.017 79.2442 143.059 79.3475C143.102 79.4509 143.123 79.5616 143.123 79.6734Z" fill="white"/>
<path d="M146.42 79.6734C146.42 79.8414 146.37 80.0056 146.276 80.1453C146.183 80.2849 146.05 80.3938 145.895 80.4581C145.74 80.5224 145.569 80.5392 145.404 80.5064C145.24 80.4737 145.088 80.3928 144.97 80.274C144.851 80.1552 144.77 80.0038 144.737 79.8391C144.704 79.6743 144.721 79.5035 144.785 79.3483C144.85 79.1931 144.959 79.0605 145.098 78.9671C145.238 78.8738 145.402 78.824 145.57 78.824C145.682 78.8233 145.793 78.8448 145.896 78.8873C145.999 78.9297 146.093 78.9923 146.172 79.0713C146.251 79.1503 146.314 79.2442 146.356 79.3475C146.399 79.4509 146.42 79.5616 146.42 79.6734Z" fill="white"/>
</g>
<path d="M146.279 78.3918H141.343C141.295 78.3909 141.248 78.3749 141.209 78.3461C141.171 78.3172 141.142 78.277 141.127 78.2309L140.092 74.7982C140.081 74.7644 140.079 74.7284 140.085 74.6934C140.091 74.6584 140.105 74.6254 140.127 74.5972C140.148 74.5691 140.175 74.5463 140.207 74.5306C140.238 74.5149 140.273 74.5067 140.308 74.5067H147.314C147.35 74.5067 147.385 74.5149 147.417 74.5305C147.45 74.5462 147.478 74.569 147.5 74.5972C147.521 74.626 147.534 74.6589 147.54 74.6937C147.547 74.7285 147.545 74.7642 147.535 74.7982L146.495 78.2309C146.481 78.2774 146.452 78.3181 146.413 78.347C146.374 78.376 146.327 78.3917 146.279 78.3918ZM141.514 77.9394H146.113L147.013 74.9591H140.61L141.514 77.9394Z" fill="white"/>
<path d="M147.314 74.9591H147.254C147.225 74.951 147.198 74.9372 147.175 74.9187C147.151 74.9001 147.132 74.8771 147.117 74.8509C147.103 74.8247 147.094 74.7959 147.09 74.7662C147.087 74.7364 147.09 74.7063 147.098 74.6776L147.495 73.2955C147.547 73.1145 147.657 72.9555 147.807 72.8422C147.958 72.7289 148.141 72.6675 148.329 72.6673H149.113C149.173 72.6673 149.231 72.6911 149.273 72.7335C149.316 72.7759 149.34 72.8334 149.34 72.8934C149.34 72.9534 149.316 73.0109 149.273 73.0533C149.231 73.0958 149.173 73.1196 149.113 73.1196H148.329C148.24 73.1204 148.152 73.1502 148.081 73.2045C148.009 73.2589 147.957 73.3348 147.932 73.4211L147.535 74.8033C147.519 74.8492 147.49 74.8889 147.45 74.9169C147.41 74.9449 147.363 74.9596 147.314 74.9591Z" fill="white"/>
<path d="M121.792 72.7075H111.932V72.2049H121.792C122.831 72.2049 123.827 71.7924 124.561 71.0582C125.295 70.3239 125.708 69.3281 125.708 68.2897V62.8969H126.21V68.2897C126.209 69.461 125.743 70.5839 124.915 71.4121C124.087 72.2403 122.964 72.7062 121.792 72.7075Z" fill="black"/>
<path d="M129.437 54.2875H122.521C121.3 54.2875 120.31 55.2776 120.31 56.4989V63.4146C120.31 64.6359 121.3 65.626 122.521 65.626H129.437C130.658 65.626 131.648 64.6359 131.648 63.4146V56.4989C131.648 55.2776 130.658 54.2875 129.437 54.2875Z" fill="#FFA7A7"/>
<g opacity="0.4">
<path d="M129.437 54.2875H122.521C121.3 54.2875 120.31 55.2776 120.31 56.4989V63.4146C120.31 64.6359 121.3 65.626 122.521 65.626H129.437C130.658 65.626 131.648 64.6359 131.648 63.4146V56.4989C131.648 55.2776 130.658 54.2875 129.437 54.2875Z" fill="white"/>
</g>
<path d="M130.276 61.1428C130.276 61.2635 130.276 61.6907 130.251 61.8113H126.376V59.9618H126.904L125.813 58.8661L124.718 59.9618H125.245V61.8113H121.607C121.607 61.751 121.607 61.3791 121.607 61.3087C121.607 60.8252 121.787 60.3592 122.112 60.0015C122.438 59.6437 122.884 59.4199 123.366 59.3737V59.2983C123.361 58.7518 123.553 58.2218 123.907 57.8049C124.26 57.388 124.752 57.1118 125.292 57.0266C125.831 56.9413 126.384 57.0528 126.849 57.3406C127.313 57.6284 127.659 58.0734 127.824 58.5947C127.96 58.5976 128.096 58.6111 128.231 58.6349C128.812 58.745 129.337 59.0569 129.711 59.5158C130.085 59.9746 130.285 60.5508 130.276 61.1428Z" fill="white"/>
<path d="M99.0001 59.8311H98.4975V70.1593H99.0001V59.8311Z" fill="black"/>
<path d="M102.005 49.9803H95.4969C94.8624 49.9803 94.2539 50.2324 93.8053 50.681C93.3566 51.1296 93.1046 51.7381 93.1046 52.3726V58.8812C93.1046 59.5157 93.3566 60.1242 93.8053 60.5728C94.2539 61.0215 94.8624 61.2735 95.4969 61.2735H102.005C102.319 61.2735 102.63 61.2116 102.92 61.0913C103.21 60.971 103.474 60.7947 103.695 60.5725C103.917 60.3503 104.093 60.0865 104.212 59.7963C104.332 59.5061 104.393 59.1951 104.393 58.8812V52.3726C104.393 52.0587 104.332 51.7477 104.212 51.4575C104.093 51.1673 103.917 50.9035 103.695 50.6813C103.474 50.4591 103.21 50.2828 102.92 50.1625C102.63 50.0422 102.319 49.9803 102.005 49.9803Z" fill="#FFA7A7"/>
<g opacity="0.4">
<path d="M102.005 49.9803H95.4969C94.8624 49.9803 94.2539 50.2324 93.8053 50.681C93.3566 51.1296 93.1046 51.7381 93.1046 52.3726V58.8812C93.1046 59.5157 93.3566 60.1242 93.8053 60.5728C94.2539 61.0215 94.8624 61.2735 95.4969 61.2735H102.005C102.319 61.2735 102.63 61.2116 102.92 61.0913C103.21 60.971 103.474 60.7947 103.695 60.5725C103.917 60.3503 104.093 60.0865 104.212 59.7963C104.332 59.5061 104.393 59.1951 104.393 58.8812V52.3726C104.393 52.0587 104.332 51.7477 104.212 51.4575C104.093 51.1673 103.917 50.9035 103.695 50.6813C103.474 50.4591 103.21 50.2828 102.92 50.1625C102.63 50.0422 102.319 49.9803 102.005 49.9803Z" fill="white"/>
</g>
<path d="M99.7939 56.3682C99.7939 56.2928 99.7939 56.2175 99.7939 56.1471L100.251 55.9662C100.247 55.7578 100.22 55.5504 100.171 55.348L99.6683 55.2927C99.6256 55.1522 99.5701 55.0159 99.5024 54.8856L99.809 54.4986C99.6998 54.3194 99.5735 54.1511 99.4321 53.996L98.9797 54.192C98.8704 54.0918 98.7527 54.001 98.6279 53.9206L98.6983 53.418C98.5174 53.3154 98.3251 53.2344 98.1253 53.1768L97.8338 53.5738L97.668 53.5688H97.4519L97.2659 53.1064C97.0594 53.1131 96.854 53.14 96.6527 53.1868L96.5975 53.6894C96.4549 53.7328 96.3168 53.7901 96.1853 53.8603L95.7983 53.5487C95.6179 53.6581 95.4495 53.7861 95.2958 53.9307L95.4918 54.383C95.3935 54.4928 95.3044 54.6104 95.2254 54.7348L94.7228 54.6594C94.6257 54.8423 94.5465 55.0342 94.4866 55.2324L94.8836 55.5289C94.8836 55.5993 94.8535 55.6696 94.8434 55.745C94.8384 55.8186 94.8384 55.8925 94.8434 55.9662L94.381 56.1471C94.3849 56.3555 94.4118 56.5628 94.4615 56.7653L94.964 56.8206C95.0089 56.9603 95.0643 57.0964 95.1299 57.2277L94.8233 57.6147C94.9326 57.7939 95.0588 57.9622 95.2003 58.1172L95.6576 57.9212C95.7643 58.0226 95.8804 58.1135 96.0044 58.1926L95.934 58.6952C96.1155 58.7953 96.3077 58.8746 96.507 58.9314L96.7985 58.5344L97.0196 58.5746H97.2408L97.4217 59.032C97.6285 59.0281 97.8341 59.0012 98.0349 58.9515L98.0902 58.449C98.2328 58.4055 98.3708 58.3483 98.5023 58.2781L98.8893 58.5847C99.0708 58.4788 99.2394 58.3523 99.3919 58.2077L99.1959 57.7554C99.2945 57.6459 99.3836 57.5282 99.4622 57.4036L99.9648 57.479C100.062 57.2961 100.141 57.1042 100.201 56.906L99.804 56.6095C99.7688 56.514 99.7839 56.4386 99.7939 56.3682ZM97.1654 57.0166C96.9662 56.9943 96.7782 56.913 96.6256 56.7831C96.473 56.6532 96.3627 56.4806 96.3088 56.2875C96.255 56.0944 96.2601 55.8897 96.3236 55.6995C96.387 55.5094 96.5058 55.3426 96.6648 55.2205C96.8237 55.0984 97.0155 55.0266 97.2156 55.0143C97.4156 55.0021 97.6148 55.0499 97.7875 55.1516C97.9601 55.2534 98.0985 55.4045 98.1846 55.5854C98.2708 55.7664 98.3009 55.969 98.2711 56.1672C98.2324 56.4243 98.0956 56.6564 97.8894 56.8148C97.6833 56.9731 97.4238 57.0455 97.1654 57.0166Z" fill="#FFA7A7"/>
<path d="M99.7939 56.3682C99.7939 56.2928 99.7939 56.2175 99.7939 56.1471L100.251 55.9662C100.247 55.7578 100.22 55.5504 100.171 55.348L99.6683 55.2927C99.6256 55.1522 99.5701 55.0159 99.5024 54.8856L99.809 54.4986C99.6998 54.3194 99.5735 54.1511 99.4321 53.996L98.9797 54.192C98.8704 54.0918 98.7527 54.001 98.6279 53.9206L98.6983 53.418C98.5174 53.3154 98.3251 53.2344 98.1253 53.1768L97.8338 53.5738L97.668 53.5688H97.4519L97.2659 53.1064C97.0594 53.1131 96.854 53.14 96.6527 53.1868L96.5975 53.6894C96.4549 53.7328 96.3168 53.7901 96.1853 53.8603L95.7983 53.5487C95.6179 53.6581 95.4495 53.7861 95.2958 53.9307L95.4918 54.383C95.3935 54.4928 95.3044 54.6104 95.2254 54.7348L94.7228 54.6594C94.6257 54.8423 94.5465 55.0342 94.4866 55.2324L94.8836 55.5289C94.8836 55.5993 94.8535 55.6696 94.8434 55.745C94.8384 55.8186 94.8384 55.8925 94.8434 55.9662L94.381 56.1471C94.3849 56.3555 94.4118 56.5628 94.4615 56.7653L94.964 56.8206C95.0089 56.9603 95.0643 57.0964 95.1299 57.2277L94.8233 57.6147C94.9326 57.7939 95.0588 57.9622 95.2003 58.1172L95.6576 57.9212C95.7643 58.0226 95.8804 58.1135 96.0044 58.1926L95.934 58.6952C96.1155 58.7953 96.3077 58.8746 96.507 58.9314L96.7985 58.5344L97.0196 58.5746H97.2408L97.4217 59.032C97.6285 59.0281 97.8341 59.0012 98.0349 58.9515L98.0902 58.449C98.2328 58.4055 98.3708 58.3483 98.5023 58.2781L98.8893 58.5847C99.0708 58.4788 99.2394 58.3523 99.3919 58.2077L99.1959 57.7554C99.2945 57.6459 99.3836 57.5282 99.4622 57.4036L99.9648 57.479C100.062 57.2961 100.141 57.1042 100.201 56.906L99.804 56.6095C99.7688 56.514 99.7839 56.4386 99.7939 56.3682ZM97.1654 57.0166C96.9662 56.9943 96.7782 56.913 96.6256 56.7831C96.473 56.6532 96.3627 56.4806 96.3088 56.2875C96.255 56.0944 96.2601 55.8897 96.3236 55.6995C96.387 55.5094 96.5058 55.3426 96.6648 55.2205C96.8237 55.0984 97.0155 55.0266 97.2156 55.0143C97.4156 55.0021 97.6148 55.0499 97.7875 55.1516C97.9601 55.2534 98.0985 55.4045 98.1846 55.5854C98.2708 55.7664 98.3009 55.969 98.2711 56.1672C98.2324 56.4243 98.0956 56.6564 97.8894 56.8148C97.6833 56.9731 97.4238 57.0455 97.1654 57.0166Z" fill="white"/>
<g opacity="0.5">
<path d="M101.855 54.8353C101.567 54.8363 101.287 54.7402 101.06 54.5625C100.833 54.3848 100.673 54.136 100.605 53.8561C100.537 53.5762 100.565 53.2815 100.685 53.0197C100.805 52.7578 101.01 52.5441 101.267 52.4129V53.222C101.268 53.3788 101.331 53.5286 101.442 53.6392C101.552 53.7485 101.7 53.81 101.855 53.8101C102.011 53.8101 102.16 53.7481 102.27 53.6378C102.381 53.5276 102.443 53.378 102.443 53.222V52.4129C102.699 52.5441 102.904 52.7578 103.024 53.0197C103.144 53.2815 103.172 53.5762 103.104 53.8561C103.036 54.136 102.876 54.3848 102.649 54.5625C102.423 54.7402 102.143 54.8363 101.855 54.8353Z" fill="white"/>
<path d="M101.272 58.0368V54.4785C101.271 54.4015 101.286 54.3252 101.315 54.2539C101.344 54.1825 101.386 54.1177 101.441 54.063C101.495 54.0083 101.559 53.9649 101.63 53.9353C101.701 53.9057 101.778 53.8905 101.855 53.8905C101.932 53.8905 102.008 53.9057 102.079 53.9353C102.15 53.9649 102.214 54.0083 102.269 54.063C102.323 54.1177 102.366 54.1825 102.395 54.2539C102.424 54.3252 102.438 54.4015 102.438 54.4785V58.0368C102.438 58.1134 102.423 58.1892 102.393 58.26C102.364 58.3307 102.321 58.395 102.267 58.4491C102.213 58.5032 102.148 58.5462 102.078 58.5755C102.007 58.6048 101.931 58.6199 101.855 58.6199C101.778 58.6199 101.702 58.6048 101.632 58.5755C101.561 58.5462 101.497 58.5032 101.442 58.4491C101.388 58.395 101.345 58.3307 101.316 58.26C101.287 58.1892 101.272 58.1134 101.272 58.0368Z" fill="white"/>
</g>
<path d="M76.9563 106.135H76.4537V100.742C76.455 99.5694 76.9214 98.4452 77.7506 97.616C78.5797 96.7869 79.7039 96.3205 80.8765 96.3192H90.7976C91.8369 96.3178 92.8333 95.9044 93.5682 95.1695C94.3031 94.4346 94.7165 93.4382 94.7178 92.3989V88.2475H95.2204V92.409C95.2191 93.5816 94.7527 94.7058 93.9235 95.5349C93.0944 96.3641 91.9702 96.8305 90.7976 96.8318H80.8765C79.8372 96.8331 78.8408 97.2466 78.1059 97.9815C77.371 98.7164 76.9576 99.7127 76.9563 100.752V106.135Z" fill="black"/>
<path d="M79.7104 105.502H73.1768C72.5423 105.502 71.9338 105.754 71.4851 106.202C71.0365 106.651 70.7844 107.259 70.7844 107.894V114.382C70.7844 114.696 70.8463 115.007 70.9666 115.297C71.0869 115.587 71.2632 115.85 71.4854 116.072C71.7076 116.294 71.9714 116.47 72.2616 116.589C72.5519 116.709 72.8628 116.77 73.1768 116.77H79.7104C80.3419 116.767 80.9465 116.514 81.392 116.067C81.8376 115.619 82.0877 115.014 82.0877 114.382V107.894C82.0877 107.262 81.8377 106.656 81.3923 106.208C80.9469 105.759 80.3423 105.505 79.7104 105.502Z" fill="#FFA7A7"/>
<g opacity="0.4">
<path d="M79.7104 105.502H73.1768C72.5423 105.502 71.9338 105.754 71.4851 106.202C71.0365 106.651 70.7844 107.259 70.7844 107.894V114.382C70.7844 114.696 70.8463 115.007 70.9666 115.297C71.0869 115.587 71.2632 115.85 71.4854 116.072C71.7076 116.294 71.9714 116.47 72.2616 116.589C72.5519 116.709 72.8628 116.77 73.1768 116.77H79.7104C80.3419 116.767 80.9465 116.514 81.392 116.067C81.8376 115.619 82.0877 115.014 82.0877 114.382V107.894C82.0877 107.262 81.8377 106.656 81.3923 106.208C80.9469 105.759 80.3423 105.505 79.7104 105.502Z" fill="white"/>
</g>
<path d="M80.5047 113.85C80.5047 113.994 80.462 114.135 80.3819 114.254C80.3018 114.374 80.188 114.468 80.0548 114.523C79.9217 114.578 79.7751 114.592 79.6338 114.564C79.4924 114.536 79.3625 114.467 79.2606 114.365C79.1587 114.263 79.0893 114.133 79.0612 113.992C79.0331 113.85 79.0475 113.704 79.1027 113.571C79.1578 113.438 79.2512 113.324 79.3711 113.244C79.4909 113.164 79.6318 113.121 79.7759 113.121C79.9692 113.121 80.1546 113.198 80.2912 113.334C80.4279 113.471 80.5047 113.656 80.5047 113.85Z" fill="white"/>
<path d="M77.2781 113.85C77.2781 113.994 77.2354 114.135 77.1553 114.254C77.0752 114.374 76.9614 114.468 76.8283 114.523C76.6951 114.578 76.5486 114.592 76.4072 114.564C76.2658 114.536 76.136 114.467 76.0341 114.365C75.9321 114.263 75.8627 114.133 75.8346 113.992C75.8065 113.85 75.8209 113.704 75.8761 113.571C75.9313 113.438 76.0247 113.324 76.1445 113.244C76.2643 113.164 76.4052 113.121 76.5494 113.121C76.7427 113.121 76.928 113.198 77.0647 113.334C77.2014 113.471 77.2781 113.656 77.2781 113.85Z" fill="white"/>
<path d="M74.0463 113.85C74.0473 113.995 74.0051 114.137 73.9251 114.259C73.845 114.38 73.7308 114.475 73.5968 114.531C73.4628 114.587 73.3151 114.603 73.1725 114.575C73.0298 114.547 72.8986 114.478 72.7954 114.375C72.6923 114.273 72.6219 114.142 72.5932 114C72.5645 113.857 72.5787 113.709 72.6341 113.575C72.6895 113.441 72.7835 113.326 72.9043 113.245C73.0251 113.164 73.1672 113.121 73.3125 113.121C73.4086 113.12 73.5039 113.138 73.5929 113.175C73.6819 113.211 73.7629 113.265 73.8311 113.332C73.8993 113.4 73.9534 113.481 73.9903 113.57C74.0273 113.658 74.0463 113.753 74.0463 113.85Z" fill="white"/>
<path d="M79.9418 115.307H73.1216C72.7457 115.307 72.3852 115.158 72.1194 114.892C71.8536 114.626 71.7043 114.266 71.7043 113.89V113.809C71.7043 113.433 71.8536 113.073 72.1194 112.807C72.3852 112.541 72.7457 112.392 73.1216 112.392H79.9418C80.3176 112.392 80.6781 112.541 80.9439 112.807C81.2097 113.073 81.3591 113.433 81.3591 113.809V113.88C81.3604 114.067 81.3247 114.252 81.2541 114.425C81.1834 114.598 81.0792 114.756 80.9475 114.888C80.8158 115.021 80.6591 115.126 80.4865 115.198C80.3139 115.27 80.1287 115.307 79.9418 115.307ZM73.1216 112.844C72.8657 112.844 72.6202 112.946 72.4393 113.127C72.2583 113.308 72.1566 113.553 72.1566 113.809V113.88C72.1566 114.136 72.2583 114.381 72.4393 114.562C72.6202 114.743 72.8657 114.845 73.1216 114.845H79.9418C80.1977 114.845 80.4431 114.743 80.6241 114.562C80.8051 114.381 80.9067 114.136 80.9067 113.88V113.799C80.9067 113.543 80.8051 113.298 80.6241 113.117C80.4431 112.936 80.1977 112.834 79.9418 112.834L73.1216 112.844Z" fill="white"/>
<path d="M79.8765 112.829C79.7565 112.829 79.6415 112.782 79.5566 112.697C79.4718 112.612 79.4241 112.497 79.4241 112.377V110.945L76.5594 107.954L74.9159 108.492C74.8029 108.526 74.6813 108.514 74.5768 108.459C74.4724 108.405 74.3934 108.311 74.3568 108.199C74.3201 108.087 74.3286 107.965 74.3804 107.859C74.4323 107.754 74.5234 107.672 74.6344 107.633L76.5443 107.004C76.6251 106.977 76.7121 106.973 76.7949 106.994C76.8777 107.014 76.9529 107.058 77.0117 107.12L80.2233 110.447C80.3036 110.531 80.3486 110.642 80.3489 110.759V112.372C80.3496 112.433 80.3378 112.495 80.3141 112.551C80.2905 112.608 80.2554 112.66 80.2112 112.702C80.167 112.745 80.1145 112.779 80.0569 112.8C79.9994 112.822 79.938 112.832 79.8765 112.829Z" fill="white"/>
<path d="M74.6294 109.417C74.5694 109.417 74.5119 109.393 74.4695 109.35C74.4271 109.308 74.4033 109.251 74.4033 109.191V108.065C74.4033 108.005 74.4271 107.947 74.4695 107.905C74.5119 107.862 74.5694 107.839 74.6294 107.839C74.6894 107.839 74.7469 107.862 74.7893 107.905C74.8318 107.947 74.8556 108.005 74.8556 108.065V109.191C74.8556 109.251 74.8318 109.308 74.7893 109.35C74.7469 109.393 74.6894 109.417 74.6294 109.417Z" fill="white"/>
<path d="M74.2776 110.266C74.2478 110.267 74.2182 110.261 74.1905 110.25C74.1629 110.239 74.1378 110.222 74.1168 110.201C73.9832 110.067 73.9073 109.887 73.9057 109.698C73.9209 109.516 74.004 109.346 74.1385 109.222C74.273 109.099 74.4491 109.03 74.6319 109.03C74.8148 109.03 74.9909 109.099 75.1254 109.222C75.2599 109.346 75.343 109.516 75.3582 109.698C75.3594 109.884 75.2913 110.063 75.1672 110.201C75.1471 110.223 75.1228 110.241 75.0957 110.254C75.0687 110.266 75.0394 110.273 75.0095 110.275C74.9492 110.278 74.8902 110.256 74.8455 110.216C74.8009 110.175 74.7742 110.118 74.7714 110.058C74.7686 109.998 74.7898 109.939 74.8305 109.894C74.8549 109.87 74.8742 109.841 74.8871 109.809C74.9001 109.777 74.9064 109.743 74.9059 109.708C74.9045 109.636 74.8748 109.567 74.8231 109.516C74.7714 109.465 74.7019 109.437 74.6294 109.437C74.5575 109.437 74.4884 109.465 74.4375 109.516C74.3866 109.567 74.358 109.636 74.358 109.708C74.3588 109.781 74.3876 109.852 74.4384 109.904C74.4799 109.946 74.5031 110.003 74.5031 110.063C74.5031 110.122 74.4799 110.179 74.4384 110.221C74.3928 110.256 74.3351 110.273 74.2776 110.266Z" fill="white"/>
<path d="M76.8357 107.457C76.8367 107.493 76.8269 107.528 76.8077 107.558C76.7884 107.589 76.7605 107.613 76.7275 107.627C76.6946 107.642 76.658 107.646 76.6226 107.64C76.5872 107.633 76.5545 107.616 76.5287 107.591C76.5029 107.566 76.4851 107.534 76.4777 107.499C76.4703 107.464 76.4736 107.427 76.4872 107.394C76.5007 107.36 76.5239 107.332 76.5537 107.312C76.5836 107.291 76.6187 107.281 76.6547 107.281C76.7019 107.281 76.7471 107.299 76.7809 107.332C76.8147 107.365 76.8344 107.409 76.8357 107.457Z" fill="#FFA7A7"/>
<path d="M80.0222 110.784C80.0222 110.82 80.0116 110.855 79.9917 110.884C79.9718 110.914 79.9436 110.937 79.9105 110.951C79.8775 110.965 79.8411 110.968 79.806 110.961C79.7709 110.954 79.7386 110.937 79.7133 110.912C79.688 110.886 79.6708 110.854 79.6638 110.819C79.6568 110.784 79.6604 110.748 79.6741 110.715C79.6878 110.681 79.711 110.653 79.7408 110.633C79.7705 110.613 79.8055 110.603 79.8413 110.603C79.865 110.603 79.8886 110.607 79.9105 110.617C79.9325 110.626 79.9524 110.639 79.9692 110.656C79.986 110.673 79.9993 110.693 80.0084 110.715C80.0175 110.736 80.0222 110.76 80.0222 110.784Z" fill="#FFA7A7"/>
<path opacity="0.4" d="M75.3179 110.769H73.9458V112.141H75.3179V110.769Z" fill="white"/>
<path d="M81.0827 72.7075H71.2067C70.0346 72.7075 68.9104 72.2422 68.0811 71.4138C67.2518 70.5855 66.7853 69.4618 66.7839 68.2897V62.8969H67.2865V68.2897C67.2879 69.3285 67.7015 70.3244 68.4365 71.0585C69.1715 71.7925 70.1679 72.2049 71.2067 72.2049H81.0827V72.7075Z" fill="black"/>
<path d="M71.2319 53.7698H64.7283C63.4071 53.7698 62.336 54.8409 62.336 56.1622V62.6657C62.336 63.9869 63.4071 65.058 64.7283 65.058H71.2319C72.5531 65.058 73.6242 63.9869 73.6242 62.6657V56.1622C73.6242 54.8409 72.5531 53.7698 71.2319 53.7698Z" fill="#FFA7A7"/>
<path opacity="0.4" d="M71.2319 53.7698H64.7283C63.4071 53.7698 62.336 54.8409 62.336 56.1622V62.6657C62.336 63.9869 63.4071 65.058 64.7283 65.058H71.2319C72.5531 65.058 73.6242 63.9869 73.6242 62.6657V56.1622C73.6242 54.8409 72.5531 53.7698 71.2319 53.7698Z" fill="white"/>
<path d="M67.9799 56.0817C68.9851 56.0817 69.4877 56.8758 69.4877 57.8609C69.4877 58.846 68.96 59.6401 67.9799 59.6401C66.9999 59.6401 66.4722 58.841 66.4722 57.8609C66.4722 56.8809 67.0099 56.0817 67.9799 56.0817Z" fill="white"/>
<path d="M71.9104 62.7511H64.0498C63.9875 62.75 63.9281 62.7247 63.884 62.6808L64.3866 61.3037C64.5452 60.8715 64.8327 60.4985 65.2102 60.2351C65.5878 59.9717 66.0371 59.8307 66.4974 59.8311H69.4627C69.9232 59.83 70.3729 59.9707 70.7506 60.2342C71.1283 60.4977 71.4156 60.8711 71.5736 61.3037L72.0762 62.6808C72.0321 62.7247 71.9726 62.75 71.9104 62.7511Z" fill="white"/>
<path d="M58.2549 97.7967H57.7523V92.4039C57.7537 91.2318 58.2202 90.1081 59.0495 89.2798C59.8788 88.4514 61.003 87.9861 62.1751 87.9861H85.8572V88.4887H62.1751C61.1363 88.4887 60.1399 88.9011 59.4049 89.6352C58.6699 90.3693 58.2562 91.3651 58.2549 92.4039V97.7967Z" fill="black"/>
<path d="M61.4514 93.8112H54.9479C53.6266 93.8112 52.5555 94.8823 52.5555 96.2035V102.707C52.5555 104.028 53.6266 105.099 54.9479 105.099H61.4514C62.7727 105.099 63.8437 104.028 63.8437 102.707V96.2035C63.8437 94.8823 62.7727 93.8112 61.4514 93.8112Z" fill="#FFA7A7"/>
<path opacity="0.4" d="M61.4514 93.8112H54.9479C53.6266 93.8112 52.5555 94.8823 52.5555 96.2035V102.707C52.5555 104.028 53.6266 105.099 54.9479 105.099H61.4514C62.7727 105.099 63.8437 104.028 63.8437 102.707V96.2035C63.8437 94.8823 62.7727 93.8112 61.4514 93.8112Z" fill="white"/>
<path opacity="0.6" d="M55.8776 100.486H54.4753V103.185H55.8776V100.486Z" fill="white"/>
<path opacity="0.6" d="M59.8532 99.5759H58.4509V103.185H59.8532V99.5759Z" fill="white"/>
<path d="M57.7926 98.6662H56.3903V103.184H57.7926V98.6662Z" fill="white"/>
<path d="M61.8486 97.7565H60.4464V103.184H61.8486V97.7565Z" fill="white"/>
<path d="M87.752 79.422H57.4357V79.9246H87.752V79.422Z" fill="black"/>
<path d="M58.4058 70.6569H51.8972C51.2627 70.6569 50.6542 70.9089 50.2056 71.3576C49.7569 71.8062 49.5049 72.4147 49.5049 73.0492V79.5578C49.5049 80.1922 49.7569 80.8007 50.2056 81.2494C50.6542 81.698 51.2627 81.9501 51.8972 81.9501H58.4058C58.7197 81.9501 59.0305 81.8882 59.3205 81.7679C59.6105 81.6476 59.8739 81.4713 60.0956 81.2491C60.3174 81.0269 60.4931 80.7631 60.6128 80.4729C60.7325 80.1827 60.7937 79.8717 60.7931 79.5578V73.0643C60.7957 72.7491 60.7359 72.4365 60.6172 72.1445C60.4984 71.8526 60.3229 71.587 60.101 71.3632C59.8791 71.1394 59.615 70.9617 59.324 70.8405C59.0331 70.7193 58.721 70.6569 58.4058 70.6569Z" fill="#FFA7A7"/>
<g opacity="0.4">
<path d="M58.4058 70.6569H51.8972C51.2627 70.6569 50.6542 70.9089 50.2056 71.3576C49.7569 71.8062 49.5049 72.4147 49.5049 73.0492V79.5578C49.5049 80.1922 49.7569 80.8007 50.2056 81.2494C50.6542 81.698 51.2627 81.9501 51.8972 81.9501H58.4058C58.7197 81.9501 59.0305 81.8882 59.3205 81.7679C59.6105 81.6476 59.8739 81.4713 60.0956 81.2491C60.3174 81.0269 60.4931 80.7631 60.6128 80.4729C60.7325 80.1827 60.7937 79.8717 60.7931 79.5578V73.0643C60.7957 72.7491 60.7359 72.4365 60.6172 72.1445C60.4984 71.8526 60.3229 71.587 60.101 71.3632C59.8791 71.1394 59.615 70.9617 59.324 70.8405C59.0331 70.7193 58.721 70.6569 58.4058 70.6569Z" fill="white"/>
</g>
<path d="M55.4001 72.1646V73.21C56.0536 73.2634 56.6739 73.52 57.1742 73.9438L57.913 73.205C57.2156 72.5865 56.3306 72.2202 55.4001 72.1646Z" fill="#FFA7A7"/>
<path opacity="0.6" d="M55.4001 72.1646V73.21C56.0536 73.2634 56.6739 73.52 57.1742 73.9438L57.913 73.205C57.2156 72.5865 56.3306 72.2202 55.4001 72.1646Z" fill="white"/>
<path d="M54.8925 79.4371C54.1522 79.3785 53.4571 79.0578 52.9321 78.5327C52.407 78.0077 52.0864 77.3126 52.0277 76.5724H50.9823C51.0442 77.5891 51.4761 78.5481 52.1964 79.2684C52.9167 79.9887 53.8757 80.4206 54.8925 80.4825V79.4371Z" fill="#FFA7A7"/>
<path opacity="0.8" d="M54.8925 79.4371C54.1522 79.3785 53.4571 79.0578 52.9321 78.5327C52.407 78.0077 52.0864 77.3126 52.0277 76.5724H50.9823C51.0442 77.5891 51.4761 78.5481 52.1964 79.2684C52.9167 79.9887 53.8757 80.4206 54.8925 80.4825V79.4371Z" fill="white"/>
<path d="M52.0277 76.0647C52.0873 75.3248 52.4083 74.6303 52.9332 74.1055C53.4581 73.5806 54.1526 73.2596 54.8925 73.1999V72.1646C53.8757 72.2265 52.9167 72.6584 52.1964 73.3787C51.4761 74.099 51.0442 75.058 50.9823 76.0748L52.0277 76.0647Z" fill="#FFA7A7"/>
<path opacity="0.7" d="M52.0277 76.0647C52.0873 75.3248 52.4083 74.6303 52.9332 74.1055C53.4581 73.5806 54.1526 73.2596 54.8925 73.1999V72.1646C53.8757 72.2265 52.9167 72.6584 52.1964 73.3787C51.4761 74.099 51.0442 75.058 50.9823 76.0748L52.0277 76.0647Z" fill="white"/>
<path d="M58.2699 73.5518L57.5311 74.2906C57.9036 74.7295 58.1478 75.2627 58.237 75.8314C58.3262 76.4001 58.2568 76.9825 58.0366 77.5144C57.8164 78.0463 57.4538 78.5071 56.9886 78.8463C56.5235 79.1856 55.9738 79.39 55.4001 79.4371V80.4825C56.1809 80.4352 56.9326 80.1694 57.5696 79.7153C58.2065 79.2612 58.7029 78.6372 59.0022 77.9145C59.3014 77.1918 59.3915 76.3995 59.262 75.6281C59.1325 74.8567 58.7887 74.1372 58.2699 73.5518Z" fill="white"/>
<path d="M81.8213 70.2196L83.2336 70.1593L85.2188 92.0773H83.7111C82.9622 92.0069 82.7863 91.1626 82.5802 89.5643L81.1931 74.2604C80.8714 70.6568 81.4896 70.2196 81.8213 70.2196Z" fill="#FFA7A7"/>
<path opacity="0.3" d="M81.8213 70.2196L83.2336 70.1593L85.2188 92.0773H83.7111C82.9622 92.0069 82.7863 91.1626 82.5802 89.5643L81.1931 74.2604C80.8714 70.6568 81.4896 70.2196 81.8213 70.2196Z" fill="black"/>
<path d="M84.0981 92.0773H113.806C113.888 92.0717 113.968 92.0487 114.04 92.0099C114.113 91.9711 114.176 91.9174 114.226 91.8522C114.276 91.7871 114.311 91.7121 114.33 91.6321C114.348 91.5522 114.35 91.4692 114.334 91.3887L112.479 70.8428C112.47 70.6687 112.399 70.5036 112.278 70.3781C112.157 70.2525 111.995 70.1748 111.821 70.1593H82.0878C82.006 70.1643 81.9262 70.1866 81.8537 70.2248C81.7812 70.263 81.7176 70.3162 81.6672 70.3809C81.6168 70.4455 81.5808 70.5201 81.5614 70.5998C81.5421 70.6794 81.5399 70.7623 81.555 70.8428L83.4146 91.3887C83.4219 91.5681 83.4962 91.7383 83.6227 91.8657C83.7492 91.9932 83.9188 92.0686 84.0981 92.0773Z" fill="#FFA7A7"/>
<path d="M85.2138 89.4789H112.193L110.695 72.3757H83.7161L85.2138 89.4789Z" fill="#FFA7A7"/>
<path d="M85.6057 90.8208H112.188C112.363 90.824 112.537 90.7899 112.697 90.7206C112.858 90.6514 113.002 90.5487 113.12 90.4193C113.238 90.2899 113.327 90.1369 113.381 89.9704C113.435 89.8039 113.453 89.6278 113.434 89.4538L111.952 72.4561C111.915 72.082 111.74 71.735 111.462 71.483C111.183 71.2311 110.82 71.0924 110.444 71.0941H83.8617C83.6869 71.0902 83.5133 71.1237 83.3525 71.1923C83.1917 71.261 83.0474 71.3632 82.9294 71.4922C82.8113 71.6212 82.7222 71.774 82.6681 71.9402C82.6139 72.1065 82.5959 72.2824 82.6153 72.4561L84.0979 89.4538C84.1331 89.8288 84.3073 90.1771 84.5864 90.4301C84.8654 90.6831 85.229 90.8225 85.6057 90.8208Z" fill="#263238"/>
<path d="M85.2138 89.4789H112.193L110.695 72.3757H83.7161L85.2138 89.4789Z" fill="#FFA7A7"/>
<path opacity="0.4" d="M85.2138 89.4789H112.193L110.695 72.3757H83.7161L85.2138 89.4789Z" fill="white"/>
<path d="M87.4152 80.2463L87.6062 79.8241C87.8388 79.9875 88.1161 80.0753 88.4003 80.0754C88.732 80.0754 88.8677 79.9648 88.8677 79.8191C88.8677 79.3667 87.4655 79.6783 87.4655 78.7837C87.4655 78.3716 87.7922 78.0298 88.4707 78.0298C88.7632 78.0246 89.0517 78.0994 89.305 78.246L89.1341 78.6681C88.9308 78.5501 88.7007 78.4861 88.4656 78.4822C88.1339 78.4822 88.0083 78.6028 88.0083 78.7536C88.0083 79.2009 89.4105 78.8943 89.4105 79.7588C89.4105 80.1608 89.0738 80.5026 88.4053 80.5026C88.0569 80.5199 87.7115 80.4305 87.4152 80.2463Z" fill="white"/>
<path d="M89.6517 79.2763C89.6366 79.0119 89.7013 78.7492 89.8373 78.522C89.9733 78.2948 90.1743 78.1137 90.4144 78.0021C90.6546 77.8906 90.9226 77.8537 91.184 77.8963C91.4453 77.9388 91.6878 78.0589 91.8801 78.2409C92.0724 78.4229 92.2056 78.6585 92.2624 78.9171C92.3192 79.1757 92.2971 79.4454 92.1989 79.6913C92.1007 79.9371 91.9309 80.1478 91.7115 80.2961C91.4921 80.4443 91.2333 80.5233 90.9685 80.5227C90.799 80.5323 90.6294 80.5071 90.4699 80.4488C90.3105 80.3905 90.1646 80.3002 90.0413 80.1835C89.918 80.0668 89.8199 79.9261 89.7529 79.7701C89.6859 79.6141 89.6515 79.4461 89.6517 79.2763ZM91.7274 79.2763C91.7245 79.1269 91.6775 78.9816 91.5923 78.8588C91.5071 78.736 91.3876 78.6411 91.2487 78.586C91.1098 78.5308 90.9577 78.5179 90.8115 78.5489C90.6652 78.5799 90.5314 78.6533 90.4268 78.76C90.3222 78.8667 90.2514 79.002 90.2233 79.1488C90.1952 79.2955 90.2111 79.4474 90.269 79.5852C90.3268 79.7229 90.4241 79.8406 90.5485 79.9233C90.673 80.0061 90.8191 80.0502 90.9685 80.0503C91.0703 80.0532 91.1715 80.035 91.2659 79.9969C91.3603 79.9588 91.4458 79.9017 91.517 79.829C91.5883 79.7563 91.6437 79.6697 91.68 79.5746C91.7162 79.4795 91.7323 79.3779 91.7274 79.2763Z" fill="white"/>
<path d="M93.2705 78.5224V79.1557H94.3862V79.608H93.2705V80.4825H92.7126V78.0751H94.532V78.5224H93.2705Z" fill="white"/>
<path d="M95.4316 78.5274H94.6526V78.0751H96.7534V78.5274H95.9845V80.4825H95.4266L95.4316 78.5274Z" fill="white"/>
<path d="M100.684 78.0751L99.8945 80.4825H99.2964L98.7636 78.8541L98.2209 80.4825H97.6228L96.8287 78.0751H97.4117L97.9545 79.7688L98.5224 78.0751H99.025L99.5728 79.7839L100.136 78.0751H100.684Z" fill="white"/>
<path d="M102.478 79.9648H101.362L101.146 80.4674H100.578L101.649 78.06H102.191L103.267 80.4674H102.694L102.478 79.9648ZM102.302 79.5427L101.92 78.6229L101.538 79.5427H102.302Z" fill="white"/>
<path d="M105.066 80.4825L104.604 79.8141H104.101V80.4825H103.543V78.0751H104.584C105.232 78.0751 105.634 78.4068 105.634 78.9496C105.64 79.1127 105.594 79.2734 105.504 79.4095C105.414 79.5455 105.284 79.65 105.132 79.7085L105.674 80.4825H105.066ZM104.564 78.5274H104.111V79.3667H104.564C104.905 79.3667 105.066 79.2109 105.066 78.9496C105.066 78.6882 104.885 78.5274 104.544 78.5274H104.564Z" fill="white"/>
<path d="M107.931 80.0352V80.4825H106.066V78.0751H107.886V78.5224H106.619V79.025H107.72V79.4572H106.599V80.0151L107.931 80.0352Z" fill="white"/>
<path d="M85.9729 82.2164H86.5308V84.6289H85.9729V82.2164Z" fill="white"/>
<path d="M89.3149 82.2164V84.6289H88.8576L87.6564 83.1663V84.6289H87.1136V82.2164H87.576L88.7721 83.684V82.2164H89.3149Z" fill="white"/>
<path d="M90.3855 82.6637H89.6266V82.2164H91.7274V82.6738H90.9534V84.6289H90.3956L90.3855 82.6637Z" fill="white"/>
<path d="M93.8835 84.1715V84.6188H92.0189V82.2164H93.8383V82.6688H92.5718V83.1714H93.6926V83.6036H92.5718V84.1615L93.8835 84.1715Z" fill="white"/>
<path d="M95.9491 83.3774H96.4517V84.3525C96.1669 84.5544 95.8258 84.6617 95.4766 84.659C95.1434 84.659 94.8238 84.5267 94.5882 84.291C94.3525 84.0554 94.2202 83.7358 94.2202 83.4026C94.2202 83.0693 94.3525 82.7497 94.5882 82.5141C94.8238 82.2785 95.1434 82.1461 95.4766 82.1461C95.6644 82.1386 95.8515 82.1721 96.0251 82.2441C96.1987 82.3161 96.3545 82.425 96.4818 82.5632L96.1199 82.8949C96.0427 82.8076 95.9475 82.7381 95.8407 82.6912C95.734 82.6444 95.6183 82.6213 95.5018 82.6235C95.3952 82.6149 95.288 82.6285 95.187 82.6634C95.0859 82.6982 94.9932 82.7536 94.9146 82.8261C94.8361 82.8986 94.7734 82.9866 94.7305 83.0845C94.6876 83.1824 94.6655 83.2881 94.6655 83.395C94.6655 83.5019 94.6876 83.6076 94.7305 83.7056C94.7734 83.8035 94.8361 83.8914 94.9146 83.9639C94.9932 84.0364 95.0859 84.0918 95.187 84.1267C95.288 84.1615 95.3952 84.1751 95.5018 84.1665C95.6525 84.1687 95.8013 84.1324 95.934 84.0609L95.9491 83.3774Z" fill="white"/>
<path d="M98.5175 84.6188L98.0501 83.9454H97.5475V84.6188H96.9896V82.2164H98.035C98.6783 82.2164 99.0804 82.5532 99.0804 83.091C99.0871 83.2549 99.0422 83.4167 98.952 83.5538C98.8619 83.6908 98.731 83.7961 98.5778 83.8549L99.1206 84.6289L98.5175 84.6188ZM97.9898 82.6637H97.5375V83.5031H97.9898C98.3315 83.5031 98.4924 83.3473 98.4924 83.0809C98.4924 82.8145 98.3315 82.6637 97.9898 82.6637Z" fill="white"/>
<path d="M101.101 84.1011H99.9798L99.7687 84.6037H99.1757L100.251 82.1913H100.799L101.88 84.6037H101.292L101.101 84.1011ZM100.925 83.679L100.543 82.7542L100.161 83.679H100.925Z" fill="white"/>
<path d="M102.533 82.6637H101.759V82.2164H103.86V82.6738H103.086V84.6289H102.533V82.6637Z" fill="white"/>
<path d="M104.162 82.2164H104.704V84.6289H104.147L104.162 82.2164Z" fill="white"/>
<path d="M105.142 83.4126C105.128 83.1496 105.193 82.8885 105.329 82.6629C105.464 82.4373 105.665 82.2576 105.904 82.1471C106.143 82.0365 106.41 82.0002 106.669 82.0428C106.929 82.0854 107.171 82.2049 107.362 82.386C107.553 82.567 107.686 82.8012 107.742 83.0584C107.799 83.3155 107.778 83.5838 107.68 83.8286C107.583 84.0733 107.415 84.2832 107.197 84.4313C106.979 84.5793 106.722 84.6587 106.458 84.659C106.289 84.6686 106.119 84.6435 105.96 84.5851C105.8 84.5268 105.655 84.4365 105.531 84.3198C105.408 84.2031 105.31 84.0624 105.243 83.9064C105.176 83.7504 105.141 83.5824 105.142 83.4126ZM107.212 83.4126C107.208 83.2644 107.161 83.1207 107.076 82.9994C106.99 82.8781 106.871 82.7846 106.733 82.7306C106.595 82.6766 106.444 82.6645 106.299 82.6959C106.155 82.7272 106.022 82.8005 105.919 82.9067C105.815 83.0129 105.745 83.1472 105.718 83.2929C105.69 83.4386 105.706 83.5891 105.764 83.7257C105.822 83.8623 105.918 83.9788 106.042 84.0608C106.165 84.1428 106.31 84.1866 106.458 84.1866C106.56 84.1903 106.662 84.1726 106.757 84.1348C106.851 84.097 106.937 84.0399 107.009 83.967C107.08 83.8942 107.135 83.8073 107.171 83.7118C107.207 83.6164 107.223 83.5145 107.217 83.4126H107.212Z" fill="white"/>
<path d="M110.409 82.2164V84.6289H109.951L108.75 83.1663V84.6289H108.222V82.2164H108.685L109.886 83.684V82.2164H110.409Z" fill="white"/>
<path opacity="0.1" d="M92.9739 71.0992L87.7067 90.8108H89.4809L94.6927 71.0992H92.9739Z" fill="white"/>
<path opacity="0.1" d="M95.7129 71.0992L90.4407 90.8108H93.9589L99.1707 71.0992H95.7129Z" fill="white"/>
<path d="M83.7161 72.3757L83.8518 73.9086H110.831L110.695 72.3757H83.7161Z" fill="#FFA7A7"/>
<path d="M84.9574 73.0592C84.9617 73.0984 84.9576 73.1381 84.9453 73.1755C84.9331 73.213 84.9129 73.2474 84.8863 73.2764C84.8596 73.3054 84.827 73.3284 84.7908 73.3439C84.7545 73.3593 84.7153 73.3668 84.6759 73.3658C84.5919 73.365 84.5112 73.3333 84.4491 73.2768C84.387 73.2202 84.3478 73.1428 84.3392 73.0592C84.335 73.0198 84.3391 72.98 84.3513 72.9422C84.3635 72.9045 84.3836 72.8698 84.4102 72.8404C84.4367 72.811 84.4692 72.7875 84.5055 72.7715C84.5418 72.7555 84.581 72.7474 84.6207 72.7476C84.7051 72.7496 84.7859 72.7824 84.8479 72.8398C84.9099 72.8972 84.9489 72.9752 84.9574 73.0592Z" fill="white"/>
<path d="M85.7718 73.0592C85.7761 73.0984 85.772 73.1381 85.7597 73.1755C85.7474 73.213 85.7273 73.2474 85.7006 73.2764C85.674 73.3054 85.6414 73.3284 85.6052 73.3439C85.5689 73.3593 85.5297 73.3668 85.4903 73.3658C85.4063 73.365 85.3256 73.3333 85.2635 73.2768C85.2014 73.2202 85.1622 73.1428 85.1536 73.0592C85.1494 73.0198 85.1535 72.98 85.1657 72.9422C85.1779 72.9045 85.198 72.8698 85.2246 72.8404C85.2511 72.811 85.2836 72.7875 85.3199 72.7715C85.3562 72.7555 85.3954 72.7474 85.435 72.7476C85.5195 72.7496 85.6003 72.7824 85.6623 72.8398C85.7243 72.8972 85.7632 72.9752 85.7718 73.0592Z" fill="white"/>
<path d="M86.6112 73.0592C86.6155 73.0984 86.6114 73.1381 86.5991 73.1755C86.5869 73.213 86.5667 73.2474 86.5401 73.2764C86.5134 73.3054 86.4809 73.3284 86.4446 73.3439C86.4083 73.3593 86.3692 73.3668 86.3298 73.3658C86.2458 73.365 86.165 73.3333 86.1029 73.2768C86.0408 73.2202 86.0017 73.1428 85.993 73.0592C85.9888 73.0198 85.9929 72.98 86.0051 72.9422C86.0173 72.9045 86.0374 72.8698 86.064 72.8404C86.0905 72.811 86.123 72.7875 86.1593 72.7715C86.1956 72.7555 86.2348 72.7474 86.2745 72.7476C86.3589 72.7496 86.4397 72.7824 86.5017 72.8398C86.5637 72.8972 86.6027 72.9752 86.6112 73.0592Z" fill="white"/>
<path d="M114.716 92.1376H84.4347C84.0794 92.1376 83.7914 92.4256 83.7914 92.7809V93.1679C83.7914 93.5232 84.0794 93.8112 84.4347 93.8112H114.716C115.071 93.8112 115.359 93.5232 115.359 93.1679V92.7809C115.359 92.4256 115.071 92.1376 114.716 92.1376Z" fill="#FFA7A7"/>
<path d="M95.8033 92.1376H127.11V92.5196C127.11 92.8621 126.974 93.1907 126.731 93.4329C126.489 93.6751 126.161 93.8112 125.818 93.8112H97.0949C96.7524 93.8112 96.4238 93.6751 96.1816 93.4329C95.9394 93.1907 95.8033 92.8621 95.8033 92.5196V92.1376Z" fill="#FFA7A7"/>
<path opacity="0.3" d="M95.8033 92.1376H127.11V92.5196C127.11 92.8621 126.974 93.1907 126.731 93.4329C126.489 93.6751 126.161 93.8112 125.818 93.8112H97.0949C96.7524 93.8112 96.4238 93.6751 96.1816 93.4329C95.9394 93.1907 95.8033 92.8621 95.8033 92.5196V92.1376Z" fill="white"/>
<path opacity="0.3" d="M108.906 92.1828C108.907 92.4045 108.996 92.6167 109.154 92.7731C109.311 92.9294 109.524 93.0171 109.745 93.0171H113.575C113.796 93.0171 114.008 92.9292 114.165 92.7728C114.321 92.6163 114.409 92.4041 114.409 92.1828H108.906Z" fill="black"/>
</svg>
