<svg width="200" height="200" viewBox="0 0 200 200" fill="none" xmlns="http://www.w3.org/2000/svg">
<path d="M60.9238 61.9081C60.9238 61.9081 79.611 30.7939 116.966 42.9704C154.26 55.1489 145.448 101.38 145.424 101.501C145.587 100.654 152.048 99.8471 152.732 99.7477C171.791 96.9307 185.967 114.658 187.373 132.128C189.118 153.797 172.357 169.145 153.268 175.753" stroke="#FFA7A7" stroke-width="0.7" stroke-miterlimit="10"/>
<path d="M150.807 185.92C150.243 187.906 149.833 189.041 149.833 189.041H149.539C150.004 188.028 150.427 186.988 150.807 185.92Z" fill="#353642"/>
<path d="M98.8073 107.535C98.8073 107.535 98.1354 111.615 97.4396 115.308C95.4516 115.33 93.4636 115.346 91.4974 115.362C90.5034 109.768 91.5829 105.386 92.8652 102.466C94.4814 106.152 96.9227 107.273 98.8073 107.535Z" fill="#FFA7A7"/>
<path d="M131.482 122.254C127.44 120.078 123.131 118.437 118.665 117.374L117.202 117.121C117.202 117.121 116.113 114.644 116.107 114.636C115.596 113.338 114.749 111.615 114.487 110.247C114.167 108.631 114.089 106.977 114.256 105.339C114.542 102.905 115.675 97.7583 117.723 96.1361C119.431 94.7922 120.135 95.0745 121.103 92.9732C121.798 91.4742 122.081 88.9554 120.729 87.8501C119.23 86.6374 118.59 87.2537 116.797 87.4406C109.982 88.1165 106.087 83.2121 103.582 77.5443C103.185 76.6239 102.771 75.6517 102.121 74.8685C101.376 73.9659 100.344 73.7631 99.4991 73.0335C99.1392 72.7194 98.8927 72.2065 99.0657 71.7612C99.1677 71.5483 99.3158 71.3608 99.4991 71.2125C101.096 69.7416 103.013 68.6627 105.099 68.0616C108.399 67.1075 111.886 66.9988 115.238 67.7455C118.737 68.9045 121.882 71.0992 123.999 74.453C126.92 79.087 127.623 83.894 125.987 88.6851C124.311 93.5914 122.441 99.3547 125.59 104.076C129.782 110.348 132.309 114.76 131.482 122.254Z" fill="#FFA7A7"/>
<path d="M97.4475 115.308C95.4595 115.33 93.4715 115.346 91.5053 115.361C76.5238 115.439 62.1843 115.23 47.155 117.926" stroke="black" stroke-width="0.7" stroke-miterlimit="10"/>
<path d="M116.966 116.976C117.536 117.101 118.101 117.232 118.665 117.374C120.866 117.905 123.033 118.569 125.154 119.362C127.33 120.171 129.445 121.137 131.482 122.252C131.484 122.25 131.487 122.249 131.49 122.249C131.493 122.249 131.496 122.25 131.498 122.252C134.702 123.988 137.664 126.139 140.307 128.649C142.516 130.802 144.426 133.242 145.986 135.904C146 135.914 146.01 135.928 146.016 135.943C147.282 138.068 148.38 140.287 149.302 142.581C152.054 149.358 153.614 157.161 153.853 164.926C154.07 172.26 153.103 179.562 150.817 185.92C150.437 186.988 150.014 188.028 149.549 189.041C149.519 189.118 149.479 189.188 149.449 189.266" stroke="black" stroke-width="0.7" stroke-miterlimit="10"/>
<path d="M125.604 189.165C125.604 189.165 125.604 189.15 125.604 189.142C125.616 189.109 125.626 189.075 125.633 189.041" stroke="black" stroke-width="0.7" stroke-miterlimit="10"/>
<path d="M120.357 144.46C120.357 144.46 124.683 146.561 127.526 153.122C128.955 156.42 130.015 160.855 129.953 166.72C129.953 166.72 129.953 166.72 129.953 166.736C129.921 170.475 129.428 174.793 128.283 179.769V179.797" stroke="black" stroke-width="0.7" stroke-miterlimit="10"/>
<path d="M38.4893 61.1749C39.2526 58.2864 40.4773 55.3083 41.3977 54.0559C42.845 52.1077 44.7336 50.2509 47.1629 50.4179C48.7235 50.5192 50.2562 51.382 50.3258 53.0917C50.3914 54.9465 48.4352 57.0061 47.807 58.7496C47.2106 60.4314 46.9383 62.3896 47.2524 64.1589C47.5665 65.9282 49.1549 67.3099 50.8685 67.6896C51.5186 67.8608 52.2098 67.7671 52.7909 67.4292C54.4688 66.3676 54.1169 63.5406 54.0493 61.8727C53.9698 60.002 53.9718 57.8868 55.5682 56.6065C56.7411 55.6662 58.5203 56.2904 59.3851 57.3242C60.8881 59.1134 60.9616 61.8071 61.0372 64.0098C61.2618 70.6458 60.0829 77.0073 56.2182 82.5936C54.2302 85.4782 52.1826 88.0666 51.3775 91.6052C48.8726 102.603 48.5943 110.227 47.1549 121.395" stroke="black" stroke-width="0.7" stroke-miterlimit="10"/>
<path d="M77.4999 189.339C69.8183 167.507 73.4563 143.655 73.4563 143.655L32.1934 144.963C30.4366 145.019 28.6881 144.697 27.0661 144.02C25.4441 143.343 23.9861 142.326 22.7902 141.038C21.5944 139.749 20.6884 138.22 20.1335 136.552C19.5787 134.884 19.3877 133.117 19.5736 131.369L29.6806 94.5115L31.8674 86.649C32.5647 84.1749 32.4049 81.5378 31.4141 79.1661L30.3843 76.709C30.3843 76.709 28.5176 72.9019 32.7023 73.2598C34.9527 73.4586 37.1853 74.4148 39.0739 75.6156C40.5569 76.5599 42.8193 78.3868 42.1195 80.4126C41.2925 82.7982 38.05 83.3946 36.1455 82.0527" stroke="black" stroke-width="0.7" stroke-miterlimit="10"/>
<path d="M31.3106 73.2401C31.3106 73.2401 27.7759 65.2881 37.4734 67.3457C47.1709 69.4033 49.4929 79.9993 42.0915 78.8065" stroke="black" stroke-width="0.7" stroke-miterlimit="10"/>
<path d="M34.5072 66.8902C34.5072 66.8902 31.4059 63.123 36.042 61.3238C40.678 59.5247 57.5124 68.0214 46.7135 76.3909" stroke="black" stroke-width="0.7" stroke-miterlimit="10"/>
<path d="M101.59 107.356C100.69 107.603 99.7495 107.664 98.8251 107.535C96.9325 107.272 94.4912 106.143 92.883 102.465C92.549 101.714 92.2776 100.936 92.0718 100.139C91.2528 97.0957 90.8949 92.8612 91.3741 86.9569C91.4675 85.8217 91.6067 84.6687 91.7995 83.5176C92.1188 81.5153 92.6335 79.549 93.3362 77.6471C93.3362 77.6471 93.3362 77.6312 93.3521 77.6232C95.1055 72.9872 98.1889 69.0748 103.374 67.5699C107.262 66.4483 111.396 66.5079 115.25 67.7409C118.749 68.8999 121.894 71.0946 124.011 74.4484C126.931 79.0824 127.635 83.8894 125.999 88.6805C124.323 93.5869 122.452 99.3501 125.601 104.072C129.788 110.354 132.315 114.765 131.504 122.26" stroke="black" stroke-width="0.7" stroke-miterlimit="10"/>
<path d="M89.9149 115.594C88.3921 108.292 90.4477 102.968 92.0619 100.139" stroke="black" stroke-width="0.7" stroke-miterlimit="10"/>
<path d="M91.7994 83.5099C91.7994 83.5099 95.1333 80.0249 98.996 85.5297" stroke="black" stroke-width="0.7" stroke-miterlimit="10"/>
<path d="M100.288 101.058C101.698 101.97 103.606 101.403 104.644 99.998C105.771 98.4732 106.222 96.4375 106.467 94.5906C106.483 94.4574 106.501 94.3262 106.513 94.193C104.793 96.8947 101.455 97.5428 98.517 97.8251C98.6283 98.7088 98.9569 99.5509 99.4732 100.276C99.6943 100.585 99.9706 100.85 100.288 101.058Z" stroke="black" stroke-width="0.7" stroke-linecap="round" stroke-linejoin="round"/>
<path d="M115.597 113.219L115.59 113.213" stroke="black" stroke-width="0.7" stroke-miterlimit="10"/>
<path d="M102.483 82.4382C102.483 82.4382 103.616 80.6032 107.489 81.9551C111.361 83.3069 111.407 85.5156 111.407 85.5156" stroke="black" stroke-width="0.7" stroke-miterlimit="10"/>
<path d="M93.6802 87.001C93.6802 87.001 95.4694 86.0965 96.8709 87.001" stroke="black" stroke-width="0.7" stroke-miterlimit="10"/>
<path d="M103.322 87.8336C103.322 87.8336 105.111 86.9291 106.503 87.8336" stroke="black" stroke-width="0.7" stroke-miterlimit="10"/>
<path d="M98.8071 107.535C98.8071 107.535 98.1352 111.614 97.4394 115.308C97.338 115.833 97.2406 116.35 97.1531 116.861C96.6978 119.348 96.334 121.558 96.3181 122.228C96.2028 127.795 101.465 131.005 106.548 130.952C113.681 130.874 117.852 124.238 117.18 117.592C116.741 116.38 116.292 115.167 115.852 113.954C115.288 112.4 114.554 110.887 114.236 109.249C113.955 107.635 113.924 105.987 114.145 104.364C114.431 101.939 114.902 98.3227 116.95 96.7005C118.657 95.3566 120.441 94.4739 121.415 92.3726C122.11 90.8736 122.079 88.9433 120.727 87.838C119.228 86.6253 116.856 86.7724 115.063 86.9493C103.497 88.1322 101.572 76.4249 98.4433 74.7808C95.8788 73.427 93.9544 76.4646 93.352 77.5918L93.3282 77.6395C93.3272 77.6509 93.3222 77.6614 93.3143 77.6693C93.2049 77.8681 93.1512 78.0013 93.1512 78.0013" stroke="black" stroke-width="0.7" stroke-miterlimit="10"/>
<path d="M98.5109 88.3487C98.5109 88.3487 97.3022 92.3048 97.3957 92.8972C97.4891 93.4897 98.8986 93.0762 98.8986 93.0762" stroke="black" stroke-width="0.7" stroke-miterlimit="10"/>
<path d="M107.982 92.5237C109.834 90.6753 109.8 87.639 107.907 85.7422C106.013 83.8455 102.977 83.8063 101.126 85.655C99.2739 87.5034 99.3079 90.5395 101.201 92.4362C103.095 94.333 106.131 94.3721 107.982 92.5237Z" stroke="black" stroke-width="0.7" stroke-miterlimit="10"/>
<path d="M95.8981 91.0552C97.7498 89.2067 97.716 86.1706 95.8226 84.2739C93.929 82.3771 90.8931 82.338 89.0413 84.1864C87.1897 86.0349 87.2235 89.0709 89.1171 90.9677C91.0104 92.8644 94.0465 92.9036 95.8981 91.0552Z" stroke="black" stroke-width="0.7" stroke-miterlimit="10"/>
<path d="M92.364 83.9375C92.8919 83.9351 93.4143 84.0433 93.8978 84.2552C94.3811 84.4671 94.8148 84.7781 95.1707 85.1679C95.5266 85.5575 95.7967 86.0178 95.9639 86.5183C96.1311 87.0189 96.1915 87.5491 96.1412 88.0746C96.0573 88.958 95.6462 89.7783 94.9886 90.3743C94.331 90.9701 93.4741 91.2985 92.5867 91.2951C92.0589 91.2975 91.5364 91.1892 91.053 90.9772C90.5697 90.7655 90.1359 90.4546 89.78 90.0647C89.4242 89.6749 89.154 89.2149 88.9868 88.7143C88.8196 88.2135 88.7592 87.6835 88.8095 87.1581C88.8934 86.2746 89.3045 85.4544 89.9621 84.8584C90.6198 84.2626 91.4766 83.9339 92.364 83.9375ZM92.364 83.3888C91.3414 83.3863 90.3546 83.766 89.5973 84.4532C88.8401 85.1407 88.367 86.0862 88.2707 87.1044C88.1684 88.2282 88.5069 89.3479 89.2152 90.2264C89.9236 91.1051 90.9458 91.6736 92.0658 91.812C92.2374 91.8325 92.41 91.843 92.5827 91.8438C93.6065 91.8478 94.5948 91.4689 95.3532 90.7812C96.1118 90.0938 96.5858 89.1475 96.682 88.1282C96.7844 87.0044 96.4458 85.8848 95.7375 85.0061C95.0292 84.1276 94.0069 83.559 92.8869 83.4206C92.7153 83.4002 92.5428 83.3896 92.37 83.3888H92.364Z" fill="white"/>
<path d="M99.7792 88.5054L97.2426 88.1972" stroke="black" stroke-width="0.7" stroke-miterlimit="10"/>
<path d="M107.593 92.1343C109.235 90.4952 109.206 87.8034 107.527 86.122C105.848 84.4403 103.157 84.4059 101.515 86.045C99.8729 87.6839 99.9025 90.3759 101.581 92.0573C103.26 93.7388 105.952 93.7734 107.593 92.1343Z" fill="#FFA7A7"/>
<path d="M95.5105 90.6663C97.1532 89.0266 97.1235 86.3335 95.4441 84.6512C93.7648 82.969 91.0717 82.9346 89.429 84.5743C87.7863 86.2142 87.8161 88.9071 89.4954 90.5894C91.1748 92.2718 93.8678 92.3062 95.5105 90.6663Z" fill="#FFA7A7"/>
<path d="M53.7073 21.5839C47.9421 21.8781 43.1709 26.4982 42.7117 32.2475C42.5747 33.8517 42.7733 35.4667 43.295 36.9899C43.8166 38.5129 44.6498 39.9107 45.7414 41.0941C46.5464 41.9796 47.4855 42.7331 48.5246 43.3267C48.7958 43.4831 49.0518 43.664 49.29 43.8674C50.8458 44.6529 52.5638 45.0634 54.3067 45.0662C56.0498 45.069 57.769 44.6638 59.3274 43.8833C59.5541 43.6728 59.8057 43.4913 60.0769 43.3426C61.1586 42.7241 62.1361 41.939 62.9734 41.0166C62.9947 40.9866 63.0179 40.958 63.043 40.9311C64.562 39.2117 65.5395 37.0822 65.8528 34.8095C66.1663 32.537 65.8017 30.2224 64.805 28.156C63.8082 26.0897 62.2233 24.3637 60.2495 23.1946C58.2756 22.0254 56.0005 21.465 53.7093 21.5839H53.7073ZM60.9238 39.796C60.9017 39.8125 60.8836 39.8335 60.8701 39.8576C60.2212 40.5671 59.4652 41.1709 58.6296 41.6468C58.4217 41.7607 58.2292 41.9011 58.0571 42.0643C56.8555 42.6657 55.5301 42.9788 54.1865 42.9788C52.8428 42.9788 51.5174 42.6657 50.3158 42.0643C50.1297 41.9054 49.9301 41.7631 49.7194 41.6389C48.1137 40.7152 46.833 39.3177 46.0529 37.6374C45.2731 35.9573 45.0319 34.0771 45.3629 32.2545C45.6937 30.4319 46.5806 28.7564 47.9014 27.4577C49.2222 26.1591 50.9124 25.3007 52.7404 25.0007C54.5681 24.7007 56.4442 24.9735 58.111 25.7818C59.7777 26.5901 61.1534 27.8942 62.0496 29.5152C62.9458 31.1365 63.3185 32.995 63.1165 34.8365C62.9148 36.6778 62.148 38.4115 60.9218 39.8L60.9238 39.796Z" fill="#FFA7A7"/>
<path d="M59.3236 43.8851C58.8659 44.3002 58.5007 44.8069 58.2515 45.3725C58.0022 45.9379 57.8743 46.5492 57.8763 47.1673V47.7001C57.8763 49.5608 56.5284 51.2288 54.6955 51.4156C54.2001 51.4663 53.6997 51.4128 53.2262 51.2586C52.7528 51.1041 52.3171 50.8524 51.9467 50.5194C51.5765 50.1865 51.2801 49.7797 51.0768 49.3252C50.8732 48.8708 50.767 48.3788 50.7652 47.881V47.1673C50.7642 46.5458 50.633 45.9315 50.3804 45.364C50.1277 44.7962 49.7591 44.2877 49.2981 43.8712C50.8539 44.6542 52.5713 45.0634 54.3132 45.0658C56.0551 45.0681 57.7735 44.6638 59.3315 43.8851H59.3236Z" fill="#353642"/>
<path d="M59.3236 43.8851C58.8659 44.3002 58.5007 44.8069 58.2515 45.3725C58.0022 45.9379 57.8743 46.5492 57.8763 47.1673V47.7001C57.8763 49.5608 56.5284 51.2288 54.6955 51.4156C54.2001 51.4663 53.6997 51.4128 53.2262 51.2586C52.7528 51.1041 52.3171 50.8524 51.9467 50.5194C51.5765 50.1864 51.2801 49.7797 51.0768 49.3252C50.8732 48.8708 50.767 48.3788 50.7652 47.881V47.1673C50.7642 46.5458 50.633 45.9315 50.3804 45.364C50.1277 44.7962 49.7591 44.2877 49.2981 43.8712C50.8539 44.6542 52.5713 45.0634 54.3132 45.0658C56.0551 45.0681 57.7735 44.6638 59.3315 43.8851H59.3236Z" stroke="black" stroke-width="0.7" stroke-miterlimit="10"/>
<path d="M65.9614 33.2159C65.9673 36.0603 64.9272 38.8077 63.039 40.9353C63.0154 40.9609 62.9935 40.9882 62.9734 41.0168C62.1347 41.9408 61.155 42.7265 60.0709 43.3447C59.8016 43.4952 59.5509 43.6767 59.3234 43.8855C57.7655 44.6644 56.047 45.0685 54.3051 45.0662C52.5633 45.0638 50.846 44.6546 49.29 43.8716C49.0524 43.665 48.7954 43.4819 48.5226 43.3249C46.6024 42.2209 45.0363 40.5932 44.0073 38.632C42.9781 36.6706 42.5288 34.457 42.7117 32.2497C42.9539 29.2498 44.348 26.4605 46.6018 24.4661C48.8558 22.4717 51.7943 21.4276 54.8011 21.5527C57.808 21.6775 60.6498 22.962 62.7305 25.1363C64.8111 27.3107 65.9689 30.2062 65.9614 33.2159Z" stroke="black" stroke-width="0.7" stroke-miterlimit="10"/>
<path d="M51.0256 45.0664L48.3577 36.2237L47.6897 33.7189C47.6897 33.6435 47.7145 33.5703 47.7603 33.5105C47.8062 33.4509 47.8704 33.4079 47.9432 33.3884C48.0159 33.369 48.0931 33.3739 48.1626 33.4028C48.2322 33.4316 48.2903 33.4827 48.3278 33.5479C48.9242 34.6015 49.8666 35.9235 50.8049 35.8897C52.3615 35.8341 51.0832 31.1086 49.8109 31.6036C48.5386 32.0986 50.9778 35.2218 53.4907 35.6114C56.0035 36.0011 55.3157 31.7766 53.4907 31.6096C51.6657 31.4426 52.9241 35.0011 56.2043 35.6114C59.4845 36.2217 58.8722 32.6095 57.9836 31.8879C57.0949 31.1663 57.3713 35.3331 59.4308 36.0011C60.0829 36.2138 60.6018 35.7585 60.8562 35.192C61.0033 34.862 60.9278 33.192 60.6256 33.7069C60.0093 34.7626 59.8881 36.0806 59.5859 37.2456C58.9438 39.7107 57.9617 42.0704 57.3991 44.5574" stroke="black" stroke-width="0.7" stroke-miterlimit="10"/>
<path d="M33.4915 189.339C34.899 188.679 164.699 189.339 164.699 189.339" stroke="black" stroke-width="0.7" stroke-miterlimit="10"/>
<path d="M54.3078 17.4228L54.1925 10.4191" stroke="black" stroke-width="0.7" stroke-miterlimit="10"/>
<path d="M40.9505 23.9375L36.1018 18.8821" stroke="black" stroke-width="0.7" stroke-miterlimit="10"/>
<path d="M67.7148 24.2516L72.6709 19.3014" stroke="black" stroke-width="0.7" stroke-miterlimit="10"/>
<path d="M142.014 179.785L142.183 179.8C142.092 179.816 141.985 179.832 141.891 179.854H141.748L128.287 179.785H126.766L104.151 179.669C104.065 179.669 103.98 179.669 103.895 179.669C103.874 179.673 103.853 179.673 103.833 179.669C103.833 179.669 103.833 179.669 103.819 179.669C103.677 179.671 103.534 179.661 103.394 179.639C104.603 179.503 105.749 179.026 106.7 178.266C106.849 178.141 107.002 178.021 107.141 177.886L107.157 177.87C107.189 177.844 107.22 177.815 107.248 177.785C108.398 176.648 109.086 175.126 109.181 173.512C109.181 173.435 109.181 173.349 109.181 173.272V173.149C109.174 171.642 108.648 170.184 107.693 169.019C106.738 167.854 105.41 167.053 103.934 166.751C103.932 166.749 103.929 166.748 103.926 166.748C103.923 166.748 103.921 166.749 103.918 166.751C103.771 166.713 103.602 166.69 103.447 166.666L103.779 166.644C103.833 166.64 103.888 166.64 103.942 166.644C104.034 166.644 104.119 166.644 104.205 166.644L123.311 166.743L126.828 166.759L129.949 166.775H131.402H131.579C131.603 166.775 131.617 166.775 131.641 166.775C133.253 166.938 134.747 167.692 135.834 168.892C136.922 170.092 137.526 171.652 137.53 173.272C137.529 173.58 137.506 173.888 137.46 174.192C137.234 175.706 136.486 177.093 135.345 178.112C134.203 179.131 132.741 179.718 131.212 179.771C131.142 179.771 131.072 179.771 131.013 179.771H142.364C142.199 179.777 142.092 179.777 142.014 179.785Z" fill="white"/>
<path d="M111.616 187.685C112.045 188.117 112.556 188.46 113.118 188.693C113.68 188.926 114.283 189.046 114.892 189.045H103.803C101.68 189.045 100.527 188.528 99.6858 187.685C98.8171 186.816 98.3282 185.638 98.326 184.409C98.326 181.869 100.411 179.781 103.803 179.781H114.892C113.976 179.78 113.079 180.05 112.317 180.559C111.555 181.067 110.96 181.791 110.609 182.637C110.258 183.484 110.167 184.415 110.346 185.314C110.525 186.213 110.967 187.038 111.616 187.685Z" fill="#FFA7A7"/>
<path d="M142.06 179.799C142.069 179.797 142.078 179.798 142.086 179.801C142.077 179.8 142.069 179.8 142.06 179.799C142.03 179.797 142 179.792 141.971 179.785H131.212C132.611 179.71 133.948 179.186 135.027 178.292C135.189 178.159 135.344 178.018 135.492 177.868C135.615 177.749 135.731 177.622 135.84 177.489C135.923 177.396 136 177.299 136.07 177.196C136.116 177.141 136.156 177.087 136.193 177.033C136.267 176.935 136.333 176.831 136.392 176.723C136.483 176.597 136.563 176.464 136.633 176.326C136.707 176.193 136.773 176.056 136.832 175.916C136.861 175.854 136.885 175.785 136.925 175.717C136.979 175.578 137.024 175.439 137.07 175.3C137.134 175.101 137.195 174.891 137.241 174.684C137.269 174.572 137.289 174.458 137.303 174.344C137.312 174.316 137.317 174.287 137.319 174.258C137.327 174.236 137.333 174.213 137.335 174.189C137.335 174.111 137.356 174.041 137.364 173.964V173.918C137.393 173.703 137.407 173.486 137.404 173.268C137.407 173.168 137.402 173.068 137.388 172.968V172.898C137.388 172.8 137.38 172.702 137.364 172.604C137.312 172.068 137.19 171.541 137.001 171.036C136.896 170.733 136.763 170.441 136.603 170.163C136.457 169.883 136.287 169.617 136.094 169.368C136.044 169.295 135.99 169.225 135.931 169.159C135.907 169.135 135.885 169.103 135.854 169.073C135.751 168.938 135.637 168.811 135.514 168.694C135.422 168.602 135.315 168.509 135.221 168.409C135.128 168.31 134.973 168.193 134.842 168.099C134.71 168.006 134.625 167.938 134.51 167.861C134.338 167.736 134.158 167.625 133.969 167.529C133.793 167.426 133.61 167.338 133.42 167.265C133.201 167.171 132.976 167.088 132.748 167.018C132.671 166.989 132.59 166.968 132.508 166.956C132.295 166.896 132.079 166.849 131.86 166.817C131.75 166.793 131.643 166.785 131.528 166.771H131.512C131.497 166.775 131.481 166.775 131.466 166.771H131.512H131.528C131.643 166.785 131.75 166.793 131.86 166.817C132.079 166.849 132.295 166.896 132.508 166.956C132.59 166.968 132.671 166.989 132.748 167.018C132.976 167.088 133.201 167.171 133.42 167.265C133.61 167.338 133.793 167.426 133.969 167.529C134.158 167.625 134.338 167.736 134.51 167.861C134.625 167.938 134.71 168.006 134.842 168.099C134.973 168.193 135.128 168.31 135.221 168.409C135.315 168.509 135.422 168.602 135.514 168.694C135.637 168.811 135.751 168.938 135.854 169.073C135.885 169.103 135.907 169.135 135.931 169.159C135.99 169.225 136.044 169.295 136.094 169.368C136.287 169.617 136.457 169.883 136.603 170.163C136.763 170.441 136.896 170.733 137.001 171.036C137.19 171.541 137.312 172.068 137.364 172.604C137.38 172.702 137.388 172.8 137.388 172.898V172.968C137.402 173.068 137.407 173.168 137.404 173.268C137.407 173.486 137.393 173.703 137.364 173.918V173.964C137.356 174.041 137.335 174.111 137.335 174.189C137.333 174.213 137.327 174.236 137.319 174.258C137.317 174.287 137.312 174.316 137.303 174.344C137.289 174.458 137.269 174.572 137.241 174.684C137.195 174.891 137.134 175.101 137.07 175.3C137.024 175.439 136.979 175.578 136.925 175.717C136.885 175.785 136.861 175.854 136.832 175.916C136.773 176.056 136.707 176.193 136.633 176.326C136.563 176.464 136.483 176.597 136.392 176.723C136.333 176.831 136.267 176.935 136.193 177.033C136.156 177.087 136.116 177.141 136.07 177.196C136 177.299 135.923 177.396 135.84 177.489C135.731 177.622 135.615 177.749 135.492 177.868C135.344 178.018 135.189 178.159 135.027 178.292C133.948 179.186 132.611 179.71 131.212 179.785H141.971C141.996 179.781 142.022 179.781 142.048 179.785H141.971C142 179.792 142.03 179.797 142.06 179.799Z" fill="#FFA7A7"/>
<path d="M148.273 173.366C148.273 173.489 148.273 173.62 148.257 173.744C148.241 173.952 148.219 174.153 148.187 174.354C148.171 174.461 148.149 174.571 148.125 174.678C148.08 174.877 148.026 175.095 147.964 175.296C147.895 175.518 147.812 175.735 147.716 175.946C147.685 176.029 147.647 176.109 147.601 176.185C147.601 176.209 147.585 176.225 147.569 176.247C147.523 176.348 147.469 176.445 147.416 176.541C147.33 176.696 147.237 176.849 147.137 176.996C147.02 177.175 146.889 177.336 146.758 177.499C146.624 177.661 146.482 177.815 146.332 177.962C146.175 178.122 146.008 178.272 145.831 178.411L145.633 178.572C145.406 178.743 145.169 178.898 144.921 179.036C144.806 179.097 144.682 179.161 144.559 179.223C144.547 179.231 144.534 179.236 144.519 179.236C144.38 179.306 144.241 179.362 144.102 179.415C143.963 179.469 143.823 179.523 143.678 179.568C143.531 179.608 143.384 179.654 143.237 179.686L143.116 179.708C143 179.733 142.885 179.755 142.768 179.773C142.56 179.809 142.35 179.833 142.14 179.847C142.012 179.86 141.883 179.865 141.754 179.863C141.754 179.863 141.73 179.863 141.722 179.863L128.283 179.797L125.116 179.781L104.008 179.674C103.93 179.672 103.852 179.667 103.775 179.658C103.598 179.658 103.427 179.642 103.25 179.628C104.78 179.446 106.196 178.733 107.254 177.613C108.311 176.493 108.943 175.038 109.037 173.501C109.037 173.424 109.037 173.338 109.037 173.253V173.169C109.039 171.654 108.517 170.186 107.559 169.013C106.602 167.839 105.267 167.034 103.783 166.732C103.628 166.7 103.473 166.678 103.312 166.654C103.466 166.637 103.62 166.627 103.775 166.625C103.829 166.621 103.884 166.621 103.938 166.625H104.069L125.178 166.732L129.949 166.756H131.51H131.641L141.78 166.809C142.113 166.811 142.445 166.837 142.774 166.887C143.614 167.025 144.419 167.324 145.145 167.768C145.239 167.821 145.322 167.883 145.408 167.937C145.666 168.113 145.911 168.307 146.141 168.517C146.219 168.587 146.289 168.656 146.366 168.734C146.955 169.331 147.427 170.033 147.758 170.803L147.875 171.106C147.914 171.204 147.947 171.304 147.974 171.406C148.173 172.04 148.273 172.701 148.273 173.366Z" stroke="black" stroke-width="0.7" stroke-linecap="square" stroke-linejoin="round"/>
<path d="M137.394 173.248C137.395 173.466 137.385 173.683 137.362 173.898C137.362 173.914 137.362 173.928 137.362 173.944C137.347 174.046 137.333 174.143 137.317 174.238C137.315 174.267 137.31 174.296 137.301 174.324C137.287 174.438 137.267 174.552 137.239 174.664C137.193 174.863 137.132 175.079 137.068 175.28C137.022 175.419 136.977 175.558 136.923 175.698C136.883 175.767 136.859 175.837 136.83 175.896C136.771 176.037 136.705 176.174 136.631 176.306C136.561 176.445 136.481 176.578 136.39 176.704C136.331 176.812 136.265 176.915 136.192 177.014C136.154 177.067 136.114 177.121 136.068 177.177C135.998 177.279 135.921 177.377 135.838 177.469C135.729 177.602 135.613 177.729 135.49 177.849C135.342 177.995 135.187 178.134 135.025 178.264C133.949 179.163 132.612 179.692 131.212 179.771C131.142 179.771 131.072 179.771 131.013 179.771H104.038C103.791 179.771 103.537 179.757 103.28 179.733C103.447 179.713 103.612 179.685 103.775 179.648C103.788 179.652 103.802 179.652 103.815 179.648H103.829C105.082 179.386 106.232 178.765 107.137 177.859L107.153 177.843C108.303 176.68 108.976 175.128 109.037 173.493C109.037 173.415 109.037 173.33 109.037 173.244V173.236C109.025 171.643 108.433 170.109 107.372 168.92C106.311 167.731 104.854 166.969 103.272 166.775C103.443 166.754 103.612 166.746 103.783 166.738C103.826 166.73 103.871 166.73 103.914 166.738C103.917 166.736 103.919 166.735 103.922 166.735C103.925 166.735 103.928 166.736 103.93 166.738C103.963 166.734 103.997 166.734 104.03 166.738H130.864C131.051 166.738 131.227 166.738 131.406 166.762H131.468C131.483 166.766 131.499 166.766 131.514 166.762H131.546L131.862 166.807C132.081 166.84 132.297 166.886 132.51 166.946C132.587 166.962 132.673 166.984 132.75 167.008C132.978 167.078 133.203 167.161 133.422 167.255C133.607 167.332 133.794 167.426 133.971 167.519C134.158 167.618 134.338 167.729 134.512 167.851C134.627 167.929 134.736 168.004 134.844 168.09C134.951 168.175 135.098 168.288 135.223 168.4C135.349 168.511 135.422 168.598 135.516 168.684C135.633 168.809 135.748 168.932 135.856 169.064C135.887 169.093 135.909 169.125 135.933 169.149L136.096 169.358C136.282 169.612 136.452 169.878 136.605 170.153C136.755 170.436 136.888 170.727 137.003 171.026C137.185 171.533 137.307 172.059 137.366 172.594C137.366 172.696 137.382 172.793 137.39 172.889V172.958C137.394 173.048 137.394 173.149 137.394 173.248Z" stroke="black" stroke-width="0.7" stroke-linecap="square" stroke-linejoin="round"/>
<path d="M142.354 189.041H103.799C102.94 189.064 102.083 188.942 101.264 188.679C101.101 188.617 100.948 188.556 100.801 188.48C100.654 188.403 100.523 188.325 100.392 188.248C100.261 188.17 100.145 188.071 100.028 187.977C99.9126 187.876 99.8053 187.779 99.7039 187.675C99.1747 187.147 98.7825 186.497 98.5608 185.783C98.42 185.338 98.3497 184.873 98.3521 184.407C98.3507 184.226 98.3612 184.045 98.3839 183.866C98.4131 183.614 98.4672 183.366 98.5449 183.125C98.6524 182.743 98.8196 182.381 99.0399 182.051C99.1657 181.836 99.3158 181.636 99.4872 181.455C99.5926 181.337 99.7039 181.226 99.8212 181.121C100.763 180.28 102.131 179.761 103.823 179.761H142.354C142.199 179.761 142.092 179.761 142.015 179.761C141.989 179.757 141.963 179.757 141.937 179.761C141.859 179.761 141.875 179.761 141.913 179.761C141.915 179.763 141.918 179.764 141.921 179.764C141.924 179.764 141.927 179.763 141.929 179.761C141.947 179.764 141.965 179.764 141.983 179.761C141.999 179.761 142.007 179.761 142.022 179.761C141.937 179.777 141.851 179.785 141.766 179.807H141.748C141.748 179.807 141.724 179.807 141.716 179.807C140.662 180.016 139.714 180.584 139.031 181.413C138.348 182.243 137.972 183.283 137.969 184.357C137.975 185.49 138.393 186.582 139.145 187.43C139.897 188.277 140.932 188.822 142.056 188.963C141.867 189.035 141.69 189.041 142.354 189.041Z" stroke="black" stroke-width="0.7" stroke-linecap="square" stroke-linejoin="round"/>
<path d="M142.044 189.019C141.867 189.035 141.69 189.041 141.511 189.041H114.886C114.279 189.04 113.677 188.92 113.116 188.687C112.556 188.453 112.046 188.112 111.618 187.681C111.089 187.152 110.696 186.503 110.475 185.788C110.337 185.343 110.27 184.879 110.276 184.412C110.278 183.185 110.766 182.008 111.633 181.139C112.501 180.271 113.676 179.781 114.904 179.776H141.511C141.643 179.776 141.782 179.776 141.909 179.792C141.932 179.796 141.956 179.796 141.979 179.792C141.994 179.792 142.002 179.792 142.018 179.792C141.933 179.808 141.847 179.816 141.762 179.838H141.748C141.748 179.838 141.724 179.838 141.716 179.838C140.663 180.048 139.714 180.615 139.031 181.445C138.348 182.274 137.973 183.314 137.969 184.389C137.975 185.522 138.393 186.614 139.145 187.461C139.897 188.309 140.932 188.854 142.056 188.995L142.044 189.019Z" stroke="black" stroke-width="0.7" stroke-linecap="square" stroke-linejoin="round"/>
<path d="M110.258 184.412C110.258 185.64 110.746 186.817 111.614 187.685C112.482 188.553 113.659 189.041 114.886 189.041H103.799C101.682 189.041 100.523 188.524 99.68 187.681C99.2504 187.252 98.9098 186.742 98.6778 186.182C98.4458 185.621 98.3269 185.02 98.3281 184.412C98.3281 181.864 100.408 179.776 103.799 179.776H114.886C113.659 179.781 112.483 180.271 111.616 181.139C110.748 182.008 110.26 183.185 110.258 184.412Z" stroke="black" stroke-width="0.7" stroke-linecap="square" stroke-linejoin="round"/>
<path d="M142.354 189.041H141.511C141.69 189.041 141.867 189.041 142.044 189.019C141.867 189.035 141.69 189.041 142.354 189.041Z" stroke="black" stroke-width="0.7" stroke-linecap="square" stroke-linejoin="round"/>
<path d="M141.983 179.796C141.829 179.796 141.666 179.773 141.511 179.773H142.354C141.766 179.777 141.835 179.796 141.983 179.796Z" stroke="black" stroke-width="0.7" stroke-linecap="square" stroke-linejoin="round"/>
<path opacity="0.54" d="M26.4441 171.602L12.6434 136.248C12.4724 135.564 12.4596 134.85 12.6058 134.16C12.7521 133.47 13.0536 132.823 13.4875 132.267C13.9213 131.712 14.4761 131.262 15.1098 130.953C15.7434 130.644 16.4392 130.483 17.1442 130.483H71.9693C73.2001 130.482 74.395 130.896 75.362 131.658C76.3288 132.42 77.0112 133.485 77.2991 134.681L92.4079 170.032C92.5717 170.714 92.5787 171.425 92.4284 172.11C92.2781 172.795 91.9741 173.437 91.5397 173.988C91.1054 174.539 90.5517 174.984 89.9205 175.29C89.2891 175.597 88.5967 175.755 87.8951 175.755H31.758C30.536 175.755 29.3489 175.346 28.386 174.594C27.4232 173.841 26.7395 172.788 26.4441 171.602Z" fill="white"/>
<path d="M26.4441 171.602L12.6434 136.248C12.4724 135.564 12.4596 134.85 12.6058 134.16C12.7521 133.47 13.0536 132.823 13.4875 132.267C13.9213 131.712 14.4761 131.262 15.1098 130.953C15.7434 130.644 16.4392 130.483 17.1442 130.483H71.9693C73.2001 130.482 74.395 130.896 75.362 131.658C76.3288 132.42 77.0112 133.485 77.2991 134.681L92.4079 170.032C92.5717 170.714 92.5787 171.425 92.4284 172.11C92.2781 172.795 91.9741 173.437 91.5397 173.988C91.1054 174.539 90.5517 174.984 89.9205 175.29C89.2891 175.597 88.5967 175.755 87.8951 175.755H31.758C30.536 175.755 29.3489 175.346 28.386 174.594C27.4232 173.841 26.7395 172.788 26.4441 171.602Z" fill="#FFA7A7"/>
<path d="M26.4441 171.602L12.6434 136.248C12.4724 135.564 12.4596 134.85 12.6058 134.16C12.7521 133.47 13.0536 132.823 13.4875 132.267C13.9213 131.712 14.4761 131.262 15.1098 130.953C15.7434 130.644 16.4392 130.483 17.1442 130.483H71.9693C73.2001 130.482 74.395 130.896 75.362 131.658C76.3288 132.42 77.0112 133.485 77.2991 134.681L92.4079 170.032C92.5717 170.714 92.5787 171.425 92.4284 172.11C92.2781 172.795 91.9741 173.437 91.5397 173.988C91.1054 174.539 90.5517 174.984 89.9205 175.29C89.2891 175.597 88.5967 175.755 87.8951 175.755H31.758C30.536 175.755 29.3489 175.346 28.386 174.594C27.4232 173.841 26.7395 172.788 26.4441 171.602Z" stroke="black" stroke-width="0.7" stroke-linecap="square" stroke-linejoin="round"/>
<path d="M28.4598 170.171L15.7366 137.554C15.5787 136.923 15.5665 136.265 15.701 135.628C15.8355 134.992 16.1131 134.395 16.5129 133.882C16.9126 133.37 17.4239 132.955 18.0079 132.669C18.5919 132.383 19.2334 132.235 19.8836 132.234H70.4543C71.5899 132.234 72.6922 132.616 73.584 133.319C74.4756 134.022 75.105 135.004 75.3706 136.108L89.3085 168.712C89.4596 169.341 89.4662 169.996 89.3276 170.629C89.1888 171.261 88.9087 171.854 88.5079 172.362C88.1074 172.87 87.5966 173.281 87.0142 173.564C86.4319 173.847 85.7929 173.994 85.1456 173.994H33.3662C32.2394 173.994 31.1446 173.618 30.2558 172.926C29.3669 172.233 28.7349 171.264 28.4598 170.171Z" fill="#FFA7A7"/>
<path d="M66.8005 138.231C66.1305 137.223 65.0351 136.776 64.3512 137.237C63.6674 137.698 63.6574 138.877 64.3274 139.885C64.433 140.039 64.5514 140.183 64.6813 140.317L59.7113 150.807C58.9161 150.278 58.0473 150.147 57.4231 150.565C57.2215 150.711 57.0545 150.9 56.934 151.118C56.8133 151.337 56.7422 151.578 56.7253 151.827L53.3298 150.68L50.3617 149.686L49.3915 149.368C49.2699 149.004 49.1009 148.657 48.8886 148.336C47.9463 146.921 46.4076 146.293 45.4474 146.931C44.4872 147.569 44.4772 149.201 45.3937 150.607L39.7458 158.326C38.5132 157.314 37.06 157.002 36.0541 157.67C34.6863 158.582 34.6625 160.958 36.0083 162.978C36.062 163.057 36.1236 163.125 36.1793 163.2L32.4081 168.353L32.3743 168.403C32.2681 168.546 32.192 168.71 32.151 168.883C32.1099 169.057 32.1045 169.237 32.1353 169.413C32.1661 169.588 32.2323 169.756 32.3299 169.905C32.4275 170.055 32.5544 170.182 32.7031 170.281C32.8516 170.38 33.0188 170.447 33.1943 170.479C33.3697 170.511 33.5498 170.507 33.7237 170.467C33.8975 170.427 34.0615 170.352 34.2054 170.247C34.3493 170.141 34.4704 170.008 34.5611 169.854L37.9148 164.807C38.9724 165.421 40.1016 165.538 40.9227 164.99C42.2308 164.119 42.2924 161.916 41.1215 159.96L46.5388 151.783C47.334 152.326 48.2206 152.465 48.8528 152.046C49.2063 151.797 49.447 151.418 49.5228 150.992L49.9204 151.105L52.9401 151.931L56.8048 152.972C56.9223 153.435 57.1171 153.875 57.3813 154.272C58.3216 155.686 59.8623 156.316 60.8225 155.678C61.7828 155.04 61.7947 153.376 60.8544 151.962C60.7156 151.757 60.5599 151.564 60.3892 151.384L65.1186 140.69C65.6892 141.088 66.3114 141.177 66.7706 140.877C67.4645 140.434 67.4744 139.241 66.8005 138.231Z" fill="white"/>
<path d="M30.8176 138.81H23.4918C23.1549 138.812 22.8248 138.714 22.5424 138.531C22.2597 138.347 22.037 138.085 21.9014 137.776C21.8597 137.682 21.8374 137.58 21.8358 137.476C21.838 137.276 21.9185 137.086 22.0603 136.945C22.2022 136.804 22.3936 136.725 22.5932 136.725H30.3842C30.0224 137.343 30.2212 138.202 30.8176 138.81Z" fill="#FFE5E5"/>
<path d="M35.5611 138.059C35.5601 138.258 35.4802 138.449 35.3393 138.59C35.1981 138.73 35.0071 138.81 34.8077 138.81H30.8178C30.2094 138.202 30.0226 137.343 30.3903 136.725H33.9091C34.2455 136.723 34.5751 136.819 34.8574 137.002C35.1399 137.184 35.3631 137.445 35.4995 137.752C35.5407 137.849 35.5615 137.953 35.5611 138.059Z" fill="#FFA7A7"/>
<path d="M33.7281 138.81C33.7067 138.85 33.6828 138.888 33.6566 138.925C33.1317 139.639 31.9986 139.707 31.1179 139.062C31.0125 138.986 30.9133 138.902 30.8217 138.81C30.2133 138.202 30.0265 137.343 30.3942 136.725C30.4141 136.684 30.4382 136.645 30.4658 136.609C30.9847 135.892 32.1178 135.83 32.9985 136.468C33.1055 136.545 33.2061 136.631 33.2987 136.725C33.9031 137.335 34.0899 138.186 33.7281 138.81Z" fill="white"/>
<path d="M37.4037 142.659C37.4021 142.859 37.3216 143.05 37.1798 143.191C37.0379 143.331 36.8461 143.411 36.6463 143.411H28.9547C29.3265 142.786 29.1416 141.935 28.5312 141.325H35.7556C36.0926 141.324 36.4226 141.421 36.7051 141.604C36.9878 141.788 37.2105 142.05 37.346 142.359C37.385 142.454 37.4047 142.556 37.4037 142.659Z" fill="#FFA7A7"/>
<path d="M28.9548 143.417H25.3367C25.0003 143.418 24.6707 143.322 24.3884 143.14C24.1059 142.957 23.8827 142.696 23.7463 142.389C23.7045 142.293 23.6823 142.189 23.6807 142.085C23.6801 141.986 23.6992 141.888 23.7367 141.796C23.7743 141.705 23.8296 141.622 23.8996 141.551C23.9693 141.481 24.0524 141.426 24.1437 141.388C24.2351 141.35 24.3331 141.331 24.4321 141.331H28.5314C29.1417 141.936 29.3266 142.787 28.9548 143.417Z" fill="#FFE5E5"/>
<path d="M28.9548 143.416C28.9383 143.458 28.9162 143.497 28.8891 143.532C28.3703 144.251 27.2351 144.313 26.3544 143.675C26.2455 143.597 26.1425 143.51 26.0463 143.416C25.4499 142.808 25.2511 141.955 25.6189 141.331C25.6384 141.291 25.6624 141.253 25.6905 141.218C26.2133 140.502 27.3465 140.436 28.2291 141.079C28.3335 141.155 28.4319 141.24 28.5234 141.331C29.1416 141.935 29.3265 142.786 28.9548 143.416Z" fill="white"/>
<path d="M31.5175 147.989H26.9133C26.577 147.99 26.2475 147.893 25.9653 147.71C25.683 147.527 25.4597 147.266 25.3229 146.959C25.2812 146.864 25.2589 146.762 25.2573 146.659C25.2579 146.458 25.3378 146.266 25.4798 146.124C25.6217 145.982 25.814 145.902 26.0148 145.901H31.0802C30.7263 146.516 30.9132 147.368 31.5175 147.989Z" fill="#FFA7A7"/>
<path d="M38.9804 147.231C38.9794 147.43 38.8995 147.621 38.7581 147.761C38.617 147.901 38.426 147.979 38.227 147.979H31.5175C30.9211 147.368 30.7223 146.515 31.088 145.891H37.3324C37.6677 145.891 37.9959 145.989 38.2769 146.172C38.5576 146.356 38.7786 146.618 38.9128 146.925C38.956 147.021 38.979 147.126 38.9804 147.231Z" fill="#FFE5E5"/>
<path d="M34.4219 147.989C34.4024 148.029 34.3784 148.067 34.3504 148.102C33.8315 148.822 32.6983 148.883 31.8176 148.245C31.7119 148.166 31.6117 148.081 31.5175 147.989C30.9211 147.378 30.7223 146.526 31.088 145.901C31.1089 145.862 31.133 145.824 31.1596 145.788C31.6844 145.074 32.8176 145.011 33.6983 145.649C33.8029 145.726 33.9019 145.81 33.9945 145.901C34.5949 146.502 34.7937 147.358 34.4219 147.989Z" fill="white"/>
<path d="M61.2876 169.527H56.6814C56.3451 169.528 56.0156 169.431 55.7333 169.248C55.4509 169.065 55.2278 168.804 55.091 168.497C55.0477 168.403 55.0246 168.3 55.0234 168.197C55.024 167.996 55.1039 167.804 55.2459 167.662C55.3878 167.52 55.5801 167.44 55.7809 167.439H60.8483C60.4964 168.068 60.6833 168.916 61.2876 169.527Z" fill="#FFA7A7"/>
<path d="M79.5674 168.779C79.5672 168.878 79.5475 168.975 79.5095 169.066C79.4718 169.157 79.4163 169.239 79.3465 169.309C79.2767 169.378 79.1938 169.433 79.1028 169.47C79.0119 169.508 78.9143 169.527 78.8159 169.527H61.2877C60.6913 168.916 60.4925 168.064 60.8583 167.439H77.9193C78.2547 167.439 78.5829 167.537 78.8638 167.72C79.1445 167.904 79.3656 168.166 79.4998 168.473C79.5429 168.569 79.566 168.674 79.5674 168.779Z" fill="#FFE5E5"/>
<path d="M64.1922 169.527C64.1727 169.567 64.1487 169.605 64.1206 169.64C63.6018 170.36 62.4686 170.421 61.5879 169.783C61.4818 169.705 61.3816 169.619 61.2877 169.527C60.6913 168.916 60.4925 168.064 60.8583 167.439C60.8792 167.4 60.9032 167.362 60.9299 167.326C61.4547 166.612 62.5879 166.549 63.4686 167.187C63.5731 167.264 63.6721 167.348 63.7648 167.439C64.3731 168.05 64.56 168.906 64.1922 169.527Z" fill="white"/>
</svg>
