<svg width="40" height="40" viewBox="0 0 40 40" fill="none" xmlns="http://www.w3.org/2000/svg">
<rect width="40" height="40" rx="8" fill="#E91313"/>
<g clip-path="url(#clip0_1786_7870)">
<path fill-rule="evenodd" clip-rule="evenodd" d="M20 25C22.7614 25 25 22.7614 25 20C25 17.2386 22.7614 15 20 15C17.2386 15 15 17.2386 15 20C15 22.7614 17.2386 25 20 25ZM20 23.3333C21.8409 23.3333 23.3333 21.8409 23.3333 20C23.3333 18.159 21.8409 16.6667 20 16.6667C18.159 16.6667 16.6667 18.159 16.6667 20C16.6667 21.8409 18.159 23.3333 20 23.3333Z" fill="white"/>
<path d="M25 14.1666C24.5398 14.1666 24.1667 14.5397 24.1667 15C24.1667 15.4602 24.5398 15.8333 25 15.8333C25.4603 15.8333 25.8333 15.4602 25.8333 15C25.8333 14.5397 25.4603 14.1666 25 14.1666Z" fill="white"/>
<path fill-rule="evenodd" clip-rule="evenodd" d="M11.3783 13.5634C10.8333 14.633 10.8333 16.0331 10.8333 18.8334V21.1667C10.8333 23.967 10.8333 25.3671 11.3783 26.4366C11.8577 27.3775 12.6226 28.1424 13.5634 28.6217C14.6329 29.1667 16.0331 29.1667 18.8333 29.1667H21.1667C23.9669 29.1667 25.3671 29.1667 26.4366 28.6217C27.3774 28.1424 28.1423 27.3775 28.6217 26.4366C29.1667 25.3671 29.1667 23.967 29.1667 21.1667V18.8334C29.1667 16.0331 29.1667 14.633 28.6217 13.5634C28.1423 12.6226 27.3774 11.8577 26.4366 11.3783C25.3671 10.8334 23.9669 10.8334 21.1667 10.8334H18.8333C16.0331 10.8334 14.6329 10.8334 13.5634 11.3783C12.6226 11.8577 11.8577 12.6226 11.3783 13.5634ZM21.1667 12.5H18.8333C17.4057 12.5 16.4352 12.5013 15.6851 12.5626C14.9544 12.6223 14.5807 12.7305 14.32 12.8633C13.6928 13.1829 13.1829 13.6929 12.8633 14.3201C12.7305 14.5807 12.6223 14.9544 12.5626 15.6851C12.5013 16.4352 12.5 17.4057 12.5 18.8334V21.1667C12.5 22.5944 12.5013 23.5648 12.5626 24.315C12.6223 25.0457 12.7305 25.4194 12.8633 25.68C13.1829 26.3072 13.6928 26.8171 14.32 27.1367C14.5807 27.2695 14.9544 27.3778 15.6851 27.4375C16.4352 27.4987 17.4057 27.5 18.8333 27.5H21.1667C22.5943 27.5 23.5647 27.4987 24.3149 27.4375C25.0457 27.3778 25.4193 27.2695 25.68 27.1367C26.3072 26.8171 26.8171 26.3072 27.1367 25.68C27.2695 25.4194 27.3777 25.0457 27.4374 24.315C27.4987 23.5648 27.5 22.5944 27.5 21.1667V18.8334C27.5 17.4057 27.4987 16.4352 27.4374 15.6851C27.3777 14.9544 27.2695 14.5807 27.1367 14.3201C26.8171 13.6929 26.3072 13.1829 25.68 12.8633C25.4193 12.7305 25.0457 12.6223 24.3149 12.5626C23.5647 12.5013 22.5943 12.5 21.1667 12.5Z" fill="white"/>
</g>
<defs>
<clipPath id="clip0_1786_7870">
<rect width="20" height="20" fill="white" transform="translate(10 10)"/>
</clipPath>
</defs>
</svg>
