<svg width="40" height="40" viewBox="0 0 40 40" fill="none" xmlns="http://www.w3.org/2000/svg">
<rect width="40" height="40" rx="8" fill="#E91313"/>
<path d="M26.5562 28.75H13.4375C13.148 28.7596 12.8596 28.709 12.5907 28.6014C12.3217 28.4939 12.078 28.3316 11.875 28.125C11.67 27.9234 11.5087 27.6818 11.4011 27.4151C11.2936 27.1484 11.2422 26.8625 11.25 26.575V13.4375C11.2404 13.148 11.291 12.8597 11.3986 12.5907C11.5062 12.3218 11.6684 12.0781 11.875 11.875C12.078 11.6685 12.3217 11.5062 12.5907 11.3987C12.8596 11.2911 13.148 11.2405 13.4375 11.25H26.5625C26.852 11.2405 27.1404 11.2911 27.4093 11.3987C27.6783 11.5062 27.922 11.6685 28.125 11.875C28.3316 12.0781 28.4938 12.3218 28.6014 12.5907C28.709 12.8597 28.7596 13.148 28.75 13.4375V26.5625C28.7467 27.1428 28.5143 27.6982 28.1034 28.1079C27.6926 28.5176 27.1365 28.7484 26.5562 28.75ZM15.6937 17.1188C15.8761 17.1271 16.0583 17.0994 16.2299 17.0372C16.4015 16.975 16.5591 16.8795 16.6937 16.7563C16.8138 16.6473 16.9094 16.5141 16.974 16.3654C17.0387 16.2167 17.071 16.0559 17.0688 15.8938C17.058 15.5562 16.9169 15.2358 16.675 15C16.417 14.7672 16.0785 14.6439 15.7312 14.6563C15.3663 14.6397 15.0088 14.7626 14.7312 15C14.6118 15.1152 14.5183 15.2545 14.4569 15.4086C14.3955 15.5627 14.3676 15.7281 14.375 15.8938C14.3723 16.0543 14.4026 16.2136 14.4638 16.3619C14.5251 16.5103 14.6161 16.6445 14.7312 16.7563C14.859 16.8784 15.0101 16.9735 15.1755 17.0358C15.3409 17.098 15.5172 17.1263 15.6937 17.1188ZM16.875 18.125H14.4937V25.3375H16.875V18.125ZM25.5312 21.2125C25.6134 20.3095 25.3348 19.4107 24.7563 18.7125C24.501 18.4511 24.1942 18.2455 23.8553 18.1089C23.5163 17.9722 23.1527 17.9075 22.7875 17.9188C22.266 17.8737 21.746 18.0204 21.325 18.3313C21.0535 18.5691 20.8177 18.8449 20.625 19.15V18.125H18.2437V25.3375H20.625V20.9938C20.6212 20.9002 20.6428 20.8073 20.6875 20.725C20.7843 20.4864 20.9339 20.2727 21.125 20.1C21.3461 19.9084 21.6328 19.8098 21.925 19.825C22.1084 19.8093 22.2926 19.8447 22.457 19.9275C22.6215 20.0103 22.7597 20.1371 22.8562 20.2938C23.053 20.6577 23.1481 21.0679 23.1313 21.4813V25.325H25.5375L25.5312 21.2125ZM20.625 19.1875C20.6238 19.1824 20.6239 19.177 20.6254 19.1719C20.6269 19.1668 20.6296 19.1621 20.6333 19.1584C20.6371 19.1546 20.6417 19.1519 20.6468 19.1504C20.6519 19.149 20.6573 19.1488 20.6625 19.15V19.1875H20.625Z" fill="white"/>
</svg>
