<svg width="265" height="257" viewBox="0 0 265 257" fill="none" xmlns="http://www.w3.org/2000/svg">
<path d="M140.405 257C209.058 257 264.711 225.126 264.711 185.806C264.711 146.487 209.058 114.613 140.405 114.613C71.7529 114.613 16.0991 146.487 16.0991 185.806C16.0991 225.126 71.7529 257 140.405 257Z" fill="#FFC8C8"/>
<path d="M162.724 244.83L223.709 209.91C225.045 209.145 225.045 207.903 223.709 207.138L108.248 141.005C107.499 140.628 106.67 140.431 105.829 140.431C104.988 140.431 104.159 140.628 103.409 141.005L42.4242 175.926C41.0887 176.691 41.0887 177.932 42.4242 178.697L157.885 244.83C158.635 245.207 159.464 245.404 160.304 245.404C161.145 245.404 161.974 245.207 162.724 244.83Z" fill="#BFA9A9"/>
<path d="M54.0859 177.248L58.8691 174.51C58.8691 174.51 60.0369 164.356 59.2602 156.49C58.1427 145.443 50.9679 132.146 42.3851 135.266C33.8022 138.387 46.2965 149.645 49.0904 159.018C51.8843 168.391 54.0859 177.248 54.0859 177.248Z" fill="#FF5555"/>
<path opacity="0.15" d="M54.0859 177.248L58.8691 174.51C58.8691 174.51 60.0369 164.356 59.2602 156.49C58.1427 145.443 50.9679 132.146 42.3851 135.266C33.8022 138.387 46.2965 149.645 49.0904 159.018C51.8843 168.391 54.0859 177.248 54.0859 177.248Z" fill="#555555"/>
<path d="M56.5895 176.094C56.5134 176.091 56.4415 176.059 56.3892 176.004C56.337 175.949 56.3086 175.876 56.3101 175.8C57.1483 151.245 44.8551 138.89 44.7042 138.768C44.677 138.742 44.6554 138.71 44.6407 138.676C44.6259 138.641 44.6183 138.603 44.6183 138.566C44.6183 138.528 44.6259 138.491 44.6407 138.456C44.6554 138.421 44.677 138.39 44.7042 138.363C44.7586 138.31 44.8319 138.281 44.9082 138.281C44.9845 138.281 45.0578 138.31 45.1121 138.363C45.2351 138.491 57.7406 151.018 56.8912 175.823C56.8869 175.898 56.8528 175.969 56.7964 176.02C56.7399 176.07 56.6656 176.097 56.5895 176.094Z" fill="white"/>
<path d="M51.5604 179.207L54.913 177.256C54.913 177.256 55.4718 170.288 52.0521 161.824C49.0514 154.452 41.6141 148.338 37.8703 149.63C34.1264 150.921 34.2382 153.532 36.0654 156.303C37.8926 159.075 48.99 165.643 51.5604 179.207Z" fill="#FF5555"/>
<path d="M53.3321 178.479C53.255 178.479 53.1811 178.448 53.1266 178.394C53.0721 178.34 53.0415 178.267 53.0415 178.191C53.1086 162.67 38.4126 152.172 38.2618 152.067C38.2 152.022 38.1583 151.955 38.1458 151.881C38.1333 151.806 38.1508 151.729 38.1947 151.668C38.2164 151.637 38.2442 151.61 38.2763 151.59C38.3084 151.57 38.3443 151.556 38.3818 151.55C38.4192 151.544 38.4576 151.545 38.4946 151.554C38.5316 151.563 38.5664 151.579 38.5971 151.601C38.7479 151.706 53.6841 162.371 53.6226 178.207C53.6171 178.28 53.5842 178.349 53.5304 178.399C53.4767 178.449 53.4059 178.478 53.3321 178.479Z" fill="white"/>
<path d="M217.367 30.3266L222.184 33.098C222.155 32.8885 222.14 32.6775 222.139 32.4661V31.0416C222.139 28.5805 223.882 27.5828 226.051 28.8244C226.975 29.3897 227.766 30.1459 228.369 31.0416C228.722 27.9486 231.163 26.7957 234.142 28.4974C237.355 30.3376 239.964 34.8163 239.964 38.4747V40.5422C239.985 41.3694 239.815 42.1904 239.467 42.9423L243.468 45.2315C244.095 45.6372 244.618 46.1838 244.992 46.8271C245.367 47.4704 245.584 48.1923 245.625 48.9342C245.625 50.3033 244.658 50.852 243.468 50.1703L217.367 35.2653C216.74 34.8596 216.217 34.313 215.843 33.6697C215.468 33.0264 215.251 32.3045 215.21 31.5626C215.21 30.1935 216.177 29.6392 217.367 30.3266Z" fill="#FDBEBE"/>
<path d="M197.402 42.6214L200.928 44.639C200.92 44.4857 200.92 44.3322 200.928 44.1789V43.1646C200.928 41.3576 202.202 40.6259 203.778 41.5017C204.447 41.9185 205.018 42.4722 205.454 43.1258C205.711 40.8532 207.505 40.0106 209.684 41.2578C210.926 42.0609 211.959 43.1427 212.701 44.4158C213.443 45.6889 213.871 47.1174 213.953 48.5856V50.1043C213.967 50.7097 213.843 51.3103 213.59 51.8614L216.518 53.5243C216.979 53.8211 217.363 54.2218 217.639 54.6938C217.915 55.1658 218.074 55.6957 218.105 56.2404C218.105 57.2436 217.395 57.6483 216.518 57.1439L197.402 46.2464C196.941 45.9481 196.558 45.5462 196.283 45.0733C196.008 44.6004 195.85 44.0699 195.821 43.5249C195.798 42.5271 196.502 42.128 197.402 42.6214Z" fill="#FDBEBE"/>
<path d="M220.011 198.033C220.882 198.698 220.787 199.646 219.737 200.25L162.199 233.214C161.55 233.539 160.834 233.709 160.107 233.709C159.38 233.709 158.663 233.539 158.014 233.214L47.9791 170.207C46.9118 169.597 46.828 168.639 47.7332 167.99C47.1919 168.395 46.7461 168.913 46.4267 169.506C46.1073 170.1 45.922 170.755 45.8837 171.427V174.17C45.9236 174.892 46.134 175.594 46.4981 176.22C46.8621 176.846 47.3694 177.378 47.9791 177.773L157.975 240.758C158.624 241.086 159.342 241.257 160.07 241.257C160.799 241.257 161.517 241.086 162.166 240.758L219.72 207.799C220.33 207.405 220.837 206.874 221.202 206.249C221.566 205.624 221.776 204.923 221.815 204.202V201.431C221.776 200.769 221.594 200.124 221.283 199.538C220.972 198.952 220.538 198.439 220.011 198.033Z" fill="#455A64"/>
<path d="M219.754 197.85L109.724 134.843C109.076 134.518 108.359 134.348 107.632 134.348C106.905 134.348 106.188 134.518 105.539 134.843L47.9849 167.812C46.8283 168.472 46.8283 169.547 47.9849 170.207L157.986 233.214C158.635 233.539 159.352 233.708 160.079 233.708C160.806 233.708 161.523 233.539 162.172 233.214L219.726 200.244C220.871 199.585 220.871 198.509 219.754 197.85ZM204.829 192.756C205.818 193.31 205.818 194.241 204.829 194.807L152.493 224.788C151.936 225.067 151.321 225.212 150.697 225.212C150.073 225.212 149.458 225.067 148.901 224.788L63.2284 175.711C62.2394 175.157 62.2394 174.22 63.2284 173.655L115.569 143.679C116.558 143.124 117.592 142.781 118.581 143.346L204.829 192.756Z" fill="#37474F"/>
<path d="M47.7332 167.953C47.1919 168.358 46.7461 168.876 46.4267 169.469C46.1073 170.062 45.922 170.718 45.8837 171.39V174.133C45.924 174.855 46.1347 175.557 46.4986 176.182C46.8626 176.808 47.3697 177.34 47.9791 177.736L157.975 240.759C158.622 241.098 159.344 241.269 160.076 241.258V233.709C159.347 233.722 158.626 233.553 157.98 233.215L47.9791 170.209C46.9118 169.616 46.828 168.64 47.7332 167.953Z" fill="#263238"/>
<path d="M82.2932 154.563C83.0699 154.12 83.0699 153.399 82.2932 152.956C81.8599 152.739 81.3815 152.626 80.8962 152.626C80.411 152.626 79.9325 152.739 79.4993 152.956C78.7226 153.399 78.7226 154.12 79.4993 154.563C79.9325 154.78 80.411 154.893 80.8962 154.893C81.3815 154.893 81.8599 154.78 82.2932 154.563Z" fill="#555555"/>
<path d="M188.82 214.856C190.647 213.814 190.647 212.118 188.82 211.075C187.796 210.557 186.664 210.286 185.514 210.286C184.365 210.286 183.233 210.557 182.209 211.075C180.382 212.118 180.382 213.814 182.209 214.856C183.233 215.374 184.365 215.645 185.514 215.645C186.664 215.645 187.796 215.374 188.82 214.856V214.856Z" stroke="#E6E6E6" stroke-width="0.106093" stroke-miterlimit="10"/>
<path d="M80.8911 159.899L91.7314 153.696C92.374 153.325 92.4076 152.743 91.8041 152.394C91.4521 152.228 91.0661 152.145 90.6763 152.151C90.2866 152.158 89.9037 152.254 89.5578 152.433L78.7175 158.635C78.0749 159.007 78.0413 159.589 78.6448 159.938C78.9968 160.104 79.3828 160.187 79.7726 160.18C80.1623 160.174 80.5452 160.077 80.8911 159.899Z" fill="#555555"/>
<path d="M118.581 143.37C117.592 142.816 116.558 143.132 115.569 143.703L63.2284 173.679C62.2393 174.233 62.2393 175.164 63.2284 175.735L148.878 224.785C149.435 225.063 150.051 225.209 150.675 225.209C151.299 225.209 151.914 225.063 152.471 224.785L204.806 194.803C205.801 194.249 205.801 193.317 204.806 192.752L118.581 143.37Z" fill="#FF5555"/>
<path opacity="0.85" d="M118.581 143.37C117.592 142.816 116.558 143.132 115.569 143.703L63.2284 173.679C62.2393 174.233 62.2393 175.164 63.2284 175.735L148.878 224.785C149.435 225.063 150.051 225.209 150.675 225.209C151.299 225.209 151.914 225.063 152.471 224.785L204.806 194.803C205.801 194.249 205.801 193.317 204.806 192.752L118.581 143.37Z" fill="white"/>
<path d="M69.2569 176.37L68.6982 176.048C68.6725 176.039 68.6504 176.022 68.6347 176C68.6191 175.977 68.6107 175.951 68.6107 175.924C68.6107 175.896 68.6191 175.87 68.6347 175.848C68.6504 175.825 68.6725 175.808 68.6982 175.799L68.7596 175.766C68.8267 175.73 68.9015 175.712 68.9775 175.712C69.0535 175.712 69.1284 175.73 69.1955 175.766L69.7542 176.082C69.8716 176.154 69.8716 176.264 69.7542 176.331L69.6928 176.37C69.6249 176.403 69.5504 176.42 69.4749 176.42C69.3993 176.42 69.3248 176.403 69.2569 176.37Z" fill="#455A64"/>
<path d="M70.2516 175.798L69.2849 175.244C69.1676 175.178 69.1676 175.067 69.2849 174.995L69.3464 174.962C69.4143 174.929 69.4888 174.912 69.5643 174.912C69.6398 174.912 69.7143 174.929 69.7822 174.962L70.7489 175.516C70.8663 175.582 70.8663 175.693 70.7489 175.765L70.6874 175.798C70.6196 175.831 70.545 175.848 70.4695 175.848C70.394 175.848 70.3195 175.831 70.2516 175.798Z" fill="#455A64"/>
<path d="M71.2467 175.227L69.8777 174.446C69.7548 174.374 69.7548 174.263 69.8777 174.196L69.9392 174.158C70.0071 174.125 70.0816 174.108 70.1571 174.108C70.2326 174.108 70.3072 174.125 70.375 174.158L71.744 174.945C71.7697 174.954 71.7918 174.971 71.8075 174.993C71.8231 175.016 71.8315 175.042 71.8315 175.069C71.8315 175.097 71.8231 175.123 71.8075 175.145C71.7918 175.168 71.7697 175.185 71.744 175.194L71.6826 175.227C71.6155 175.263 71.5407 175.281 71.4647 175.281C71.3887 175.281 71.3138 175.263 71.2467 175.227Z" fill="#455A64"/>
<path d="M72.2353 174.663L69.8716 173.305C69.7487 173.239 69.7487 173.128 69.8716 173.056L69.9331 173.023C70.0006 172.988 70.0753 172.971 70.151 172.971C70.2268 172.971 70.3014 172.988 70.3689 173.023L72.727 174.375C72.8499 174.447 72.8499 174.558 72.727 174.624L72.6711 174.663C72.6032 174.696 72.5287 174.713 72.4532 174.713C72.3777 174.713 72.3031 174.696 72.2353 174.663Z" fill="#455A64"/>
<path d="M75.091 173.211C75.0533 173.215 75.0154 173.205 74.9848 173.183L74.6384 172.984L73.5208 173.621C73.4968 173.637 73.4686 173.646 73.4398 173.646C73.4109 173.646 73.3827 173.637 73.3587 173.621L73.2302 173.549L73.1743 173.51V173.455L73.1185 172.063C73.1148 172.043 73.1148 172.023 73.1185 172.002C73.1369 171.981 73.1598 171.964 73.1855 171.953L73.3364 171.864C73.3759 171.841 73.4196 171.826 73.4649 171.82C73.5063 171.82 73.5468 171.832 73.5823 171.853L74.7948 172.546L75.0407 172.407C75.0774 172.383 75.1196 172.367 75.1636 172.363C75.2034 172.363 75.2422 172.374 75.2754 172.396L75.3592 172.446C75.3983 172.446 75.415 172.485 75.4095 172.507C75.4039 172.529 75.4095 172.546 75.3368 172.573L75.091 172.718L75.4374 172.917C75.4765 172.917 75.4933 172.956 75.4877 172.978C75.4821 173 75.4598 173.022 75.4095 173.05L75.2195 173.155C75.1833 173.186 75.1385 173.206 75.091 173.211ZM74.4148 172.773L73.5487 172.28L73.6046 173.239L74.4148 172.773Z" fill="#455A64"/>
<path d="M76.2029 172.333C75.8117 172.351 75.4235 172.257 75.0853 172.061C74.7389 171.861 74.5824 171.645 74.6104 171.413C74.6383 171.18 74.8562 170.952 75.2529 170.725C75.4095 170.633 75.5741 170.555 75.7447 170.492C75.8946 170.435 76.05 170.392 76.2085 170.365C76.2318 170.356 76.2577 170.356 76.2811 170.365C76.2835 170.374 76.2835 170.384 76.2811 170.393L76.3314 170.537C76.3369 170.543 76.3399 170.551 76.3399 170.559C76.3399 170.567 76.3369 170.575 76.3314 170.581H76.2699C76.0293 170.628 75.7986 170.716 75.5882 170.842C75.32 170.991 75.1747 171.152 75.1524 171.313C75.13 171.473 75.2529 171.634 75.5212 171.784C75.7663 171.933 76.0497 172.008 76.337 172C76.6212 171.99 76.8981 171.908 77.1416 171.762C77.2288 171.711 77.3128 171.656 77.3931 171.595C77.4568 171.551 77.5133 171.496 77.5607 171.435L77.0019 171.113L76.5381 171.379C76.4986 171.402 76.455 171.417 76.4096 171.424C76.3701 171.422 76.3316 171.411 76.2979 171.39L76.2196 171.346C76.1824 171.324 76.1656 171.302 76.1693 171.279C76.1693 171.279 76.1973 171.241 76.242 171.213L76.9852 170.786C77.0292 170.76 77.0791 170.745 77.1304 170.742C77.1761 170.742 77.2207 170.756 77.259 170.781L78.0636 171.241C78.0863 171.25 78.1057 171.265 78.1195 171.285C78.1195 171.285 78.1195 171.313 78.1195 171.335C77.9439 171.596 77.7007 171.804 77.4154 171.939C77.0501 172.167 76.6336 172.303 76.2029 172.333Z" fill="#455A64"/>
<path d="M91.6705 161.566L92.9837 162.319C93.0392 162.347 93.1004 162.361 93.1625 162.361C93.2245 162.361 93.2857 162.347 93.3413 162.319L94.6656 161.566C94.7606 161.505 94.7606 161.416 94.6656 161.36L93.3469 160.607C93.2922 160.577 93.2306 160.561 93.1681 160.561C93.1055 160.561 93.044 160.577 92.9892 160.607L91.6705 161.36C91.5699 161.416 91.5699 161.505 91.6705 161.566Z" fill="#455A64"/>
<path d="M92.5807 160.536C92.4068 160.453 92.2153 160.411 92.0219 160.414C91.8285 160.409 91.6367 160.451 91.4632 160.536C91.2061 160.686 91.2061 160.913 91.4632 161.057L91.9158 161.318L92.2455 161.251L91.7928 160.996C91.7527 160.981 91.7181 160.954 91.6937 160.919C91.6693 160.884 91.6563 160.842 91.6563 160.8C91.6563 160.757 91.6693 160.715 91.6937 160.68C91.7181 160.645 91.7527 160.618 91.7928 160.603C91.865 160.564 91.9455 160.543 92.0275 160.542C92.1083 160.54 92.1879 160.561 92.2566 160.603L92.7092 160.863L93.0445 160.797L92.5807 160.536Z" fill="#455A64"/>
<path d="M116.558 146.787C116.337 146.78 116.117 146.829 115.921 146.931L112.568 148.844C112.278 149.004 112.278 149.265 112.568 149.431L113.786 150.124C113.982 150.226 114.202 150.276 114.423 150.268C114.526 150.267 114.629 150.258 114.731 150.24C114.845 150.222 114.955 150.183 115.055 150.124L118.407 148.217C118.692 148.051 118.692 147.79 118.407 147.63L117.189 146.931C116.995 146.829 116.777 146.78 116.558 146.787ZM114.434 150.113C114.339 150.111 114.245 150.087 114.161 150.041L112.948 149.342C112.901 149.326 112.861 149.295 112.832 149.255C112.804 149.215 112.789 149.167 112.789 149.118C112.789 149.069 112.804 149.021 112.832 148.981C112.861 148.94 112.901 148.91 112.948 148.893L116.301 146.987C116.354 146.954 116.413 146.932 116.474 146.92H116.575C116.669 146.923 116.761 146.95 116.843 146.998L118.055 147.691C118.102 147.707 118.142 147.738 118.171 147.778C118.2 147.818 118.215 147.866 118.215 147.915C118.215 147.964 118.2 148.012 118.171 148.052C118.142 148.093 118.102 148.123 118.055 148.14L114.703 150.052C114.621 150.1 114.529 150.127 114.434 150.13V150.113Z" fill="#455A64"/>
<path d="M114.529 149.897L114.485 149.87L113.367 149.243C113.333 149.231 113.303 149.208 113.283 149.178C113.262 149.149 113.25 149.113 113.25 149.077C113.25 149.041 113.262 149.006 113.283 148.976C113.303 148.946 113.333 148.923 113.367 148.911L116.373 147.193C116.392 147.18 116.413 147.17 116.435 147.165L116.479 147.193L117.597 147.819C117.629 147.832 117.657 147.855 117.677 147.884C117.696 147.913 117.707 147.947 117.707 147.982C117.707 148.017 117.696 148.051 117.677 148.081C117.657 148.11 117.629 148.132 117.597 148.146L114.591 149.87L114.529 149.897Z" fill="#455A64"/>
<path d="M117.362 146.842C117.478 146.815 117.597 146.812 117.714 146.834C117.83 146.856 117.941 146.902 118.038 146.97L118.262 147.103C118.513 147.241 118.619 147.419 118.502 147.496L118.284 147.629L117.167 146.97L117.362 146.842Z" fill="#455A64"/>
<path d="M98.2686 179.413C99.0901 179.38 99.8929 179.16 100.615 178.77C101.979 177.989 102.331 176.925 100.168 175.589C100.096 175.992 99.9297 176.373 99.6834 176.702C99.4372 177.031 99.1174 177.299 98.7491 177.484C96.894 178.549 94.7818 178.82 93.0775 177.85C91.3732 176.88 91.96 175.439 93.8263 174.375C95.0272 173.695 96.3868 173.34 97.7694 173.345C99.152 173.35 100.509 173.715 101.705 174.403C104.862 176.21 104.153 178.122 101.917 179.391C100.748 180.041 99.4448 180.42 98.1065 180.5L98.2686 179.413ZM99.0565 175.012C97.4192 174.308 96.0279 174.408 94.9718 175.012C94.0833 175.517 93.9045 176.254 94.888 176.814C95.3805 177.078 95.9365 177.204 96.4959 177.177C97.0553 177.151 97.5968 176.973 98.0618 176.664C98.3753 176.519 98.6377 176.284 98.8151 175.99C98.9924 175.695 99.0765 175.355 99.0565 175.012Z" fill="#455A64"/>
<path d="M102.969 171.527C103.302 171.326 103.678 171.207 104.067 171.18C104.456 171.153 104.846 171.219 105.204 171.372C105.762 171.704 105.656 172.258 104.941 172.663C104.603 172.868 104.219 172.99 103.824 173.018C103.428 173.046 103.031 172.979 102.667 172.824C102.091 172.497 102.237 171.937 102.969 171.527ZM107.333 174.027C107.666 173.826 108.043 173.709 108.432 173.682C108.821 173.656 109.21 173.723 109.568 173.877C110.127 174.204 110.02 174.758 109.305 175.168C108.966 175.372 108.583 175.493 108.188 175.521C107.792 175.549 107.396 175.483 107.031 175.329C106.461 175.002 106.601 174.437 107.316 174.049L107.333 174.027Z" fill="#455A64"/>
<path d="M108.071 171.005C105.327 169.431 105.327 167.796 107.573 166.504C109.82 165.213 112.692 165.224 115.43 166.793C118.168 168.361 118.224 170.046 115.988 171.338C113.753 172.629 110.82 172.579 108.071 171.005ZM113.552 167.862C111.256 166.549 109.78 166.56 108.724 167.164C107.668 167.768 107.646 168.616 109.942 169.935C112.239 171.255 113.815 171.277 114.854 170.684C115.893 170.091 115.854 169.182 113.552 167.862Z" fill="#455A64"/>
<path d="M116.809 165.998C114.06 164.424 114.06 162.789 116.306 161.503C118.553 160.217 121.43 160.223 124.163 161.786C126.895 163.349 126.99 165.045 124.722 166.331C122.453 167.617 119.553 167.573 116.809 165.998ZM122.291 162.861C119.989 161.542 118.513 161.553 117.457 162.157C116.401 162.761 116.379 163.609 118.681 164.929C120.983 166.248 122.553 166.264 123.587 165.671C124.621 165.078 124.587 164.175 122.291 162.861Z" fill="#455A64"/>
<path d="M102.722 191.579L146.687 166.403C147.207 166.143 147.781 166.007 148.363 166.007C148.946 166.007 149.52 166.143 150.04 166.403L161.277 172.839C162.204 173.393 162.204 174.23 161.277 174.762L117.329 199.938C116.809 200.199 116.235 200.335 115.652 200.335C115.07 200.335 114.496 200.199 113.976 199.938L102.722 193.503C101.795 192.971 101.795 192.112 102.722 191.579Z" fill="#FF5555"/>
<path d="M107.439 192.432L115.307 196.933C115.53 197.048 115.779 197.108 116.03 197.108C116.282 197.108 116.53 197.048 116.754 196.933L128.349 190.282C128.751 190.049 128.751 189.677 128.349 189.45L120.481 184.944C120.257 184.832 120.009 184.773 119.757 184.773C119.506 184.773 119.258 184.832 119.034 184.944L107.439 191.595C107.349 191.623 107.27 191.678 107.214 191.754C107.158 191.829 107.128 191.92 107.128 192.014C107.128 192.107 107.158 192.198 107.214 192.274C107.27 192.349 107.349 192.405 107.439 192.432Z" fill="#FAFAFA"/>
<path d="M119.307 190.266L128.633 189.9L119.34 189.762L119.715 184.79L118.189 190.926L107.131 192.012L116.161 191.591L115.937 197.106L116.63 191.569L119.218 191.447L119.307 190.266Z" fill="#FF5555"/>
<path d="M124.202 182.593L135.562 176.114C135.845 175.972 136.158 175.897 136.476 175.897C136.793 175.897 137.106 175.972 137.389 176.114C137.887 176.396 137.87 176.862 137.35 177.161L125.99 183.641C125.707 183.783 125.394 183.857 125.076 183.857C124.759 183.857 124.446 183.783 124.163 183.641C123.671 183.358 123.694 182.915 124.202 182.593Z" fill="#FAFAFA"/>
<path d="M127.706 184.578L150.727 171.381C151.011 171.238 151.324 171.164 151.641 171.164C151.958 171.164 152.271 171.238 152.555 171.381C153.052 171.663 153.035 172.134 152.516 172.428L129.494 185.626C129.209 185.768 128.896 185.842 128.577 185.842C128.259 185.842 127.945 185.768 127.661 185.626C127.169 185.36 127.186 184.894 127.706 184.578Z" fill="#FAFAFA"/>
<path d="M131.198 186.596L154.225 173.398C154.508 173.256 154.821 173.182 155.138 173.182C155.456 173.182 155.769 173.256 156.052 173.398C156.544 173.681 156.527 174.152 156.013 174.446L132.986 187.643C132.702 187.786 132.389 187.86 132.072 187.86C131.755 187.86 131.442 187.786 131.158 187.643C130.661 187.35 130.683 186.895 131.198 186.596Z" fill="#FAFAFA"/>
<path d="M97.6875 100.626L172.218 57.9453L175.201 59.6525C175.608 59.918 175.946 60.2745 176.189 60.6933C176.432 61.112 176.572 61.5814 176.598 62.0637V116.601C176.572 117.083 176.432 117.553 176.19 117.971C175.947 118.39 175.608 118.747 175.201 119.012L103.471 160.085C103.037 160.299 102.559 160.411 102.074 160.411C101.589 160.411 101.111 160.299 100.677 160.085L99.1012 159.181C98.694 158.916 98.3551 158.56 98.1116 158.141C97.8681 157.722 97.7267 157.253 97.6987 156.77L97.6875 100.626Z" fill="#FF5555"/>
<path opacity="0.05" d="M97.6875 100.626L172.218 57.9453L175.201 59.6525C175.608 59.918 175.946 60.2745 176.189 60.6933C176.432 61.112 176.572 61.5814 176.598 62.0637V116.601C176.572 117.083 176.432 117.553 176.19 117.971C175.947 118.39 175.608 118.747 175.201 119.012L103.471 160.085C103.037 160.299 102.559 160.411 102.074 160.411C101.589 160.411 101.111 160.299 100.677 160.085L99.1012 159.181C98.694 158.916 98.3551 158.56 98.1116 158.141C97.8681 157.722 97.7267 157.253 97.6987 156.77L97.6875 100.626Z" fill="#555555"/>
<path d="M171.804 53.1421L172.111 52.9759L170.955 52.3107C170.854 52.2547 170.75 52.2066 170.642 52.1666L137.841 40.1107C137.392 39.9611 136.906 39.9572 136.454 40.0997C136.002 40.2422 135.607 40.5237 135.327 40.9034L98.6318 94.0545C98.0622 94.9711 97.7372 96.0164 97.6875 97.0921V100.623L98.8051 101.277L172.201 57.9368V54.4059C172.19 53.9562 172.053 53.5183 171.804 53.1421Z" fill="#FF5555"/>
<path opacity="0.1" d="M136.842 41.1646C136.696 41.278 136.567 41.4125 136.462 41.5637L99.7666 94.7148C99.4651 95.185 99.2354 95.6968 99.0848 96.2336L97.9673 95.5795C98.05 95.3061 98.1489 95.0377 98.2634 94.7758C98.3137 94.665 98.364 94.5596 98.4199 94.4543V94.4044C98.478 94.2932 98.5433 94.1858 98.6155 94.0829L135.322 40.9096C135.377 40.8308 135.439 40.7567 135.506 40.6879L135.702 40.5105L136.842 41.1646Z" fill="#555555"/>
<path opacity="0.35" d="M172.095 52.9811C171.996 52.9213 171.891 52.8712 171.782 52.8315L138.976 40.7701C138.615 40.6511 138.23 40.6253 137.856 40.6951C137.483 40.7649 137.134 40.9281 136.841 41.1692L135.724 40.5151C136.018 40.2763 136.369 40.1147 136.743 40.0449C137.116 39.9752 137.502 39.9997 137.864 40.116L170.664 52.1719C170.771 52.2116 170.874 52.2617 170.972 52.3215L172.095 52.9811Z" fill="white"/>
<path d="M98.437 94.3786C98.4963 94.2681 98.5614 94.1608 98.6322 94.0571C98.5614 94.1608 98.4963 94.2681 98.437 94.3786Z" fill="#FF5555"/>
<path d="M135.512 40.6879C135.571 40.6231 135.637 40.5637 135.707 40.5105C135.635 40.5623 135.57 40.6218 135.512 40.6879Z" fill="#FF5555"/>
<path d="M97.9391 95.5815C98.0217 95.3062 98.1205 95.036 98.2349 94.7722C98.1205 95.036 98.0217 95.3062 97.9391 95.5815Z" fill="#FF5555"/>
<path d="M98.252 94.7513C98.3027 94.6404 98.3591 94.5351 98.4098 94.4353C98.3591 94.5351 98.3027 94.6404 98.252 94.7513Z" fill="#FF5555"/>
<path opacity="0.2" d="M98.4084 94.435C98.4084 94.435 98.4084 94.3968 98.4084 94.3805C98.4084 94.3641 98.4213 94.4186 98.4084 94.435Z" fill="#555555"/>
<path opacity="0.2" d="M135.327 40.9086C135.381 40.8303 135.443 40.7578 135.511 40.6924C135.441 40.7563 135.379 40.829 135.327 40.9086Z" fill="#555555"/>
<path d="M136.462 41.5712L99.7721 94.7279C99.1975 95.6406 98.8703 96.685 98.8221 97.7599V101.291L173.352 58.6102V55.0627C173.324 54.5848 173.163 54.1241 172.885 53.7324C172.608 53.3407 172.226 53.0335 171.782 52.8455L138.982 40.7896C138.532 40.6419 138.047 40.6378 137.595 40.7781C137.143 40.9183 136.746 41.1957 136.462 41.5712Z" fill="#FF5555"/>
<path d="M106.935 152.657L104.544 151.288C104.346 151.139 104.191 150.941 104.093 150.715C103.995 150.489 103.958 150.241 103.985 149.997V76.076C104.016 75.3256 104.248 74.5968 104.655 73.9641L107.086 75.3498C106.675 75.9851 106.443 76.7183 106.416 77.4728V151.366C106.386 151.607 106.418 151.852 106.509 152.077C106.6 152.303 106.746 152.502 106.935 152.657Z" fill="#BFA9A9"/>
<path d="M108.428 73.9423L168.295 39.6648C169.413 39.0108 170.346 39.5373 170.346 40.8399V114.738C170.309 115.445 170.103 116.134 169.747 116.747C169.391 117.361 168.893 117.882 168.295 118.269L108.428 152.541C107.31 153.19 106.377 152.663 106.377 151.36V77.4732C106.415 76.7663 106.621 76.0784 106.977 75.465C107.334 74.8516 107.83 74.33 108.428 73.9423Z" fill="#F0F0F0"/>
<path d="M167.317 38.1319L169.664 39.4843C169.437 39.4003 169.192 39.374 168.952 39.4079C168.712 39.4418 168.484 39.5348 168.29 39.6783L108.428 73.9503C107.853 74.2937 107.376 74.7763 107.042 75.3527L104.611 73.9669C104.948 73.3914 105.422 72.9062 105.991 72.5535L165.859 38.2483C166.067 38.0964 166.313 38.0042 166.57 37.9817C166.827 37.9592 167.086 38.0073 167.317 38.1208V38.1319Z" fill="#FAFAFA"/>
<path d="M113.099 77.8116L162.881 49.2987C163.551 48.9163 164.093 49.1879 164.093 49.9085C164.063 50.3113 163.937 50.7014 163.726 51.0471C163.516 51.3928 163.226 51.6844 162.881 51.8984L113.099 80.4112C112.428 80.7937 111.886 80.5221 111.886 79.807C111.916 79.4032 112.041 79.012 112.252 78.6653C112.462 78.3185 112.753 78.026 113.099 77.8116Z" fill="#BFA9A9"/>
<path d="M113.099 82.9935L162.881 54.4806C163.551 54.0982 164.093 54.3698 164.093 55.0903C164.063 55.4932 163.937 55.8833 163.726 56.229C163.516 56.5747 163.226 56.8663 162.881 57.0803L113.099 85.5931C112.428 85.9756 111.886 85.704 111.886 84.9889C111.916 84.5851 112.041 84.1939 112.252 83.8472C112.462 83.5004 112.753 83.2079 113.099 82.9935Z" fill="#BFA9A9"/>
<path d="M113.099 88.1797L162.881 59.6668C163.551 59.2844 164.093 59.556 164.093 60.271C164.064 60.6748 163.938 61.066 163.728 61.4127C163.517 61.7595 163.227 62.052 162.881 62.2665L113.099 90.7793C112.428 91.1618 111.886 90.8901 111.886 90.1751C111.916 89.7713 112.041 89.3801 112.252 89.0334C112.462 88.6866 112.753 88.3941 113.099 88.1797Z" fill="#BFA9A9"/>
<path d="M113.099 93.3602L162.881 64.8529C163.551 64.4704 164.093 64.742 164.093 65.457C164.064 65.8608 163.938 66.252 163.728 66.5988C163.517 66.9455 163.227 67.238 162.881 67.4525L113.099 95.9653C112.428 96.3478 111.886 96.0762 111.886 95.3556C111.916 94.9518 112.041 94.5606 112.252 94.2139C112.462 93.8671 112.753 93.5746 113.099 93.3602Z" fill="#BFA9A9"/>
<path d="M113.099 98.5434L162.881 70.0306C163.551 69.6481 164.093 69.9197 164.093 70.6348C164.064 71.0386 163.938 71.4298 163.728 71.7765C163.517 72.1233 163.227 72.4158 162.881 72.6302L113.099 101.143C112.428 101.526 111.886 101.254 111.886 100.533C111.917 100.13 112.042 99.7404 112.253 99.3947C112.464 99.049 112.753 98.7574 113.099 98.5434Z" fill="#BFA9A9"/>
<path d="M113.099 103.725L162.881 75.2125C163.551 74.83 164.093 75.1016 164.093 75.8166C164.064 76.2205 163.938 76.6116 163.728 76.9584C163.517 77.3051 163.227 77.5976 162.881 77.8121L113.099 106.325C112.428 106.707 111.886 106.436 111.886 105.715C111.917 105.312 112.042 104.922 112.253 104.577C112.464 104.231 112.753 103.939 113.099 103.725Z" fill="#BFA9A9"/>
<path d="M113.099 108.909L162.881 80.3736C163.551 79.9911 164.093 80.2627 164.093 80.9778C164.064 81.3816 163.938 81.7728 163.728 82.1195C163.517 82.4663 163.227 82.7588 162.881 82.9732L113.099 111.486C112.428 111.869 111.886 111.597 111.886 110.876C111.92 110.477 112.047 110.092 112.258 109.75C112.468 109.409 112.756 109.12 113.099 108.909Z" fill="#BFA9A9"/>
<path d="M113.099 114.089L162.881 85.5765C163.551 85.1885 164.093 85.4656 164.093 86.1807C164.064 86.5845 163.938 86.9757 163.728 87.3224C163.517 87.6692 163.227 87.9617 162.881 88.1761L113.099 116.689C112.428 117.071 111.886 116.8 111.886 116.079C111.917 115.676 112.042 115.286 112.253 114.941C112.464 114.595 112.753 114.303 113.099 114.089Z" fill="#BFA9A9"/>
<path d="M174.709 117.321C174.687 117.36 174.661 117.397 174.631 117.432L143.574 103.768C142.395 103.251 141.067 103.173 139.835 103.55C138.603 103.927 137.549 104.733 136.869 105.819L103.666 158.666L102.437 159.37C102.3 159.464 102.141 159.524 101.975 159.542C101.809 159.56 101.641 159.537 101.487 159.475L135.634 105.121C136.316 104.036 137.369 103.231 138.6 102.854C139.832 102.476 141.159 102.551 142.339 103.064L174.709 117.321Z" fill="#FF5555"/>
<path opacity="0.4" d="M133.801 110.624L133.88 110.558L103.655 158.67L102.426 159.374C102.288 159.468 102.13 159.526 101.964 159.545C101.799 159.563 101.631 159.541 101.476 159.48L132.583 109.915L133.801 110.624Z" fill="white"/>
<path opacity="0.4" d="M174.71 117.326C174.688 117.366 174.661 117.403 174.632 117.437L143.569 103.768C142.39 103.251 141.062 103.173 139.83 103.55C138.598 103.927 137.544 104.733 136.864 105.819L135.634 105.11C136.319 104.028 137.373 103.227 138.604 102.852C139.836 102.478 141.161 102.555 142.34 103.07L174.71 117.326Z" fill="white"/>
<path d="M176.576 61.7094C176.509 61.3103 176.296 61.1994 176.017 61.3879C175.879 61.4901 175.758 61.6136 175.659 61.7537L175.503 61.9699L144.876 104.296L140.3 110.62C140.005 110.989 139.615 111.271 139.171 111.436C138.727 111.601 138.246 111.643 137.78 111.557L133.829 110.626L103.655 103.509C103.452 103.468 103.243 103.468 103.04 103.509C102.962 103.524 102.885 103.549 102.811 103.581L103.644 103.104L132.7 109.961L136.662 110.859C137.128 110.946 137.61 110.904 138.054 110.739C138.498 110.574 138.888 110.291 139.182 109.922L143.759 103.603L174.559 61.0608C174.652 60.9344 174.77 60.8271 174.905 60.7449L172.256 59.2317L173.374 58.5942L175.218 59.6474C175.571 59.8839 175.874 60.1881 176.107 60.5422C176.34 60.8964 176.5 61.2932 176.576 61.7094Z" fill="#FF5555"/>
<path opacity="0.4" d="M144.877 104.298L140.3 110.623C140.006 110.991 139.615 111.273 139.171 111.438C138.727 111.603 138.247 111.645 137.78 111.559L133.83 110.628L133.908 110.562L134.098 110.262L136.685 110.872C137.151 110.959 137.633 110.918 138.077 110.753C138.521 110.587 138.911 110.305 139.205 109.935L143.737 103.683L144.877 104.298Z" fill="white"/>
<path opacity="0.1" d="M175.196 59.6474L173.352 58.5942L172.234 59.2317L174.9 60.756C174.765 60.8386 174.648 60.9458 174.553 61.0719L143.759 103.614L143.714 103.675L144.832 104.29L175.498 61.9699L175.654 61.7537C175.753 61.6136 175.874 61.4901 176.012 61.3879C176.286 61.1994 176.498 61.3103 176.571 61.7094C176.492 61.2919 176.33 60.8942 176.094 60.54C175.858 60.1858 175.553 59.8823 175.196 59.6474Z" fill="#555555"/>
<path d="M104.259 104.397L97.6875 100.628V156.772C97.7155 157.255 97.8569 157.724 98.1004 158.143C98.344 158.562 98.6829 158.918 99.09 159.183L100.666 160.087C101.1 160.301 101.578 160.413 102.063 160.413C102.548 160.413 103.026 160.301 103.46 160.087L104.248 159.632L104.259 104.397Z" fill="#FF5555"/>
<path opacity="0.15" d="M104.259 104.397L97.6875 100.628V156.772C97.7155 157.255 97.8569 157.724 98.1004 158.143C98.344 158.562 98.6829 158.918 99.09 159.183L100.666 160.087C101.1 160.301 101.578 160.413 102.063 160.413C102.548 160.413 103.026 160.301 103.46 160.087L104.248 159.632L104.259 104.397Z" fill="#555555"/>
<path d="M175.503 61.9695V115.913C175.489 116.413 175.338 116.899 175.067 117.321C174.862 117.679 174.582 117.989 174.246 118.23L174.196 118.264L174.101 118.324L102.376 159.398C102.29 159.45 102.198 159.493 102.102 159.525C102.096 159.442 102.096 159.359 102.102 159.276V104.761C102.09 104.566 102.125 104.37 102.206 104.192C102.286 104.013 102.409 103.856 102.564 103.735C102.719 103.614 102.902 103.532 103.096 103.497C103.289 103.461 103.489 103.473 103.678 103.53L133.852 110.648L137.802 111.579C138.269 111.664 138.75 111.623 139.194 111.457C139.638 111.292 140.028 111.011 140.323 110.642L144.877 104.295L175.503 61.9695Z" fill="#455A64"/>
<path d="M176.604 62.0804V116.617C176.586 117.117 176.436 117.602 176.168 118.025C175.96 118.382 175.68 118.693 175.347 118.94L175.291 118.968C175.262 118.99 175.233 119.01 175.202 119.028L103.477 160.079C103.34 160.176 103.18 160.237 103.013 160.256C102.846 160.276 102.677 160.253 102.521 160.19C102.402 160.121 102.302 160.025 102.229 159.909C102.156 159.793 102.112 159.661 102.102 159.525C102.096 159.442 102.096 159.359 102.102 159.276V104.761C102.09 104.566 102.125 104.37 102.206 104.192C102.286 104.013 102.409 103.856 102.564 103.735C102.719 103.614 102.902 103.532 103.096 103.497C103.289 103.461 103.489 103.473 103.678 103.53L133.852 110.648L137.802 111.579C138.269 111.664 138.75 111.623 139.194 111.458C139.638 111.292 140.028 111.011 140.323 110.642L144.877 104.295L175.526 61.9695L175.682 61.7534C176.168 61.0383 176.604 61.1714 176.604 62.0804Z" fill="#FF5555"/>
<path d="M175.201 119.004L175.291 118.943L175.347 118.915C175.68 118.669 175.96 118.357 176.168 118C176.429 117.585 176.577 117.109 176.598 116.62L144.876 104.293L166.11 124.208L175.201 119.004Z" fill="#FF5555"/>
<path opacity="0.2" d="M175.201 119.004L175.291 118.943L175.347 118.915C175.68 118.669 175.96 118.357 176.168 118C176.429 117.585 176.577 117.109 176.598 116.62L144.876 104.293L166.11 124.208L175.201 119.004Z" fill="#555555"/>
<path d="M102.074 159.278C102.054 159.456 102.084 159.636 102.161 159.797C102.238 159.959 102.359 160.096 102.51 160.193C102.666 160.256 102.835 160.278 103.002 160.259C103.169 160.239 103.329 160.179 103.466 160.082L128.158 145.942L133.796 110.628L102.074 158.369V159.278Z" fill="#FF5555"/>
<path opacity="0.15" d="M136.847 105.815L102.504 160.191C102.353 160.094 102.232 159.957 102.155 159.796C102.078 159.634 102.048 159.454 102.069 159.277V158.373L132.371 110.305L132.606 109.933L135.618 105.144L136.847 105.815Z" fill="#555555"/>
<path d="M176.168 118.005C175.96 118.362 175.68 118.673 175.346 118.919L175.291 118.947L103.476 160.081C103.339 160.178 103.18 160.238 103.013 160.258C102.846 160.277 102.677 160.254 102.521 160.192L136.863 105.799C137.552 104.708 138.614 103.899 139.855 103.522C141.095 103.144 142.432 103.222 143.619 103.743L176.168 118.005Z" fill="#FF5555"/>
<path d="M176.168 118.01C175.963 118.367 175.683 118.677 175.347 118.919L175.296 118.952L103.471 160.086C103.333 160.181 103.173 160.24 103.007 160.259C102.84 160.277 102.671 160.254 102.515 160.191L103.471 158.684L174.05 118.254L174.106 118.22C174.404 118.004 174.656 117.733 174.849 117.422L176.168 118.01Z" fill="#FF5555"/>
<path opacity="0.15" d="M97.9389 95.5825L99.0565 96.2366C98.8981 96.7282 98.8097 97.2394 98.7938 97.7553V101.281L97.6763 100.627V97.0957C97.6926 96.5817 97.781 96.0724 97.9389 95.5825Z" fill="#555555"/>
<path d="M104.689 103.331L103.639 103.082L102.806 103.559L101.655 102.899L98.8221 101.281L99.9229 100.632L104.689 103.331Z" fill="#FF5555"/>
<path opacity="0.1" d="M104.689 103.33L99.9282 100.636L98.8107 101.285L101.644 102.903L102.795 103.563C102.862 103.53 102.933 103.508 103.007 103.496C103.21 103.455 103.419 103.455 103.622 103.496L105.941 104.051L132.371 110.303L132.606 109.932L104.689 103.33Z" fill="#555555"/>
<path d="M189.858 105.502L184.555 102.454L184.511 102.426C182.197 101.129 179.018 101.317 175.503 103.34C168.429 107.392 162.69 117.248 162.69 125.351C162.69 129.398 164.126 132.241 166.434 133.572L171.268 136.343L172.385 134.464C173.677 134.18 174.917 133.702 176.062 133.045C183.136 128.993 188.875 119.138 188.875 111.034C188.874 109.939 188.739 108.848 188.473 107.786L189.858 105.502Z" fill="#F28F8F"/>
<path opacity="0.15" d="M163.159 121.089C162.847 122.491 162.684 123.921 162.673 125.357C162.673 129.403 164.109 132.247 166.417 133.577L171.251 136.349L172.368 134.47C173.66 134.186 174.9 133.707 176.045 133.051C177.297 132.324 178.468 131.467 179.537 130.495L163.159 121.089Z" fill="#555555"/>
<path d="M180.532 106.23C173.457 110.282 167.719 120.138 167.719 128.241C167.719 136.345 173.457 139.632 180.532 135.58C187.606 131.528 193.344 121.673 193.344 113.569C193.344 105.466 187.611 102.179 180.532 106.23Z" fill="#FFA8A7"/>
<path d="M185.594 117.508V114.392C185.594 110.839 183.415 109.204 180.733 110.745C178.045 112.286 175.866 116.41 175.866 119.963V122.735C175.807 124.658 175.243 126.532 174.229 128.172C173.979 128.607 173.843 129.096 173.832 129.597C173.832 130.489 174.391 130.905 175.056 130.517L186.416 124.009C186.788 123.744 187.093 123.395 187.305 122.992C187.518 122.589 187.632 122.142 187.639 121.687C187.657 121.513 187.634 121.338 187.572 121.174C187.51 121.011 187.41 120.864 187.282 120.745C186.254 120.312 185.594 119.17 185.594 117.508Z" fill="white"/>
<path d="M183.063 126.932C183.063 128.639 182.018 130.618 180.733 131.366C179.448 132.115 178.397 131.322 178.397 129.62L183.063 126.932Z" fill="white"/>
</svg>
