<svg width="120" height="88" viewBox="0 0 120 88" fill="none" xmlns="http://www.w3.org/2000/svg">
<path d="M60 0L64.239 20.0604L80.5061 9.07969L70.2338 26.4687L89 31L70.2338 35.5313L80.5061 52.9203L64.239 41.9396L60 62L55.761 41.9396L39.4939 52.9203L49.7662 35.5313L31 31L49.7662 26.4687L39.4939 9.07969L55.761 20.0604L60 0Z" fill="#28D1DC"/>
<path d="M120 67.0319C120 78.3538 93.1371 87.5319 60 87.5319C26.8629 87.5319 0 78.3538 0 67.0319C0 55.7101 26.8629 67.032 60 67.032C93.1371 67.032 120 55.7101 120 67.0319Z" fill="#A0CBDD"/>
</svg>
