<svg width="200" height="152" viewBox="0 0 200 152" fill="none" xmlns="http://www.w3.org/2000/svg">
<path d="M83.2784 14.1721H108.707C110.938 14.1721 113.077 15.1128 114.654 16.7872C116.231 18.4616 117.117 20.7327 117.117 23.1007V101.05H74.8688V23.0958C74.87 20.7287 75.7565 18.4589 77.3335 16.7855C78.9105 15.1121 81.0488 14.1721 83.2784 14.1721Z" fill="#263238" stroke="#353642" stroke-width="0.5" stroke-linecap="round" stroke-linejoin="round"/>
<path d="M122.099 146.662L99.7839 139.693V131.938H98.5247V103.303H94.5608V131.938H93.3016V139.486L70.9865 146.662V147.797H71.2865C71.1143 148.131 71.0251 148.506 71.0274 148.887C71.026 149.288 71.1228 149.682 71.3084 150.031C71.494 150.379 71.7618 150.671 72.0857 150.876C72.4095 151.082 72.7781 151.194 73.1553 151.202C73.5325 151.211 73.9052 151.114 74.2367 150.923C74.5683 150.732 74.8473 150.453 75.0462 150.113C75.2452 149.772 75.3573 149.383 75.3716 148.983C75.3858 148.582 75.3016 148.185 75.1273 147.83C74.953 147.475 74.6947 147.174 74.3776 146.957L74.423 146.909L94.879 144.298V147.425C94.6172 147.763 94.4511 148.172 94.4002 148.606C94.3493 149.04 94.4156 149.481 94.5914 149.876C94.7672 150.272 95.0452 150.606 95.3931 150.84C95.7411 151.074 96.1445 151.198 96.5564 151.198C96.9683 151.198 97.3717 151.074 97.7196 150.84C98.0675 150.606 98.3456 150.272 98.5214 149.876C98.6972 149.481 98.7635 149.04 98.7126 148.606C98.6617 148.172 98.4956 147.763 98.2338 147.425V144.298L118.644 146.904C118.277 147.133 117.982 147.473 117.795 147.879C117.608 148.285 117.538 148.741 117.593 149.19C117.648 149.638 117.826 150.06 118.105 150.401C118.384 150.743 118.751 150.991 119.161 151.113C119.572 151.235 120.007 151.226 120.412 151.088C120.818 150.949 121.176 150.687 121.443 150.335C121.709 149.982 121.872 149.554 121.911 149.103C121.95 148.653 121.864 148.2 121.663 147.801H122.117L122.099 146.662Z" fill="#263238" stroke="#353642" stroke-width="0.5" stroke-linecap="round" stroke-linejoin="round"/>
<path d="M115.808 101.001H76.9596C75.1319 101.001 73.6503 102.574 73.6503 104.515V108.052C73.6503 109.993 75.1319 111.566 76.9596 111.566H115.808C117.635 111.566 119.117 109.993 119.117 108.052V104.515C119.117 102.574 117.635 101.001 115.808 101.001Z" fill="white" stroke="#353642" stroke-width="0.5" stroke-linecap="round" stroke-linejoin="round"/>
<path d="M112.553 83.868H80.9738V102.512H112.553V83.868Z" fill="white" stroke="#353642" stroke-width="0.5" stroke-linecap="round" stroke-linejoin="round"/>
<path d="M93.87 30.2098L89.0333 32.2223C89.0333 32.2223 90.7834 43.7619 93.1245 49.7175C95.4656 55.6731 103.993 65.1277 103.993 65.1277C103.993 65.1277 108.412 58.2793 109.953 52.8449C111.494 47.4105 109.885 32.1451 109.885 32.1451C108.782 31.4635 107.568 31.0084 106.307 30.8034C104.112 30.4318 93.87 30.2098 93.87 30.2098Z" fill="white" stroke="#353642" stroke-width="0.5" stroke-linecap="round" stroke-linejoin="round"/>
<path d="M98.5704 38.3275L100.807 42.8883L97.0975 51.5804L103.057 61.1074L106.703 52.3961L102.284 42.7194L104.598 38.4723L101.302 34.9733L98.5704 38.3275Z" fill="#263238" stroke="#353642" stroke-width="0.5" stroke-linecap="round" stroke-linejoin="round"/>
<path d="M94.5747 29.6885L93.0291 30.1373L91.5563 32.8883L95.1929 43.8343L101.157 37.285L107.676 44.3555C107.676 44.3555 108.448 33.3372 108.448 32.0727C108.448 30.8082 107.398 30.3594 106.63 30.1422C105.862 29.925 94.5747 29.6885 94.5747 29.6885Z" fill="white" stroke="#353642" stroke-width="0.5" stroke-linecap="round" stroke-linejoin="round"/>
<path d="M93.0291 30.1373C93.0291 30.1373 93.6973 40.036 97.5748 48.7474C99.5795 53.2358 103.325 59.5437 103.325 59.3217C103.325 59.0997 107.039 47.4105 107.18 43.4626C107.321 39.5147 108.021 31.1026 108.021 31.1026C108.021 31.1026 115.212 34.1431 116.931 35.2001C119.595 36.8362 122.958 37.2078 122.89 39.1431C122.863 39.8478 123.318 44.452 123.895 50.0649C123.986 50.9578 128.5 58.6171 128.595 59.5437C129.563 68.8922 126.277 72.8304 126.113 72.8738C125.836 72.9462 120.013 72.8738 120.013 72.8738C120.013 72.8738 123.172 88.1344 123.649 88.9549L124.14 89.7705H99.0886L98.0431 86.4211L97.1112 89.7705H71.3594L74.796 73.1682H71.0094C71.0094 73.1682 70.0275 71.0833 71.3594 63.2647C72.6913 55.4462 77.1825 35.8661 77.1825 35.2001C77.1825 34.5341 91.5562 31.7734 93.0291 30.1373Z" fill="#FFA7A7" stroke="#353642" stroke-width="0.5" stroke-linecap="round" stroke-linejoin="round"/>
<path d="M98.3838 68.8198L98.0428 86.4211" stroke="#353642" stroke-width="0.5" stroke-linecap="round" stroke-linejoin="round"/>
<path d="M108.034 62.1499C112.176 58.0572 113.998 49.8671 113.998 49.8671L110.28 48.1538L113.857 46.2908L110.766 32.2947C109.016 30.6924 107.989 30.7358 108.039 31.0881C108.039 31.0881 107.339 39.5003 107.198 43.4482C107.057 47.396 103.334 59.0997 103.334 59.3217C103.334 59.5437 99.211 53.4047 97.5836 48.7474C93.7925 37.9076 93.0651 31.3729 92.956 30.1229C92.9549 30.1022 92.9485 30.0822 92.9375 30.065C92.9266 30.0479 92.9115 30.0341 92.8939 30.0253C92.8762 30.0164 92.8566 30.0127 92.8372 30.0146C92.8178 30.0165 92.7991 30.0239 92.7833 30.036C92.2605 30.3642 90.965 30.6345 90.0558 31.4839C89.8013 33.4144 89.474 36.2136 89.2467 39.2928C88.8285 45.0263 88.8285 47.5553 88.8285 47.5553L93.6652 48.8246L90.2286 50.9096C90.2286 50.9096 94.0152 55.0022 97.17 58.0572C100.325 61.1123 102.425 62.2223 102.425 62.2223L98.3837 68.8198C98.3837 68.8198 103.898 66.2474 108.034 62.1499Z" fill="#FFA7A7" stroke="#353642" stroke-width="0.5" stroke-linecap="round" stroke-linejoin="round"/>
<path d="M93.87 24.7754V31.1798C93.87 31.1798 95.4156 36.537 100.884 36.9086C106.635 37.3043 107.616 31.4018 107.616 31.4018V25.7406C107.616 25.7406 96.9702 28.4964 93.87 24.7754Z" fill="white" stroke="#353642" stroke-width="0.5" stroke-linecap="round" stroke-linejoin="round"/>
<path d="M108.948 16.1364C108.948 16.1364 109.158 13.2406 110.839 13.2406C112.521 13.2406 112.526 16.5901 112.103 17.9318C111.68 19.2735 109.508 20.2387 108.807 19.1962" fill="white"/>
<path d="M108.948 16.1364C108.948 16.1364 109.158 13.2406 110.839 13.2406C112.521 13.2406 112.526 16.5901 112.103 17.9318C111.68 19.2735 109.508 20.2387 108.807 19.1962" stroke="#353642" stroke-width="0.5" stroke-linecap="round" stroke-linejoin="round"/>
<path d="M101.971 1.64311C101.971 1.64311 95.7747 1.4018 93.6336 3.09099C91.4926 4.78018 91.9426 9.31203 91.9426 10.7454C91.9426 12.1788 92.9563 24.5003 93.6336 26.2956C94.311 28.091 99.2431 30.8227 103.543 29.7705C107.844 28.7184 109.176 25.4655 109.398 23.7908C109.621 22.1161 109.626 9.31203 109.398 5.97226C109.171 2.63249 105.007 2.00025 101.971 1.64311Z" fill="white" stroke="#353642" stroke-width="0.5" stroke-linecap="round" stroke-linejoin="round"/>
<path d="M109.462 7.28017C109.462 6.74929 109.425 6.31493 109.398 5.94813C109.175 2.59871 105.007 2.00025 101.966 1.64311C101.966 1.64311 95.77 1.4018 93.6289 3.09099C91.4879 4.78018 91.9379 9.31203 91.9379 10.7454C91.9379 11.3198 92.1016 13.6412 92.3425 16.3246C92.4509 16.3895 92.5722 16.4267 92.6965 16.4331C92.8209 16.4395 92.9449 16.4151 93.0588 16.3616C93.1727 16.3082 93.2733 16.2273 93.3525 16.1254C93.4318 16.0234 93.4875 15.9032 93.5153 15.7744C93.9699 14.4568 93.2926 13.2647 93.8562 11.59C94.4199 9.91531 94.6427 8.83906 95.9973 7.99929C96.8464 7.48269 97.7537 7.08215 98.6975 6.8072C98.6975 6.8072 95.8837 10.2725 102.08 10.1518C106.103 10.0553 108.371 9.16724 109.462 7.28017Z" fill="#263238" stroke="#353642" stroke-width="0.5" stroke-linecap="round" stroke-linejoin="round"/>
<path d="M103.198 13.3854C103.198 13.3854 104.248 18.6702 103.266 19.1769C102.284 19.6837 101.657 19.8478 100.811 18.062" stroke="#353642" stroke-width="0.5" stroke-linecap="round" stroke-linejoin="round"/>
<path d="M97.7294 19.1142C97.7294 19.1142 97.5157 21.5756 102.216 21.1991" stroke="#353642" stroke-width="0.5" stroke-linecap="round" stroke-linejoin="round"/>
<path d="M99.202 13.4964C99.202 14.008 98.9974 14.4279 98.7474 14.4279C98.4974 14.4279 98.2928 14.008 98.2928 13.4964C98.2928 12.9848 98.4974 12.5649 98.7474 12.5649C98.9974 12.5649 99.202 12.98 99.202 13.4964Z" fill="#263238"/>
<path d="M106.248 13.4964C106.248 14.008 106.044 14.4279 105.794 14.4279C105.544 14.4279 105.339 14.008 105.339 13.4964C105.339 12.9848 105.544 12.5649 105.794 12.5649C106.044 12.5649 106.248 12.98 106.248 13.4964Z" fill="#263238"/>
<path d="M100.275 15.6923H96.4656C96.2683 15.6916 96.0774 15.6179 95.9256 15.4841C95.7738 15.3503 95.6706 15.1645 95.6337 14.9588L95.1337 12.1161H101.443L101.116 14.9057C101.089 15.1228 100.99 15.3223 100.835 15.467C100.68 15.6117 100.481 15.6918 100.275 15.6923Z" stroke="#353642" stroke-width="0.5" stroke-linecap="round" stroke-linejoin="round"/>
<path d="M108.412 15.6923H104.602C104.405 15.6925 104.214 15.6192 104.062 15.4852C103.91 15.3512 103.807 15.1649 103.771 14.9588L103.266 12.1161H109.58L109.244 14.9057C109.217 15.1211 109.119 15.3193 108.966 15.4638C108.813 15.6084 108.616 15.6895 108.412 15.6923Z" stroke="#353642" stroke-width="0.5" stroke-linecap="round" stroke-linejoin="round"/>
<path d="M101.443 12.1161H103.266" stroke="#353642" stroke-width="0.5" stroke-linecap="round" stroke-linejoin="round"/>
<path d="M95.1338 12.1161L92.12 13.5302" stroke="#353642" stroke-width="0.5" stroke-linecap="round" stroke-linejoin="round"/>
<path d="M92.8198 16.1364C92.8198 16.1364 92.6107 13.2406 90.9242 13.2406C89.2377 13.2406 89.2423 16.5901 89.665 17.9318C90.0878 19.2735 92.2561 20.2387 92.9607 19.1962" fill="white"/>
<path d="M92.8198 16.1364C92.8198 16.1364 92.6107 13.2406 90.9242 13.2406C89.2377 13.2406 89.2423 16.5901 89.665 17.9318C90.0878 19.2735 92.2561 20.2387 92.9607 19.1962" stroke="#353642" stroke-width="0.5" stroke-linecap="round" stroke-linejoin="round"/>
<path d="M110.98 53.2889C110.032 52.3388 108.876 51.6539 107.616 51.2956C107.209 51.1464 106.772 51.1099 106.348 51.1894C105.784 51.1894 102.989 50.118 102.289 49.896C101.589 49.674 101.166 50.4172 101.379 51.2377C101.593 52.0582 103.089 52.7531 103.652 52.9028C104.216 53.0524 103.975 53.0669 103.975 53.0669C103.975 53.0669 104.884 55.451 104.466 56.3439C104.048 57.2367 102.57 59.2396 103.061 60.6634C103.552 62.0871 104.325 62.8207 105.866 62.8207C107.407 62.8207 108.321 62.8931 108.671 62.8207C109.021 62.7483 115.262 66.0205 114.58 66.0977C113.899 66.175 114.299 59.4713 114.299 59.4713L110.98 53.2889Z" fill="white" stroke="#353642" stroke-width="0.5" stroke-linecap="round" stroke-linejoin="round"/>
<path d="M96.8158 57.2368C96.8158 57.2368 100.111 55.5234 101.725 53.8101C103.339 52.0968 103.898 51.6528 104.453 51.5032C105.007 51.3536 107.257 50.6827 107.817 50.1615C108.376 49.6402 108.798 50.6103 107.957 51.3536C107.343 51.8843 106.686 52.3574 105.994 52.7676C105.644 52.9945 105.294 54.037 105.294 54.037C105.294 54.037 108.73 52.4732 109.921 52.8449C111.112 53.2165 112.294 54.3458 112.221 55.0119C112.149 55.6779 111.93 55.3594 111.158 55.2821C110.385 55.2049 109.289 54.8526 108.43 55.2242C107.571 55.5958 106.612 56.4935 106.612 56.8651C106.612 57.2368 107.594 57.4588 108.367 57.3864C109.139 57.314 109.698 57.0872 110.467 57.2368C111.235 57.3864 111.871 57.8304 111.94 58.2792C112.008 58.7281 111.662 58.7232 110.817 58.8005C109.971 58.8777 108.503 58.9501 108.012 59.3217C107.521 59.6933 104.998 60.9578 105.421 61.4067C105.844 61.8555 106.094 61.8555 106.935 61.8555C107.776 61.8555 108.676 61.1702 109.167 61.2088C109.826 61.2619 110.18 61.315 110.18 61.315C110.18 61.315 111.349 61.368 111.244 61.8555C111.08 62.6373 110.689 62.6615 108.994 62.7435C107.667 62.8111 107.312 62.6711 106.121 62.9704C105.1 63.3194 104.038 63.5191 102.966 63.564C100.93 63.7136 97.284 62.6711 97.284 62.6711L96.8158 57.2368Z" fill="white" stroke="#353642" stroke-width="0.5" stroke-linecap="round" stroke-linejoin="round"/>
<path d="M110.048 52.3767C110.048 52.3767 108.63 50.9723 107.816 50.9288C107.003 50.8854 104.521 53.1923 104.18 54.0562C103.839 54.9201 104.634 54.592 105.293 54.3796C105.953 54.1672 107.73 53.2985 108.339 53.0331C108.837 52.7727 109.406 52.7094 109.944 52.8545" fill="white"/>
<path d="M110.048 52.3767C110.048 52.3767 108.63 50.9723 107.816 50.9288C107.003 50.8854 104.521 53.1923 104.18 54.0562C103.839 54.9201 104.634 54.592 105.293 54.3796C105.953 54.1672 107.73 53.2985 108.339 53.0331C108.837 52.7727 109.406 52.7094 109.944 52.8545" stroke="#353642" stroke-width="0.5" stroke-linecap="round" stroke-linejoin="round"/>
<path d="M111.876 55.4462C111.876 55.4462 109.848 54.37 108.58 54.9636C107.312 55.5572 105.739 56.7445 105.739 57.2802C105.739 57.8159 105.993 57.7146 107.103 57.6566C108.212 57.5987 110.216 57.2561 110.485 57.2416C110.886 57.2905 111.283 57.3761 111.671 57.4974" fill="white"/>
<path d="M111.876 55.4462C111.876 55.4462 109.848 54.37 108.58 54.9636C107.312 55.5572 105.739 56.7445 105.739 57.2802C105.739 57.8159 105.993 57.7146 107.103 57.6566C108.212 57.5987 110.216 57.2561 110.485 57.2416C110.886 57.2905 111.283 57.3761 111.671 57.4974" stroke="#353642" stroke-width="0.5" stroke-linecap="round" stroke-linejoin="round"/>
<path d="M83.4238 48.9743L81.6691 58.9501C81.6691 58.9501 96.8883 55.7455 97.4475 56.1943C98.0066 56.6432 98.5157 68.482 98.5157 68.482C98.5157 68.482 78.8644 72.1258 76.5506 72.9463C74.2368 73.7667 71.8503 73.9115 71.0093 73.1683C70.1683 72.425 70.1001 70.5621 70.7275 66.8941C71.3548 63.2262 77.3916 36.5949 77.3916 36.5949" fill="#FFA7A7"/>
<path d="M83.4238 48.9743L81.6691 58.9501C81.6691 58.9501 96.8883 55.7455 97.4475 56.1943C98.0066 56.6432 98.5157 68.482 98.5157 68.482C98.5157 68.482 78.8644 72.1258 76.5506 72.9463C74.2368 73.7667 71.8503 73.9115 71.0093 73.1683C70.1683 72.425 70.1001 70.5621 70.7275 66.8941C71.3548 63.2262 77.3916 36.5949 77.3916 36.5949" stroke="#353642" stroke-width="0.5" stroke-linecap="round" stroke-linejoin="round"/>
<path d="M118.695 48.3033L119.326 59.6933L114.276 59.4713L113.79 68.9115C113.79 68.9115 127.709 72.3526 128.482 72.7725C129.254 73.1924 129.113 72.3284 130.023 70.9095C130.932 69.4906 131.709 66.4452 131.636 65.118C131.564 63.7908 128.691 59.3265 128.623 59.534" fill="#FFA7A7"/>
<path d="M118.695 48.3033L119.326 59.6933L114.276 59.4713L113.79 68.9115C113.79 68.9115 127.709 72.3526 128.482 72.7725C129.254 73.1923 129.113 72.3284 130.023 70.9095C130.932 69.4906 131.709 66.4452 131.636 65.118C131.564 63.7908 128.691 59.3265 128.623 59.534" stroke="#353642" stroke-width="0.5" stroke-linecap="round" stroke-linejoin="round"/>
<path d="M119.326 59.6933H124.027" stroke="#353642" stroke-width="0.5" stroke-linecap="round" stroke-linejoin="round"/>
<path d="M81.6689 58.95L75.4276 61.257" stroke="#353642" stroke-width="0.5" stroke-linecap="round" stroke-linejoin="round"/>
<path d="M83.1601 139.669C83.1601 139.669 82.1418 144.317 80.719 145.943C79.2962 147.57 77.9915 148.646 78.0734 149.939L78.1734 151.238H92.8198V147.338C92.8198 145.07 91.9107 141.064 91.9107 139.457C91.9107 137.85 82.7555 139.563 82.7555 139.563" fill="#263238"/>
<path d="M83.1601 139.669C83.1601 139.669 82.1418 144.317 80.719 145.943C79.2962 147.57 77.9915 148.646 78.0734 149.939L78.1734 151.238H92.8198V147.338C92.8198 145.07 91.9107 141.064 91.9107 139.457C91.9107 137.85 82.7555 139.563 82.7555 139.563" stroke="#353642" stroke-width="0.5" stroke-linecap="round" stroke-linejoin="round"/>
<path d="M78.4234 148.636C78.1747 149.014 78.0515 149.469 78.0734 149.93L78.1734 151.228H92.8199V148.636H78.4234Z" fill="#586166" stroke="#353642" stroke-width="0.5" stroke-linecap="round" stroke-linejoin="round"/>
<path d="M95.8745 98.4192C95.8745 98.4192 97.2973 88.8102 94.8562 84.3845C92.4152 79.9588 83.8691 79.8478 79.0915 82.869C74.3139 85.8903 72.4547 90.8468 74.1821 97.2175C75.9095 103.588 79.9052 103.714 79.9052 103.714C79.9052 103.714 78.887 112.459 78.887 115.914C78.887 119.37 82.3463 140.861 82.3463 140.861H92.4242C92.4242 140.861 95.6699 102.956 95.8745 98.4192Z" fill="#586166" stroke="#353642" stroke-width="0.5" stroke-linecap="round" stroke-linejoin="round"/>
<path d="M79.9054 103.714L80.9191 94.8574" stroke="#353642" stroke-width="0.5" stroke-linecap="round" stroke-linejoin="round"/>
<path d="M112.767 139.669C112.767 139.669 113.785 144.317 115.208 145.943C116.631 147.57 117.936 148.646 117.854 149.939L117.754 151.238H103.107V147.338C103.107 145.07 104.016 141.064 104.016 139.457C104.016 137.85 113.172 139.563 113.172 139.563" fill="#263238"/>
<path d="M112.767 139.669C112.767 139.669 113.785 144.317 115.208 145.943C116.631 147.57 117.936 148.646 117.854 149.939L117.754 151.238H103.107V147.338C103.107 145.07 104.016 141.064 104.016 139.457C104.016 137.85 113.172 139.563 113.172 139.563" stroke="#353642" stroke-width="0.5" stroke-linecap="round" stroke-linejoin="round"/>
<path d="M117.499 148.636C117.749 149.014 117.874 149.469 117.854 149.93L117.754 151.228H103.107V148.636H117.499Z" fill="#586166" stroke="#353642" stroke-width="0.5" stroke-linecap="round" stroke-linejoin="round"/>
<path d="M100.052 98.4192C100.052 98.4192 98.6292 88.8102 101.07 84.3845C103.511 79.9588 112.057 79.8478 116.835 82.869C121.613 85.8903 123.513 90.8468 121.781 97.2175C120.049 103.588 116.021 103.714 116.021 103.714C116.021 103.714 117.04 112.459 117.04 115.914C117.04 119.37 113.58 140.861 113.58 140.861H103.511C103.511 140.861 100.257 102.956 100.052 98.4192Z" fill="#586166" stroke="#353642" stroke-width="0.5" stroke-linecap="round" stroke-linejoin="round"/>
<path d="M116.022 103.714L115.003 94.8574" stroke="#353642" stroke-width="0.5" stroke-linecap="round" stroke-linejoin="round"/>
<path d="M42.7255 64.6644L39.1935 72.5843H49.2078L52.7399 65.0505L42.7255 64.6644Z" fill="#263238" stroke="#263238" stroke-width="0.5" stroke-linecap="round" stroke-linejoin="round"/>
<path d="M64.7133 64.6644H42.7255L46.2621 72.5843H68.2454L64.7133 64.6644Z" fill="white" stroke="#263238" stroke-width="0.5" stroke-linecap="round" stroke-linejoin="round"/>
<path d="M25.6379 83.4916H20.683V151.199H25.6379V83.4916Z" fill="#A3A3A3" stroke="#263238" stroke-width="0.5" stroke-linecap="round" stroke-linejoin="round"/>
<path d="M184.24 83.6653H179.285V151.373H184.24V83.6653Z" fill="#A3A3A3" stroke="#263238" stroke-width="0.5" stroke-linecap="round" stroke-linejoin="round"/>
<path d="M186.417 72.3671H19.6058V137.623H186.417V72.3671Z" fill="#FFA7A7" stroke="#263238" stroke-width="0.5" stroke-linecap="round" stroke-linejoin="round"/>
<path d="M186.417 72.3671H19.6058V79.1576H186.417V72.3671Z" fill="#263238" stroke="#263238" stroke-width="0.5" stroke-linecap="round" stroke-linejoin="round"/>
<path d="M190.667 72.3671H15.36V76.4163H190.667V72.3671Z" fill="white" stroke="#263238" stroke-width="0.5" stroke-linecap="round" stroke-linejoin="round"/>
<path d="M22.2786 132.155C22.2786 132.155 11.0187 106.691 13.4689 105.953C15.919 105.215 21.0558 109.273 21.0558 109.273C21.0558 109.273 5.99109 66.4501 9.88682 63.1489C13.7825 59.8478 21.0558 76.8024 21.0558 76.8024C21.0558 76.8024 13.287 50.6006 14.2007 40.6344C15.1144 30.6682 24.9833 40.2676 24.9833 40.2676C24.9833 40.2676 17.0782 4.4713 24.4151 2.62284C31.7519 0.774388 31.511 43.5881 31.511 43.5881C31.511 43.5881 33.9203 12.9607 36.8614 21.4452C39.8025 29.9298 33.6203 58.3516 33.6203 58.3516C33.6203 58.3516 37.6524 48.757 39.8934 57.6132C42.1345 66.4694 35.4386 102.261 35.4386 102.261C35.4386 102.261 41.1299 96.3584 41.6617 103.738C42.1936 111.117 29.8836 134.018 29.8836 134.018L22.9195 134.737L22.2786 132.155Z" fill="#FFA7A7"/>
<path opacity="0.6" d="M22.2786 132.155C22.2786 132.155 11.0187 106.691 13.4689 105.953C15.919 105.215 21.0558 109.273 21.0558 109.273C21.0558 109.273 5.99109 66.4501 9.88682 63.1489C13.7825 59.8478 21.0558 76.8024 21.0558 76.8024C21.0558 76.8024 13.287 50.6006 14.2007 40.6344C15.1144 30.6682 24.9833 40.2676 24.9833 40.2676C24.9833 40.2676 17.0782 4.4713 24.4151 2.62284C31.7519 0.774388 31.511 43.5881 31.511 43.5881C31.511 43.5881 33.9203 12.9607 36.8614 21.4452C39.8025 29.9298 33.6203 58.3516 33.6203 58.3516C33.6203 58.3516 37.6524 48.757 39.8934 57.6132C42.1345 66.4694 35.4386 102.261 35.4386 102.261C35.4386 102.261 41.1299 96.3584 41.6617 103.738C42.1936 111.117 29.8836 134.018 29.8836 134.018L22.9195 134.737L22.2786 132.155Z" fill="white"/>
<path d="M24.6928 133.26C24.6928 133.26 15.3058 115.548 17.0469 112.227C18.7879 108.907 23.9883 116.643 23.9883 116.643C23.9883 116.643 12.1693 85.2725 13.9103 82.3285C15.6513 79.3845 21.1835 92.2899 21.1835 92.2899C21.1835 92.2899 19.1016 49.1142 22.5745 50.591C26.0475 52.0679 26.4202 72.7242 26.4202 72.7242C26.4202 72.7242 24.3337 23.6412 27.4658 25.1181C30.5978 26.5949 30.2432 81.2088 30.2432 81.2088C30.2432 81.2088 36.5118 60.176 37.5437 69.7899C38.5756 79.4038 29.5477 105.215 29.5477 105.215C29.5477 105.215 38.2392 84.9202 39.2802 95.62C40.3212 106.32 32.3297 126.247 32.3297 126.247C32.3297 126.247 35.4572 118.13 35.4572 122.56C35.4572 126.991 33.0252 132.522 33.0252 132.522" stroke="#263238" stroke-width="0.5" stroke-linecap="round" stroke-linejoin="round"/>
<path d="M37.3709 133.12H17.5013V151.373H37.3709V133.12Z" fill="#263238" stroke="#263238" stroke-width="0.5" stroke-miterlimit="10"/>
<path d="M146.424 9.58716C146.424 9.58716 144.387 13.1538 144.083 14.7706C143.778 16.3874 144.287 17.0389 143.878 18.2262C143.469 19.4134 141.746 19.4182 141.746 20.6055C141.746 21.7928 142.964 22.8738 143.374 23.1972C143.783 23.5206 143.064 24.925 143.778 26.9762C144.492 29.0273 144.796 31.619 146.015 31.619C147.276 31.5484 148.533 31.4033 149.779 31.1847L150.388 35.1277L158.793 34.3169C158.793 34.3169 158.693 30.4559 160.929 28.8101C163.166 27.1644 167.593 17.9028 164.948 11.8555C162.302 5.80821 151.201 4.62094 146.424 9.58716Z" fill="white" stroke="#263238" stroke-width="0.5" stroke-linecap="round" stroke-linejoin="round"/>
<path d="M143.637 5.1084C143.362 6.05743 143.251 7.05167 143.31 8.04276C143.436 9.94805 143.994 11.7927 144.937 13.4192C145.974 15.2387 148.456 16.397 149.069 18.3372C149.269 18.9839 149.778 20.7117 151.201 21.1461C152.624 21.5804 152.324 21.5756 151.915 24.4906C151.506 27.4057 152.729 30.3208 155.17 31.0785C156.319 31.4328 157.534 31.4804 158.705 31.2169C159.876 30.9533 160.968 30.3869 161.884 29.5679C163.816 27.9462 167.475 21.2522 167.58 15.2049C167.757 4.50512 157.824 -0.721712 148.865 0.581377C147.671 0.707084 146.538 1.20351 145.608 2.00865C144.679 2.81379 143.993 3.89193 143.637 5.1084Z" fill="#263238" stroke="#263238" stroke-width="0.5" stroke-linecap="round" stroke-linejoin="round"/>
<path d="M154.41 32.3622C153.055 32.3859 151.719 32.7149 150.492 33.3275C149.356 33.9646 145.405 37.9703 144.387 38.6364C143.369 39.3024 141.437 38.9597 142.569 39.5003C143.701 40.0408 144.501 40.147 146.433 39.3941C148.365 38.6412 152.433 37.1258 153.651 37.1258C154.87 37.1258 159.347 37.7725 159.756 37.8835C160.165 37.9945 162.806 39.2831 162.806 39.2831C162.806 39.2831 161.484 36.2619 159.961 34.7512C158.438 33.2406 156.547 32.2512 154.41 32.3622Z" fill="white" stroke="#263238" stroke-width="0.5" stroke-linecap="round" stroke-linejoin="round"/>
<path d="M151.106 18.926C150.89 19.0171 150.709 19.1819 150.592 19.3942C150.474 19.6065 150.426 19.8544 150.456 20.0987C150.629 21.5233 150.606 22.9669 150.387 24.3844C149.983 26.2184 152.142 26.2184 152.615 23.2117C152.924 21.2233 152.215 18.5061 151.106 18.926Z" fill="white" stroke="#263238" stroke-width="0.5" stroke-linecap="round" stroke-linejoin="round"/>
<path d="M134.114 43.8198C134.114 43.8198 132.895 44.4665 132.795 47.5988C132.695 50.731 127.604 72.7628 127.3 76.2184C126.995 79.674 128.727 81.9376 131.673 83.1296C134.618 84.3217 140.219 86.257 141.219 85.7213C142.219 85.1856 144.169 74.0563 144.878 69.1962C145.587 64.3362 137.046 47.4781 136.641 46.8459C136.237 46.2136 134.827 43.9308 134.114 43.8198Z" fill="white" stroke="#263238" stroke-width="0.5" stroke-linecap="round" stroke-linejoin="round"/>
<path d="M140.728 69.6306L135.132 78.4868" stroke="#263238" stroke-width="0.5" stroke-linecap="round" stroke-linejoin="round"/>
<path d="M151.52 108.945L158.584 150.451C158.606 150.581 158.655 150.704 158.726 150.813C158.796 150.921 158.888 151.013 158.995 151.081C159.101 151.149 159.22 151.192 159.344 151.207C159.467 151.223 159.593 151.21 159.711 151.17C159.906 151.102 160.073 150.965 160.182 150.78C160.292 150.596 160.337 150.377 160.311 150.162L155.097 108.048L151.52 108.945Z" fill="white" stroke="#263238" stroke-width="0.5" stroke-linecap="round" stroke-linejoin="round"/>
<path d="M143.678 99.8768C143.678 99.8768 141.032 137.777 141.032 138.858C141.032 139.939 138.305 151.276 138.305 151.276H145.61C145.61 151.276 146.319 149.766 146.319 146.634C146.319 143.501 146.628 136.807 146.628 136.161C146.628 135.514 154.765 102.034 154.765 102.034C154.765 102.034 154.356 98.6847 150.387 96.7252C146.419 94.7657 144.287 99.0129 143.678 99.8768Z" fill="white" stroke="#263238" stroke-width="0.5" stroke-linecap="round" stroke-linejoin="round"/>
<path d="M146.319 146.634C146.319 143.772 146.574 137.946 146.619 136.46C143.233 134.442 141.132 137.131 141.132 137.131C141.073 138.096 141.037 138.723 141.037 138.849C141.037 139.93 138.309 151.267 138.309 151.267H145.61C145.61 151.267 146.319 149.766 146.319 146.634Z" fill="#263238" stroke="#263238" stroke-width="0.5" stroke-linecap="round" stroke-linejoin="round"/>
<path d="M145.61 151.276C145.61 151.276 146.319 149.766 146.319 146.634C146.319 145.47 146.364 143.81 146.414 142.155C145.71 141.281 144.187 139.944 142.559 141.991C141.846 142.883 139.968 148.521 139.073 151.276H145.61Z" fill="#4F4F4F" stroke="#263238" stroke-width="0.5" stroke-linecap="round" stroke-linejoin="round"/>
<path d="M142.56 141.991L143.169 151.276H144.987L146.519 141.773C146.519 141.773 144.492 139.182 142.56 141.991Z" fill="#263238" stroke="#263238" stroke-width="0.5" stroke-linecap="round" stroke-linejoin="round"/>
<path d="M128.827 94.925C128.827 94.925 125.672 98.5978 125.367 101.73C125.063 104.862 135.945 138.014 135.945 138.014C135.677 139.407 135.083 140.706 134.218 141.793C132.691 143.844 130.554 146.759 130.25 148.704C129.945 150.649 130.25 151.296 130.25 151.296H137.473C137.473 151.296 140.014 144.384 141.032 142.657C142.05 140.929 141.437 137.579 141.132 136.069C140.828 134.558 138.082 99.6788 138.082 99.6788C138.082 99.6788 135.945 92.314 128.827 94.925Z" fill="white" stroke="#263238" stroke-width="0.5" stroke-linecap="round" stroke-linejoin="round"/>
<path d="M141.032 142.637C141.914 141.136 141.573 138.419 141.264 136.74C140.884 136.404 140.436 136.167 139.954 136.047C139.473 135.927 138.972 135.928 138.491 136.049C136.355 136.59 135.946 137.98 135.946 137.98C135.677 139.373 135.083 140.673 134.218 141.759C132.691 143.81 130.554 146.725 130.25 148.67C129.945 150.615 130.25 151.262 130.25 151.262H137.473C137.473 151.262 140.014 144.365 141.032 142.637Z" fill="#263238" stroke="#263238" stroke-width="0.5" stroke-linecap="round" stroke-linejoin="round"/>
<path d="M133.759 151.276H137.473C137.473 151.276 139.746 145.128 140.846 142.98C140.301 142.449 138.65 141.093 137.064 142.42C135.132 144.042 134.927 148.038 134.423 149.549C134.182 150.258 133.941 150.847 133.759 151.276Z" fill="#4F4F4F" stroke="#263238" stroke-width="0.5" stroke-linecap="round" stroke-linejoin="round"/>
<path d="M137.064 142.42L137.473 151.276H138.791L141.028 142.637C141.028 142.637 138.996 140.48 137.064 142.42Z" fill="#263238" stroke="#263238" stroke-width="0.5" stroke-linecap="round" stroke-linejoin="round"/>
<path d="M137.037 58.4578C138.728 64.5196 140.246 75.8854 140.246 76.9472C140.246 78.8777 134.927 90.0408 134.927 90.0408C134.927 90.0408 129.018 93.2793 127.604 95.5476C126.948 96.5501 126.563 97.7246 126.492 98.9431C126.42 100.162 126.665 101.378 127.2 102.459C128.218 104.616 129.741 105.591 133.109 106.238C136.478 106.884 167.689 106.238 167.689 106.238C167.689 106.238 170.944 102.024 169.416 95.3304C168.707 92.2126 167.934 89.5051 167.08 85.7213C167.08 85.7213 170.434 85.8275 172.875 83.6654C175.317 81.5032 175.421 78.1586 175.421 75.6779C175.421 73.1972 173.885 52.454 173.885 50.4076C173.885 48.3613 173.794 45.7648 171.975 44.2493C170.157 42.7339 165.848 40.3883 161.975 38.2069C158.929 36.5032 156.688 36.8024 154.247 36.8024C151.806 36.8024 148.856 38.7329 148.856 38.7329C148.856 38.7329 135.327 42.5119 134.309 43.1586C133.291 43.8053 133.655 44.4617 134.027 46.8459" fill="white"/>
<path d="M137.037 58.4578C138.728 64.5196 140.246 75.8854 140.246 76.9472C140.246 78.8777 134.927 90.0408 134.927 90.0408C134.927 90.0408 129.018 93.2793 127.604 95.5476C126.948 96.5501 126.563 97.7246 126.492 98.9431C126.42 100.162 126.665 101.378 127.2 102.459C128.218 104.616 129.741 105.591 133.109 106.238C136.478 106.884 167.689 106.238 167.689 106.238C167.689 106.238 170.944 102.024 169.416 95.3304C168.707 92.2126 167.934 89.5051 167.08 85.7213C167.08 85.7213 170.434 85.8275 172.875 83.6654C175.317 81.5032 175.421 78.1586 175.421 75.6779C175.421 73.1972 173.885 52.454 173.885 50.4076C173.885 48.3613 173.794 45.7648 171.975 44.2493C170.157 42.7339 165.848 40.3883 161.975 38.2069C158.929 36.5032 156.688 36.8024 154.247 36.8024C151.806 36.8024 148.856 38.7329 148.856 38.7329C148.856 38.7329 135.327 42.5119 134.309 43.1586C133.291 43.8053 133.655 44.4617 134.027 46.8459" stroke="#263238" stroke-width="0.5" stroke-linecap="round" stroke-linejoin="round"/>
<path d="M168.698 49.8671C168.698 49.8671 164.534 75.5524 164.534 76.9569C164.534 78.3613 167.07 85.7213 167.07 85.7213" stroke="#263238" stroke-width="0.5" stroke-linecap="round" stroke-linejoin="round"/>
<path d="M140.028 78.0331C139.028 81.4453 134.927 90.0409 134.927 90.0409C134.927 90.0409 129.018 93.2793 127.604 95.5476C126.948 96.5502 126.563 97.7246 126.492 98.9432C126.42 100.162 126.665 101.378 127.2 102.459C128.218 104.616 129.741 105.591 133.109 106.238C136.478 106.884 167.689 106.238 167.689 106.238C167.689 106.238 170.944 102.024 169.416 95.3304C168.707 92.2127 167.934 89.5051 167.08 85.7214L164.534 78.0331H140.028Z" fill="#263238" stroke="#263238" stroke-width="0.5" stroke-miterlimit="10"/>
<path d="M131.268 108.506L126.009 150.326C125.992 150.457 126.003 150.59 126.039 150.716C126.075 150.843 126.136 150.959 126.219 151.059C126.301 151.158 126.402 151.237 126.516 151.291C126.629 151.346 126.752 151.373 126.877 151.373C127.081 151.374 127.279 151.299 127.436 151.16C127.593 151.022 127.7 150.829 127.736 150.615L134.927 108.829L131.268 108.506Z" fill="white" stroke="#263238" stroke-width="0.5" stroke-linecap="round" stroke-linejoin="round"/>
<path d="M166.066 108.506L171.325 150.326C171.341 150.457 171.331 150.59 171.295 150.716C171.258 150.843 171.197 150.959 171.115 151.059C171.033 151.158 170.931 151.237 170.818 151.291C170.704 151.346 170.581 151.373 170.457 151.373C170.253 151.374 170.054 151.299 169.897 151.16C169.74 151.022 169.634 150.829 169.598 150.615L162.429 108.829L166.066 108.506Z" fill="white" stroke="#263238" stroke-width="0.5" stroke-linecap="round" stroke-linejoin="round"/>
<path d="M145.61 108.506L140.35 150.326C140.334 150.457 140.344 150.59 140.381 150.716C140.417 150.843 140.478 150.959 140.561 151.058C140.643 151.158 140.744 151.237 140.858 151.291C140.971 151.346 141.094 151.373 141.219 151.373C141.423 151.373 141.62 151.297 141.777 151.159C141.934 151.021 142.041 150.828 142.078 150.615L149.269 108.829L145.61 108.506Z" fill="white" stroke="#263238" stroke-width="0.5" stroke-linecap="round" stroke-linejoin="round"/>
<path d="M171.748 60.6586H138.896C138.896 60.6586 137.987 68.8632 138.491 75.8854C138.996 82.9076 140.119 91.8652 139.914 97.6036C139.71 103.342 136.659 106.46 136.659 106.46H129.336C129.163 106.459 128.991 106.495 128.83 106.565C128.67 106.635 128.524 106.738 128.401 106.868C128.278 106.998 128.181 107.153 128.114 107.323C128.048 107.493 128.013 107.675 128.013 107.859C128.013 108.044 128.048 108.226 128.114 108.397C128.18 108.567 128.278 108.722 128.401 108.852C128.524 108.983 128.669 109.086 128.83 109.157C128.99 109.227 129.162 109.264 129.336 109.264H168.884C171.281 105.158 172.451 100.378 172.239 95.5524C171.934 87.3478 168.884 78.0572 169.898 71.4694C170.912 64.8816 171.748 60.6586 171.748 60.6586Z" fill="#FFA7A7" stroke="#263238" stroke-width="0.5" stroke-linecap="round" stroke-linejoin="round"/>
<path d="M163.052 10.509C163.052 10.509 161.02 11.3729 160.915 13.4047C160.811 15.4366 160.206 22.4733 157.765 26.4694C155.324 30.4655 157.765 36.8362 163.766 37.8063C169.766 38.7763 174.648 29.1673 172.403 19.2348C170.157 9.30241 165.088 9.64507 163.052 10.509Z" fill="#263238" stroke="#263238" stroke-width="0.5" stroke-linecap="round" stroke-linejoin="round"/>
<path d="M0.599976 151.373H199.4" stroke="#263238" stroke-width="0.5" stroke-linecap="round" stroke-linejoin="round"/>
</svg>
